<svg xmlns="http://www.w3.org/2000/svg" width="403pt" height="104pt" version="1.0" viewBox="0 0 403 104"><g transform="translate(0 104) scale(.1 -.1)"><path d="m1690 679c-185-11-422-38-487-55-30-8-64-14-77-14s-39-12-59-27c-19-16-49-36-66-45s-31-24-31-32c0-17 46-56 66-56 8 0 14-6 14-13 0-29 40-57 80-57 22 0 40 4 40 10 0 5-13 7-28 4-19-4-35 1-52 14-36 29-23 32 45 11 66-22 236-38 390-39 55 0 172-7 260-15 210-19 520-19 655 0 58 8 177 22 265 30 254 24 278 27 289 37 6 5 25 18 43 28 18 11 39 31 49 45 21 32 8 50-53 77-24 10-43 23-43 29 0 5-17 9-37 8-21-1-118 6-216 15s-231 21-295 26-151 14-192 20c-87 11-366 11-560-1zm505-19c43-4-35-7-200-6-177 0-234 2-165 6 148 9 283 9 365 0zm288-36c66-6 77-10 77-25 0-14 7-19 25-19s25 5 25 20c0 21 16 25 57 14 21-6 21-6 2-25-10-10-19-26-19-34 0-20 46-20 54 0 6 17 32 20 42 4 3-6-16-31-45-56-28-25-51-53-51-64 0-12-7-19-20-19-18 0-20 7-20 75 0 73-1 75-25 75s-25-2-25-75c0-53 4-75 13-77 6 0-22-4-63-8s-138-13-215-20c-91-9-181-10-257-6l-117 8-3 31c-3 30-6 32-48 35-60 4-71 18-22 26 46 7 66 27 57 55-3 10-1 22 5 26 5 3 10 13 10 21 0 19-34 18-50-1-7-8-27-15-46-15-18 0-40-7-48-16-18-18-19-23-6-44 5-9 5-19-1-27-6-6-9-20-8-30s-1-26-6-36c-7-16-22-17-214-11-193 6-251 14-202 27 12 3 24 1 27-4 9-15 44-10 51 7 3 8 1 20-6 27-6 6-11 27-11 47s-5 41-12 48c-16 16-100 16-116 0-22-22-12-31 28-25 50 6 63-8 14-16-20-3-42-11-50-18-19-16-18-56 4-69 14-10 13-11-8-6-14 3-34 6-44 6-18 0-18 1-1 20 14 16 17 31 12 79l-5 59 112 16c61 9 134 18 161 19 102 7 915 7 988 1zm410-39c46-7 49-22 3-17-26 3-37-1-50-19-18-27-21-62-6-90 9-16 7-19-15-19-16 0-25 6-25 15 0 10-10 15-32 15h-32l33 34c28 29 33 40 28 66-7 34-17 33 96 15zm-1693-24c13-25 13-91 0-91-5 0-10 16-10 35 0 29-4 36-25 41-34 8-71-2-79-22-5-14-1-16 29-11 19 3 35 2 35-4 0-5-10-9-22-9s-30-7-40-16c-16-16-18-16-24 0-14 38 4 63 58 79 69 20 66 20 78-2zm1850-39c0-10-13-26-30-35l-30-18v51 51l30-16c17-9 30-23 30-33zm-1200 3c0-8-7-15-15-15s-15 7-15 15 7 15 15 15 15-7 15-15zm-806-10c-6-16-24-21-24-7 0 11 11 22 21 22 5 0 6-7 3-15zm1881-20c0-43-29-40-33 3-3 28 0 33 15 30 13-2 18-12 18-33zm-1577-17c-7-19-38-22-38-4 0 10 9 16 21 16s19-5 17-12zm-198-8c0-5-7-10-16-10-8 0-12 5-9 10 3 6 10 10 16 10 5 0 9-4 9-10zm715-60c-3-5-17-10-30-10s-27 5-30 10c-4 6 8 10 30 10s34-4 30-10z"/><path d="m2315 608c-2-7-13-57-23-110-18-92-18-98-2-98 14 0 21 18 34 88 10 48 20 97 23 110 4 16 1 22-11 22-9 0-18-6-21-12z"/><path d="m1440 494v-74h29c28 0 30 2 33 48 3 40 6 47 26 50 16 2 22 10 22 27 0 22-4 24-55 24h-55v-75z"/><path d="m1580 505c0-60 2-66 25-77 19-8 31-8 50 0 15 7 25 8 25 2s11-10 25-10c24 0 25 2 25 75v75h-29c-29 0-30-2-33-52-2-39-7-53-18-53s-16 14-18 53c-3 48-5 52-28 52s-24-3-24-65z"/><path d="m1962 558c-22-22-12-31 28-25 50 6 63-8 14-16-45-8-64-23-64-53 0-33 38-50 79-36 19 7 33 7 36 1 10-15 45-10 52 7 3 8 1 20-6 27-6 6-11 27-11 47 0 47-15 60-70 60-25 0-51-5-58-12zm76-80c-7-19-38-22-38-4 0 10 9 16 21 16s19-5 17-12z"/><path d="m2130 551c0-14 8-21 25-23l25-3-25-37c-40-59-35-68 40-68 58 0 65 2 65 20 0 15-7 20-25 20-14 0-25 3-25 8 0 4 11 24 25 44s25 42 25 47c0 7-26 11-65 11-58 0-65-2-65-19z"/><path d="m2382 558c-22-22-12-31 28-25 52 7 62-9 10-17-43-7-65-34-55-66 8-25 43-34 76-21 15 5 31 6 40 0 8-5 22-9 32-9 16 0 17 6 11 53-10 79-25 97-82 97-27 0-53-5-60-12zm78-78c0-12-28-25-36-17-9 9 6 27 22 27 8 0 14-5 14-10z"/></g></svg>
