<svg width="433pt" height="104pt" version="1.0" viewBox="0 0 433 104" xmlns="http://www.w3.org/2000/svg"><g transform="translate(0 104) scale(.1 -.1)"><path d="m2095 720c-44-5-163-9-265-10-377-2-768-23-919-50-30-6-70-10-89-10s-46-6-60-14c-15-8-62-30-105-50-78-35-102-60-76-77 8-5 44-19 80-30 49-17 69-29 82-50 13-24 22-29 57-29 50 0 53 18 3 22-20 2-38 8-40 15-3 9 5 9 29 3 18-5 98-18 178-29 217-30 675-44 1455-45l690-1 270 42c149 23 288 48 310 56 39 13 89 69 82 90-4 13-122 52-217 72-41 9-100 22-130 30-74 18-176 33-350 51-168 18-861 27-985 14zm855-61c118-12 221-23 228-25 17-5 15-44-3-44-8 0-15-7-15-15s7-15 15-15c11 0 15-11 15-40 0-27 7-47 21-61 23-23 62-22 67 2 2 13-3 15-23 12-24-5-25-3-25 41 0 42 2 46 25 46 16 0 25 6 25 15s-9 15-24 15c-22 0-43 26-31 38 8 8 275-16 317-28 34-10 37-13 25-31-12-20-12-20-26 1-18 27-61 27-61 0 0-14 6-20 18-18 14 2 18-5 20-39 3-37 0-43-17-43-10 0-21-4-23-9-1-5-18-12-37-16l-33-7 21 21c24 24 28 78 9 104-7 9-25 19-40 22-53 13-97-61-68-116 6-10 18-19 27-19s14-2 12-5c-3-2-108-16-235-30-211-24-260-26-639-26-225 1-453 4-505 7l-96 7 28 58c30 64 68 159 68 172 0 5-7 7-16 5s-28-33-43-73c-16-38-38-91-49-117l-21-48h-176c-162 0-175 1-175 18 0 26-20 42-52 42-37 0-35 13 5 31 28 12 32 19 32 51 0 20 3 40 8 44 11 12 8 24-7 24-8 0-16-6-19-14-4-9-14-12-26-9-28 7-71-22-71-49 0-12 7-29 15-38 12-13 13-24 6-42-17-45-25-47-191-37-215 13-264 19-252 31 7 7 17 6 32-2 17-9 25-9 33-1 9 9 9 14 0 19-6 4-13 27-15 52-2 35-8 47-29 59-30 17-79 8-79-15 0-11 6-13 20-9 27 9 60-3 60-21 0-9-11-14-34-14-39 0-61-21-53-50 4-15 0-20-14-20-17 0-19 8-19 69 0 58 3 71 18 75 42 13 163 26 372 41 124 9 257 22 295 30 84 18 125 19 125 4 0-8 23-9 83-4 325 30 853 27 1197-6zm-1507 14c-13-2-35-2-50 0-16 2-5 4 22 4 28 0 40-2 28-4zm-268-19c-93-7-205-19-247-27-43-7-78-10-78-6 0 14 285 46 420 46 45 1 6-5-95-13zm2123-1c-10-2-28-2-40 0-13 2-5 4 17 4 22 1 32-1 23-4zm-2482-42c-6-9-56-22-56-14 0 4 40 21 53 22 5 1 6-3 3-8zm-34-85c-3-42-7-53-18-49-22 8-19 90 4 96 9 3 17 5 17 6 0 0-2-23-3-53zm2916 28c19-8 32-19 30-26-7-22-90-58-135-58-40 0-43 2-43 28 0 32 16 52 42 52 10 0 18 7 18 15 0 17 28 13 88-11zm-2968-29c0-21-5-35-12-35-20 0-98 32-98 40 0 6 65 26 98 29 7 1 12-12 12-34zm100-5c0-29-4-40-15-40-10 0-15 10-15 33 0 19 3 37 7 40 15 16 23 5 23-33zm635 15c0-14-8-21-27-23-22-3-28 1-28 16 0 25 10 33 35 30 12-2 20-10 20-23zm1951-2c8-31-6-58-31-58-28 0-41 29-27 59 16 35 49 35 58-1zm-2442-48c-7-16-39-21-48-6-8 12 4 21 30 21 17 0 22-4 18-15zm506-65c0-5-18-10-40-10s-40 5-40 10c0 6 18 10 40 10s40-4 40-10z"/><path d="m2830 624c0-12 7-15 25-12 25 5 25 5 25-74 0-73 2-79 24-90 26-11 56-5 56 11 0 5-10 11-22 13-21 3-23 9-26 86l-3 82h-39c-30 0-40-4-40-16z"/><path d="m2060 610c0-13-7-20-20-20-11 0-20-4-20-10 0-5 9-14 20-20 15-8 20-21 20-55 0-48 21-69 62-63 33 5 33 26 1 30-25 3-28 7-31 46-3 41-3 42 28 42 39 0 36 24-3 28-19 2-27 9-27 23 0 10-7 19-15 19s-15-9-15-20z"/><path d="m1050 570c0-14 6-20 18-18 14 2 18-5 20-39 3-38 1-43-18-43-13 0-20-5-17-12 5-16 106-18 110-3 1 6-8 11-20 13-43 6-25 82 19 82 11 0 18 7 18 20 0 25-15 25-40 0-19-19-20-19-30 0-15 28-60 27-60 0z"/><path d="m1222 524c3-77 22-101 56-71 23 21 32 22 32 2 0-8 7-15 15-15 13 0 15 12 13 72-3 80-22 103-31 38-6-44-22-70-43-70-10 0-14 15-14 55 0 43-3 55-15 55-13 0-15-12-13-66z"/><path d="m1563 583c-7-2-13-11-13-19 0-10 7-13 25-8 26 7 59-11 49-27-3-5-18-9-33-9-47 0-69-43-36-70 12-10 21-10 41-2 19 9 29 9 45-1s21-9 29 3c6 9 6 16 0 18s-10 21-10 43c0 60-45 93-97 72zm55-95c-7-20-48-23-48-4 0 11 9 16 26 16 16 0 24-5 22-12z"/><path d="m1702 578c3-7 24-15 47-18l42-5-45-44c-57-56-52-71 25-71 46 0 59 3 59 15 0 11-11 15-40 15-22 0-40 2-40 5 0 2 19 22 42 43 57 54 49 72-33 72-44 0-60-3-57-12z"/><path d="m2190 569c0-15 5-19 15-15 12 4 15-4 15-39 0-33-4-45-15-45-8 0-15-7-15-15 0-12 13-15 55-15s55 3 55 15c0 8-9 15-20 15-26 0-36 25-22 56 8 16 20 24 37 24 15 0 25 6 25 14 0 26-21 29-44 7s-23-22-29-2c-7 30-57 29-57 0z"/><path d="m2373 583c-7-2-13-11-13-19 0-10 7-13 25-8 26 7 59-11 49-27-3-5-18-9-33-9-47 0-69-43-36-70 12-10 21-10 41-2 19 9 29 9 45-1s21-9 29 3c6 9 6 16 0 18s-10 21-10 43c0 60-45 93-97 72zm55-95c-7-20-48-23-48-4 0 11 9 16 26 16 16 0 24-5 22-12z"/><path d="m2520 515c0-60 3-75 15-75 11 0 15 12 15 44 0 44 18 72 41 64 7-2 13-25 13-53 1-40 5-50 20-53 17-4 18 2 14 63-3 43-9 70-19 76-20 13-27 11-48-10-19-19-19-19-24 0-3 10-10 19-16 19-7 0-11-27-11-75z"/><path d="m2700 572c-26-21-22-49 7-58 10-3 29-10 43-16 22-9 23-11 7-20-10-5-31-6-47-3-23 5-30 3-30-8 0-32 66-36 101-8 31 26 17 52-35 64-20 5-36 13-36 17 0 13 38 22 61 15 17-6 20-3 17 12-5 26-58 29-88 5z"/><path d="m3023 583c-25-10-12-28 19-28 23 0 34-5 36-17 3-13-3-18-21-18-42 0-57-10-57-40 0-33 28-47 59-30 15 8 26 7 40-2 11-7 22-10 25-7 12 11-14 124-31 137-17 12-48 15-70 5zm55-95c-7-20-48-23-48-4 0 11 9 16 26 16 16 0 24-5 22-12z"/></g></svg>