<?xml version="1.0" standalone="no"?>
<!DOCTYPE svg PUBLIC "-//W3C//DTD SVG 20010904//EN"
 "http://www.w3.org/TR/2001/REC-SVG-20010904/DTD/svg10.dtd">
<svg version="1.0" xmlns="http://www.w3.org/2000/svg"
 width="433.000000pt" height="104.000000pt" viewBox="0 0 433.000000 104.000000"
 preserveAspectRatio="xMidYMid meet">

<g transform="translate(0.000000,104.000000) scale(0.100000,-0.100000)"
fill="#000000" stroke="none">
<path d="M1990 678 c-52 -3 -221 -11 -375 -17 -154 -6 -318 -16 -365 -21 -47
-6 -158 -12 -248 -15 -90 -2 -169 -8 -175 -13 -7 -4 -30 -14 -53 -20 -49 -14
-94 -53 -94 -81 0 -22 43 -56 83 -66 15 -4 36 -20 48 -36 17 -24 28 -29 60
-29 22 0 39 5 39 11 0 7 12 9 33 5 106 -20 231 -27 657 -38 701 -19 1252 -17
1475 5 214 21 429 51 484 68 78 23 100 66 59 114 -20 23 -43 30 -170 55 -184
36 -330 56 -523 69 -178 13 -800 19 -935 9z m130 -38 c0 -5 11 -10 25 -10 l25
0 -20 -20 c-11 -11 -20 -27 -20 -35 0 -8 -7 -15 -15 -15 -8 0 -15 -7 -15 -15
0 -8 7 -15 15 -15 12 0 15 -13 15 -55 0 -41 4 -55 14 -55 11 0 16 15 18 53 3
48 5 52 31 55 38 5 36 32 -4 32 -24 0 -30 4 -27 18 2 12 13 17 36 17 19 0 32
5 32 12 0 7 -5 13 -12 13 -8 0 -8 3 -3 9 6 5 89 13 185 16 137 5 230 2 425
-14 137 -12 255 -21 262 -21 7 0 13 -9 13 -20 0 -11 -7 -20 -15 -20 -8 0 -15
-7 -15 -15 0 -8 7 -15 15 -15 11 0 15 -12 15 -45 0 -36 5 -48 25 -61 28 -18
59 -15 63 7 2 10 -5 15 -25 14 -26 0 -28 3 -28 40 0 36 3 40 28 43 38 5 36 32
-3 32 -24 0 -30 4 -30 20 0 18 5 20 33 16 17 -3 68 -8 112 -11 98 -7 205 -25
205 -34 0 -3 -4 -12 -9 -20 -7 -11 -11 -9 -20 8 -16 28 -61 29 -61 1 0 -14 6
-20 18 -18 14 2 17 -4 17 -36 0 -37 -2 -40 -35 -49 -23 -6 -36 -5 -38 2 -2 6
-16 8 -33 4 -28 -5 -59 9 -59 28 0 5 20 9 45 9 43 0 45 1 45 30 0 51 -55 66
-95 25 -31 -30 -33 -77 -5 -103 20 -18 19 -19 -57 -30 -232 -35 -277 -37 -740
-37 -259 0 -474 3 -478 7 -3 3 3 25 15 47 11 23 34 75 49 116 27 69 28 75 11
75 -12 0 -22 -12 -31 -37 -6 -21 -29 -75 -50 -120 l-38 -83 -54 0 c-30 0 -108
3 -174 6 -109 6 -120 9 -129 28 -6 14 -20 22 -41 24 -18 2 -33 7 -33 11 0 4
15 14 33 22 28 12 32 19 32 51 0 20 3 40 8 44 11 12 8 24 -7 24 -8 0 -16 -6
-19 -14 -4 -9 -14 -12 -26 -9 -50 13 -94 -56 -56 -87 17 -14 12 -44 -14 -74
-15 -17 -27 -18 -181 -12 -91 3 -189 9 -218 12 -49 6 -51 8 -33 21 16 11 25
11 42 3 16 -9 24 -9 32 -1 9 9 9 14 0 19 -6 4 -13 27 -15 52 -2 35 -8 47 -29
59 -30 17 -79 8 -79 -15 0 -11 6 -13 20 -9 26 8 60 -3 60 -20 0 -9 -14 -15
-36 -17 -46 -4 -65 -29 -46 -59 12 -19 11 -20 -10 -17 -22 3 -23 7 -23 78 l0
75 80 12 c44 7 215 19 380 28 165 9 350 19 410 24 164 12 315 13 315 1z
m-1268 -136 c-5 -70 -26 -68 -30 4 -3 45 0 52 15 52 16 0 18 -7 15 -56z m-52
5 l0 -40 -40 22 c-58 33 -51 54 18 58 19 1 22 -4 22 -40z m2779 22 l35 -18
-30 -15 c-16 -9 -42 -18 -59 -22 -16 -4 -38 -9 -47 -12 -14 -4 -18 0 -18 18 0
29 17 48 42 48 10 0 18 5 18 10 0 15 21 12 59 -9z m-2679 -31 c0 -29 -4 -40
-15 -40 -10 0 -15 10 -15 33 0 19 3 37 7 40 15 16 23 5 23 -33z m635 15 c0
-14 -8 -21 -27 -23 -22 -3 -28 1 -28 16 0 25 10 33 35 30 12 -2 20 -10 20 -23z
m1785 10 c0 -9 -9 -15 -25 -15 -24 0 -32 10 -18 23 12 13 43 7 43 -8z m-2276
-60 c-7 -16 -39 -21 -48 -6 -8 12 4 21 30 21 17 0 22 -4 18 -15z m2501 -15
c-27 -12 -43 -12 -25 0 8 5 22 9 30 9 10 0 8 -3 -5 -9z m-2628 -16 c-3 -3 -12
-4 -19 -1 -8 3 -5 6 6 6 11 1 17 -2 13 -5z m-37 -24 c24 -8 24 -8 -7 -9 -17
-1 -35 4 -38 9 -7 11 9 11 45 0z m670 -10 c0 -5 -18 -10 -40 -10 -22 0 -40 5
-40 10 0 6 18 10 40 10 22 0 40 -4 40 -10z"/>
<path d="M2940 590 c0 -11 -7 -20 -15 -20 -8 0 -15 -7 -15 -15 0 -8 7 -15 15
-15 11 0 15 -12 15 -45 0 -36 5 -48 25 -61 28 -18 59 -15 63 7 2 10 -5 15 -25
14 -26 0 -28 3 -28 40 0 36 3 40 28 43 38 5 36 32 -3 32 -23 0 -30 4 -30 20 0
11 -7 20 -15 20 -8 0 -15 -9 -15 -20z"/>
<path d="M1130 549 c0 -15 5 -19 15 -15 12 4 15 -4 15 -39 0 -33 -4 -45 -15
-45 -8 0 -15 -7 -15 -15 0 -12 13 -15 55 -15 42 0 55 3 55 15 0 8 -9 15 -20
15 -26 0 -36 25 -22 56 8 16 20 24 38 24 18 0 25 5 22 17 -5 25 -24 26 -46 3
l-20 -22 -7 21 c-9 29 -55 29 -55 0z"/>
<path d="M1290 515 c0 -83 27 -119 60 -80 7 8 16 15 21 15 5 0 9 -7 9 -15 0
-8 7 -15 15 -15 12 0 15 15 15 75 0 60 -3 75 -15 75 -10 0 -15 -10 -15 -29 0
-47 -17 -81 -40 -81 -19 0 -21 5 -18 52 2 43 0 53 -14 56 -16 3 -18 -5 -18
-53z"/>
<path d="M1633 563 c-7 -2 -13 -11 -13 -19 0 -10 7 -13 25 -8 26 7 59 -11 49
-27 -3 -5 -18 -9 -33 -9 -47 0 -69 -43 -36 -70 12 -10 21 -10 41 -2 19 9 29 9
45 -1 16 -10 21 -9 29 3 6 9 6 16 0 18 -6 2 -10 21 -10 43 0 60 -45 93 -97 72z
m55 -95 c-7 -20 -48 -23 -48 -4 0 11 9 16 26 16 16 0 24 -5 22 -12z"/>
<path d="M1772 558 c3 -7 24 -15 47 -18 l42 -5 -45 -44 c-57 -56 -52 -71 25
-71 46 0 59 3 59 15 0 11 -11 15 -40 15 -22 0 -40 2 -40 5 0 2 19 22 42 43 57
54 49 72 -33 72 -44 0 -60 -3 -57 -12z"/>
<path d="M2282 554 c-19 -13 -23 -23 -20 -62 2 -39 8 -49 31 -62 24 -13 30
-13 55 0 22 13 28 23 30 62 3 39 -1 49 -20 62 -12 9 -29 16 -38 16 -9 0 -26
-7 -38 -16z m66 -56 c3 -29 -1 -38 -17 -43 -29 -9 -41 1 -41 34 0 60 53 69 58
9z"/>
<path d="M2420 549 c0 -14 5 -19 14 -16 10 4 15 -5 18 -35 3 -33 0 -42 -14
-46 -10 -2 -18 -11 -18 -18 0 -10 15 -14 55 -14 42 0 55 3 55 15 0 8 -9 15
-20 15 -15 0 -20 7 -20 28 0 32 16 52 42 52 11 0 18 7 18 20 0 11 -7 20 -15
20 -8 0 -20 -9 -27 -20 -7 -11 -16 -20 -19 -20 -4 0 -9 9 -12 20 -7 29 -57 28
-57 -1z"/>
<path d="M2580 496 c0 -61 3 -76 15 -76 12 0 15 13 15 55 0 43 3 55 16 55 12
0 15 -10 12 -51 -2 -35 1 -53 10 -56 9 -3 12 11 12 51 0 44 3 56 16 56 12 0
15 -10 12 -52 -2 -41 0 -53 12 -56 14 -2 15 8 12 65 -5 75 -13 93 -37 73 -11
-9 -19 -10 -28 -1 -10 8 -17 7 -25 -1 -8 -8 -15 -8 -27 2 -13 11 -15 4 -15
-64z"/>
<path d="M2768 564 c-17 -16 -6 -29 24 -29 23 0 34 -5 36 -17 3 -15 -4 -18
-32 -18 -25 0 -38 -6 -46 -19 -21 -40 19 -73 60 -51 16 9 25 8 36 -1 20 -17
44 5 26 23 -7 7 -12 28 -12 48 0 19 -4 41 -8 48 -10 15 -74 27 -84 16z m60
-96 c-7 -20 -48 -23 -48 -4 0 11 9 16 26 16 16 0 24 -5 22 -12z"/>
</g>
</svg>
