<svg fill="none" viewBox="0 0 375 576" xmlns="http://www.w3.org/2000/svg" xmlns:xlink="http://www.w3.org/1999/xlink"><g clip-path="url(#r)"><rect width="375" height="576" fill="#202024"/><circle transform="rotate(180 278 26)" cx="278" cy="26" r="300" fill="url(#l)"/><circle transform="rotate(180 98 26)" cx="98" cy="26" r="300" fill="url(#k)"/><mask id="n" x="0" y="-73" width="375" height="812" style="mask-type:alpha" maskUnits="userSpaceOnUse"><rect y="-73" width="375" height="812" fill="#202024"/></mask><g mask="url(#n)"><path d="m375 95.101v-478.8l-187.52-107.79-187.52 107.79v478.8l187.52 107.79 187.52-107.79z" fill="url(#j)"/><g opacity=".4" style="mix-blend-mode:luminosity"><path d="m1.8365-11.607v107.4l93.291 53.708 93.291-53.708v-107.4l-93.291-53.707-93.291 53.707z" fill="url(#i)"/><path d="m1.8365-119.02v107.4l93.291 53.707 93.291-53.707v-107.4l-93.291-53.707-93.291 53.707z" fill="url(#h)"/><path d="m188.42 95.797v-107.4l93.291-53.707 93.291 53.707v107.4l-93.291 53.707-93.291-53.707z" fill="url(#g)"/><path d="m375-119.02v107.4l-93.291 53.707-93.291-53.707v-107.4l93.291-53.707 93.291 53.707z" fill="url(#f)"/><path d="m281.71 149.53v-107.4l-93.291-53.707-93.291 53.707v107.4l93.291 53.708 93.291-53.708z" fill="url(#e)"/></g></g><defs><filter id="b" x="-100%" y="-100%" width="300%" height="300%"><feFlood result="black"/><feMorphology in="SourceGraphic" operator="dilate" radius="2" result="erode"/><feGaussianBlur in="erode" result="blur" stdDeviation="4"/><feOffset dx="2" dy="2" in="blur" result="offset"/><feComposite in="offset" in2="black" operator="atop" result="merge"/><feComposite in="merge" in2="SourceGraphic" operator="in" result="inner-shadow"/></filter></defs><g filter="url(#b)"><g transform="translate(82 350)"><path d="m29.18 1.28q-8.19 0-8.96-11.65h-11q-1.28 2.95-2.18 5.51l-1.66 4.86h-8.96l20.16-42.24h13.76l2.68 31.1q0.64 6.72 3.2 8.71-1.85 3.71-7.04 3.71zm-14.46-24.45-3.52 8.13h8.83l-0.77-16.45v-1.73l-4.54 10.05zm45.25 5.19q2.3-4.1 2.3-8.26 0-2.75-1.98-2.75-1.54 0-3.14 2.62-1.66 2.63-2.17 6.02l-3.33 20.35-13.25 1.28 6.53-33.92 10.56-1.28-1.15 6.46q3.13-6.46 10.17-6.46 3.71 0 5.73 1.92t2.02 5.86q0 3.93-2.6 6.43-2.59 2.49-7 2.49-1.92 0-2.69-0.76zm33.85 15.29q-3.07 3.97-10.68 3.97-3.97 0-6.85-2.4t-2.88-5.86q0-1.92 0.19-2.88l4.29-22.78 12.99-1.28-4.67 24.7q-0.26 1.41-0.26 2.24 0 3.72 2.24 3.72 2.5 0 4.29-3.4 0.58-1.08 0.83-2.49l4.55-23.49 12.6-1.28-4.73 24.96q-0.19 0.96-0.19 1.98 0 1.03 0.57 2.15 0.58 1.12 2.43 1.37-0.38 1.54-1.72 2.56-2.82 2.18-5.86 2.18t-4.83-1.09-2.31-2.88zm24.39-24.06q2.17-3.07 5.47-5.12t7.33-2.05 5.95 1.28l12.54-1.28-4.35 24.58q-2.24 12.54-6.97 17.47-4.55 4.67-13.38 4.67-6.72 0-10.56-2.11t-3.84-5.63q0-2.63 1.98-4.13 1.99-1.51 5.06-1.51 2.69 0 4.74 1.22 1.21 0.64 1.79 1.54-1.47 1.28-1.47 3.39 0 2.75 2.56 2.75 4.28 0 6.72-10.11 0.7-2.75 1.28-5.51-2.88 3.52-9.41 3.52-4.55 0-7.17-2.17-2.62-2.18-2.62-7.3 0-3.2 1.08-6.81 1.09-3.62 3.27-6.69zm8.32 13.69q0 4.36 2.24 4.36 1.53 0 3.01-1.67 1.15-1.34 1.6-3.33l3.26-16.44q-0.32-0.07-0.64-0.2-0.64-0.25-1.47-0.25-3.91 0-6.21 6.4-1.79 4.99-1.79 11.13zm28.25 11.14q-1.5-1.66-2.17-4.29-0.67-2.62-0.67-6.91t1.47-8.19q1.47-3.91 4.16-6.72 5.5-5.89 14.59-5.89 3.26 0 5.63 1.09l10.95-1.09-4.74 24.96q-0.19 0.77-0.19 2.18 0 1.4 0.86 2.3 0.87 0.9 2.15 1.02-0.64 2.18-2.98 3.46t-4.96 1.28-4.38-0.99-2.28-2.66q-1.02 1.6-3.2 2.63-2.17 1.02-5.08 1.02-2.92 0-5.28-0.77-2.37-0.77-3.88-2.43zm13.51-25.98q-0.74 1.15-1.38 3.1t-1.69 7.17q-1.06 5.21-1.06 8.93 0 3.71 0.58 4.8 0.57 1.08 1.6 1.08 2.04 0 3.55-1.95 1.5-1.95 2.08-5.41l3.39-18.75q-1.34-1.15-2.91-1.15t-2.5 0.51-1.66 1.67zm37.44 28.06q-3.43-0.61-5.22-0.86-1.79-0.26-3.68-0.26t-2.85 0.96q-1.47-1.09-2.24-4.54-0.25-0.96-0.25-2.56 0-3.46 3.97-6.85l19.96-16.39q-8.25-1.34-11.58-1.34t-6.4 1.47q-1.73-2.81-1.73-6.08 0-3.26 2.4-4.93 2.4-1.66 6.43-1.66 1.8 0 3.72 0.26 1.92 0.25 3.84 0.51l3.77 0.57q1.86 0.26 4.26 0.26t5.09-0.64q2.56 2.24 2.56 5.95 0 4.48-3.08 6.91l-21.76 17.41q4.68 1.28 12.42 1.28 3.84 0 6.27-1.92 1.09 1.41 1.38 2.59 0.29 1.19 0.29 2.88 0 1.7-0.58 3.08-0.58 1.37-1.79 2.4-2.43 2.11-7.81 2.11-3.97 0-7.39-0.61z" fill="#ccc"/></g></g><defs><filter id="o" x="-100%" y="-100%" width="300%" height="300%"><feFlood result="black"/><feMorphology in="SourceGraphic" operator="dilate" radius="2" result="erode"/><feGaussianBlur in="erode" result="blur" stdDeviation="4"/><feOffset dx="2" dy="2" in="blur" result="offset"/><feComposite in="offset" in2="black" operator="atop" result="merge"/><feComposite in="merge" in2="SourceGraphic" operator="in" result="inner-shadow"/></filter></defs><g filter="url(#o)"><g transform="translate(56 428)"><path d="m2.66-0.52 0.31-0.17q0.04 0.08 0.15 0.29 0.12 0.2 0.37 0.41t0.65 0.37 1.03 0.16q0.78 0 1.57-0.43t1.43-1.31q0.65-0.89 1.05-2.25t0.4-3.23q0-0.66-0.12-1.31-0.12-0.66-0.36-1.26-0.25-0.59-0.6-1.11-0.35-0.51-0.81-0.89-0.47-0.38-1.05-0.59-0.57-0.22-1.25-0.22-0.6 0-1.26 0.23-0.67 0.24-1.23 0.73-0.56 0.48-0.92 1.24-0.37 0.76-0.37 1.82 0 0.83 0.16 1.45 0.17 0.61 0.44 1.06 0.26 0.44 0.62 0.73 0.36 0.28 0.74 0.45 0.39 0.17 0.78 0.23 0.4 0.07 0.74 0.07 0.49 0 0.9-0.14 0.42-0.14 0.74-0.32t0.53-0.35q0.21-0.18 0.29-0.24l0.24 0.26q-0.72 0.59-1.47 0.89-0.74 0.29-1.64 0.29-0.76 0-1.49-0.23-0.72-0.23-1.27-0.74-0.56-0.5-0.9-1.29t-0.34-1.91q0-0.67 0.19-1.27t0.52-1.12q0.33-0.51 0.78-0.92 0.44-0.41 0.96-0.7t1.08-0.44q0.57-0.16 1.13-0.16 0.46 0 1.04 0.1 0.58 0.09 1.16 0.34 0.59 0.25 1.14 0.69 0.55 0.45 0.98 1.14t0.69 1.67 0.26 2.3q0 1.09-0.22 2.04-0.23 0.95-0.61 1.74t-0.9 1.41q-0.53 0.62-1.12 1.05-0.6 0.43-1.25 0.65-0.64 0.22-1.28 0.22-0.34 0-0.72-0.06t-0.73-0.22q-0.36-0.16-0.66-0.43-0.3-0.28-0.5-0.72zm7.54-6.56 0.14-0.32q0.14 0.08 0.32 0.18 0.19 0.11 0.43 0.21 0.25 0.09 0.55 0.18 0.3 0.08 0.66 0.12 0.13-0.8 0.32-1.43 0.19-0.64 0.43-1.09 0.23-0.46 0.48-0.7t0.49-0.24q0.27 0 0.39 0.21 0.11 0.21 0.11 0.56 0 0.26-0.05 0.57-0.06 0.3-0.14 0.65-0.09 0.35-0.21 0.72-0.13 0.38-0.26 0.75 0.88-0.08 1.62-0.29 0.74-0.22 1.29-0.44l0.17 0.33q-0.72 0.27-1.5 0.49-0.77 0.21-1.73 0.27-0.22 0.57-0.45 1.08-0.23 0.52-0.43 0.89 0.01 0.5 0.06 1.07 0.05 0.58 0.19 1.08 0.15 0.5 0.42 0.83 0.26 0.34 0.7 0.34 0.37 0 0.68-0.32 0.31-0.31 0.57-0.79t0.48-1.05 0.41-1.08l0.34 0.09q-0.12 0.32-0.26 0.71-0.14 0.4-0.32 0.81-0.17 0.4-0.39 0.79-0.21 0.38-0.46 0.68-0.26 0.31-0.56 0.49-0.31 0.18-0.67 0.18-0.39 0-0.73-0.18-0.33-0.18-0.59-0.63-0.25-0.45-0.39-1.23-0.15-0.78-0.15-1.98 0-0.97 0.11-1.8-0.76-0.1-1.27-0.31-0.51-0.2-0.8-0.4zm3.87-2.62q-0.08 0-0.24 0.16-0.15 0.15-0.33 0.51t-0.34 0.93q-0.16 0.58-0.26 1.42h0.17 0.43q0.16-0.44 0.28-0.85 0.12-0.42 0.2-0.77 0.09-0.36 0.14-0.64 0.04-0.29 0.04-0.47 0-0.29-0.09-0.29zm-1.24 4.6v0.02q0.15-0.31 0.28-0.62 0.14-0.31 0.26-0.64h-0.33-0.17q-0.02 0.28-0.03 0.6-0.01 0.31-0.01 0.64zm4.57-6.84-0.68 3.14h-0.35l0.22-3.14h0.81zm1.01 6.97q-0.09 0.26-0.19 0.51-0.09 0.24-0.2 0.49-0.11 0.24-0.26 0.48t-0.36 0.48l-0.07-0.07q0.23-0.55 0.41-1.13 0.17-0.58 0.35-1.3-0.05-0.12-0.08-0.21-0.04-0.09-0.06-0.16-0.03-0.08-0.05-0.16-0.01-0.09-0.01-0.19 0-0.14 0.04-0.31 0.03-0.17 0.11-0.32 0.07-0.15 0.17-0.25 0.1-0.11 0.2-0.11 0.13 0 0.2 0.06 0.08 0.06 0.12 0.15 0.04 0.08 0.06 0.18t0.02 0.19q0 0.13-0.03 0.3t-0.07 0.33q-0.04 0.17-0.07 0.29t-0.03 0.16q0.07 0.23 0.24 0.48t0.39 0.5q0.22 0.26 0.46 0.53 0.24 0.28 0.44 0.59 0.2 0.3 0.33 0.65 0.12 0.35 0.12 0.74 0 0.55-0.16 0.89-0.16 0.35-0.43 0.53 0.39-0.16 0.74-0.56 0.34-0.41 0.64-0.93 0.29-0.52 0.54-1.09 0.25-0.58 0.45-1.07l0.34 0.09q-0.3 0.76-0.63 1.49-0.34 0.73-0.76 1.3-0.42 0.58-0.95 0.93t-1.22 0.35q-0.18 0-0.37-0.03t-0.37-0.1q-0.18-0.06-0.34-0.18-0.16-0.11-0.27-0.27l0.29-0.19q0.08 0.12 0.24 0.22 0.17 0.11 0.44 0.11t0.46-0.11q0.2-0.11 0.34-0.3t0.2-0.44q0.07-0.26 0.07-0.55 0-0.6-0.17-1.03-0.18-0.43-0.41-0.76-0.23-0.34-0.47-0.62-0.25-0.29-0.38-0.58zm8.26 0.76-0.34-0.09q0.13-0.34 0.29-0.65 0.15-0.31 0.33-0.55 0.17-0.24 0.38-0.38 0.21-0.15 0.46-0.15 0.12 0 0.28 0.05 0.16 0.06 0.31 0.21 0.14 0.16 0.24 0.46 0.09 0.3 0.09 0.79 0 0.26-0.02 0.56-0.03 0.31-0.06 0.61 0.28-0.58 0.55-0.98 0.26-0.4 0.52-0.64t0.52-0.35q0.25-0.11 0.51-0.11 0.11 0 0.26 0.05 0.16 0.05 0.29 0.19 0.14 0.13 0.23 0.36 0.1 0.22 0.1 0.58 0 0.29-0.05 0.58-0.04 0.29-0.1 0.57-0.05 0.27-0.09 0.51-0.05 0.24-0.05 0.43 0 0.44 0.16 0.67t0.49 0.23q0.26 0 0.5-0.19 0.23-0.2 0.44-0.51t0.38-0.68 0.3-0.7q0.12-0.34 0.21-0.6t0.13-0.36l0.34 0.09q-0.12 0.31-0.26 0.68t-0.3 0.75q-0.17 0.38-0.36 0.74-0.2 0.35-0.43 0.62-0.24 0.28-0.52 0.44-0.28 0.17-0.61 0.17-0.28 0-0.49-0.11-0.2-0.11-0.34-0.29-0.15-0.19-0.22-0.44-0.07-0.26-0.07-0.55 0-0.32 0.06-0.67 0.06-0.34 0.12-0.65 0.07-0.32 0.13-0.59 0.05-0.27 0.05-0.44 0-0.28-0.1-0.41-0.11-0.14-0.29-0.14-0.26 0-0.5 0.19-0.24 0.18-0.46 0.49-0.23 0.31-0.43 0.7-0.2 0.4-0.37 0.82-0.17 0.41-0.32 0.83-0.14 0.41-0.25 0.74-0.11 0.34-0.18 0.57-0.08 0.23-0.1 0.29l-0.51-0.08q0.1-0.52 0.19-1.1 0.09-0.57 0.16-1.13 0.06-0.56 0.1-1.07t0.04-0.9q0-0.54-0.07-0.73t-0.25-0.19q-0.16 0-0.3 0.12t-0.26 0.32q-0.12 0.19-0.24 0.46-0.11 0.26-0.22 0.56zm9.45 3.42q0.5 0 0.95-0.36t0.71-1.05h-0.07q-0.55 0-1.01-0.18-0.46-0.19-0.8-0.52t-0.53-0.79q-0.2-0.46-0.2-1.01 0-0.31 0.09-0.63 0.08-0.31 0.26-0.56 0.17-0.25 0.45-0.41t0.67-0.16q0.32 0 0.63 0.13 0.3 0.12 0.55 0.43t0.4 0.83q0.15 0.53 0.15 1.33 0 0.29-0.02 0.59-0.03 0.29-0.1 0.57 0.34-0.06 0.61-0.21 0.27-0.16 0.48-0.39 0.2-0.22 0.36-0.51 0.16-0.28 0.29-0.61l0.34 0.09q-0.18 0.5-0.42 0.85t-0.52 0.59-0.58 0.37q-0.31 0.12-0.63 0.17-0.12 0.43-0.33 0.81-0.2 0.37-0.49 0.66-0.29 0.28-0.67 0.44t-0.86 0.16q-0.39 0-0.79-0.16t-0.72-0.5-0.52-0.85q-0.2-0.52-0.2-1.23 0-0.47 0.11-0.91 0.11-0.45 0.31-0.85t0.47-0.75 0.59-0.6l0.13 0.22q-0.2 0.18-0.39 0.46-0.18 0.27-0.33 0.6t-0.24 0.69q-0.09 0.37-0.09 0.73 0 0.71 0.18 1.19 0.18 0.49 0.46 0.78 0.29 0.29 0.64 0.42t0.68 0.13zm0.5-5.33q-0.23 0-0.44 0.1-0.2 0.1-0.35 0.28t-0.23 0.42q-0.09 0.25-0.09 0.55 0 0.52 0.17 0.93 0.18 0.41 0.48 0.7 0.31 0.29 0.71 0.45 0.4 0.15 0.87 0.15h0.17q0.07-0.27 0.09-0.57 0.03-0.3 0.03-0.65-0.02-0.68-0.14-1.13-0.11-0.45-0.3-0.73-0.18-0.27-0.43-0.38-0.25-0.12-0.54-0.12zm1.38-0.96 0.14-0.32q0.13 0.08 0.31 0.18 0.19 0.11 0.43 0.21 0.25 0.09 0.55 0.18 0.31 0.08 0.67 0.12 0.12-0.8 0.31-1.43 0.2-0.64 0.43-1.09 0.23-0.46 0.48-0.7t0.49-0.24q0.27 0 0.39 0.21 0.11 0.21 0.11 0.56 0 0.26-0.05 0.57-0.05 0.3-0.14 0.65t-0.21 0.72q-0.13 0.38-0.26 0.75 0.88-0.08 1.62-0.29 0.75-0.22 1.29-0.44l0.17 0.33q-0.72 0.27-1.5 0.49-0.77 0.21-1.73 0.27-0.22 0.57-0.45 1.08-0.23 0.52-0.43 0.89 0.01 0.5 0.06 1.07 0.05 0.58 0.19 1.08 0.15 0.5 0.42 0.83 0.26 0.34 0.7 0.34 0.37 0 0.68-0.32 0.31-0.31 0.57-0.79t0.48-1.05 0.41-1.08l0.34 0.09q-0.12 0.32-0.26 0.71-0.14 0.4-0.32 0.81-0.17 0.4-0.38 0.79-0.22 0.38-0.47 0.68-0.25 0.31-0.56 0.49t-0.67 0.18q-0.39 0-0.73-0.18-0.33-0.18-0.58-0.63t-0.4-1.23q-0.14-0.78-0.14-1.98 0-0.97 0.1-1.8-0.76-0.1-1.27-0.31-0.51-0.2-0.79-0.4zm3.86-2.62q-0.08 0-0.23 0.16-0.16 0.15-0.34 0.51-0.17 0.36-0.34 0.93-0.16 0.58-0.26 1.42h0.17 0.43q0.16-0.44 0.28-0.85 0.12-0.42 0.2-0.77 0.09-0.36 0.14-0.64 0.04-0.29 0.04-0.47 0-0.29-0.09-0.29zm-1.24 4.6v0.02q0.15-0.31 0.28-0.62 0.14-0.31 0.26-0.64h-0.33-0.17q-0.02 0.28-0.03 0.6-0.01 0.31-0.01 0.64zm10.51-5.97q0 0.55-0.12 1.17-0.13 0.63-0.34 1.27-0.2 0.64-0.47 1.29t-0.54 1.25-0.54 1.13q-0.26 0.54-0.46 0.96 0.03 0.72 0.12 1.3t0.22 0.99 0.32 0.63q0.18 0.22 0.42 0.22 0.26 0 0.52-0.25 0.26-0.24 0.52-0.69 0.27-0.45 0.54-1.08 0.27-0.64 0.55-1.42l0.35 0.09q-0.22 0.61-0.48 1.28t-0.59 1.23q-0.32 0.57-0.71 0.94-0.38 0.36-0.82 0.36t-0.74-0.27q-0.29-0.27-0.49-0.71-0.19-0.45-0.3-1.02-0.1-0.56-0.15-1.15-0.06-0.59-0.07-1.15 0-0.56 0-0.99 0-0.8 0.06-1.59 0.07-0.79 0.2-1.51 0.14-0.72 0.33-1.34 0.2-0.62 0.46-1.07 0.25-0.45 0.57-0.71 0.31-0.25 0.68-0.25 0.26 0 0.45 0.08 0.18 0.09 0.3 0.24 0.11 0.15 0.16 0.35t0.05 0.42zm-2.53 5.06q0 0.33 0 0.65t0.02 0.62q0.22-0.44 0.47-0.96 0.24-0.52 0.48-1.08 0.25-0.56 0.47-1.13t0.38-1.12q0.17-0.55 0.27-1.05 0.1-0.49 0.1-0.9 0-0.13-0.02-0.28t-0.08-0.28q-0.06-0.12-0.16-0.21-0.11-0.08-0.27-0.08-0.34 0-0.64 0.43-0.3 0.44-0.53 1.21-0.22 0.78-0.35 1.84-0.14 1.07-0.14 2.34zm9.7 1.71 0.34 0.09q-0.36 0.98-0.65 1.63-0.3 0.66-0.58 1.07-0.27 0.4-0.54 0.58-0.28 0.17-0.6 0.17-0.4 0-0.68-0.27-0.28-0.28-0.35-0.86-0.28 0.61-0.73 0.99t-1.13 0.38q-0.36 0-0.69-0.13-0.32-0.13-0.58-0.41-0.25-0.28-0.41-0.7-0.15-0.42-0.15-0.99 0-0.58 0.14-1.09 0.15-0.51 0.39-0.94 0.23-0.42 0.54-0.76 0.32-0.33 0.65-0.56t0.67-0.35q0.33-0.12 0.61-0.12 0.25 0 0.48 0.06t0.41 0.2q0.18 0.13 0.29 0.36t0.11 0.57q0 0.41-0.16 0.7-0.15 0.3-0.37 0.51-0.21 0.2-0.44 0.32-0.22 0.12-0.35 0.18l-0.11-0.35q0.03 0 0.2-0.07t0.36-0.23 0.35-0.42q0.16-0.25 0.16-0.62 0-0.42-0.24-0.65-0.24-0.22-0.61-0.22-0.28 0-0.66 0.2-0.37 0.2-0.72 0.63t-0.59 1.09-0.24 1.58q0 0.9 0.32 1.38 0.32 0.47 0.86 0.47 0.28 0 0.53-0.15 0.25-0.16 0.46-0.41 0.21-0.26 0.38-0.59 0.16-0.34 0.29-0.7 0-0.28 0.06-0.67 0.07-0.38 0.21-0.77l0.54 0.17q-0.05 0.12-0.09 0.3-0.05 0.18-0.09 0.4t-0.06 0.46q-0.03 0.23-0.03 0.45 0 0.68 0.14 0.94 0.13 0.26 0.47 0.26 0.19 0 0.38-0.14t0.41-0.49 0.48-0.95q0.27-0.61 0.62-1.53zm2.11-0.27q0-0.53 0.25-0.91 0.25-0.39 0.64-0.75-0.12-0.08-0.26-0.12t-0.27-0.04q-0.29 0-0.62 0.15-0.33 0.14-0.61 0.48-0.28 0.35-0.46 0.92-0.18 0.58-0.18 1.44 0 0.71 0.17 1.22t0.47 0.84 0.69 0.48q0.4 0.16 0.85 0.16 0.53 0 0.95-0.28 0.43-0.28 0.78-0.76 0.35-0.49 0.65-1.15 0.3-0.65 0.6-1.41l0.34 0.09q-0.18 0.43-0.37 0.89-0.19 0.45-0.41 0.9-0.22 0.44-0.49 0.84-0.27 0.39-0.62 0.69-0.34 0.3-0.78 0.48-0.43 0.17-0.96 0.17-0.55 0-1.04-0.18-0.48-0.18-0.85-0.54-0.37-0.37-0.59-0.92t-0.22-1.3q0-0.76 0.25-1.41t0.64-1.12q0.38-0.48 0.85-0.75t0.89-0.27q0.49 0 0.88 0.25 0.07-0.05 0.13-0.11 0.07-0.05 0.14-0.12l0.19 0.27q-0.05 0.05-0.1 0.09-0.06 0.05-0.11 0.1 0.16 0.19 0.26 0.46 0.1 0.26 0.1 0.59 0 0.36-0.08 0.63-0.09 0.28-0.23 0.47-0.15 0.2-0.33 0.29-0.18 0.1-0.39 0.1-0.1 0-0.23-0.05-0.14-0.05-0.25-0.15t-0.19-0.26-0.08-0.4zm1.42-0.63q0-0.26-0.07-0.46-0.08-0.2-0.2-0.35-0.33 0.28-0.56 0.63-0.23 0.34-0.23 0.81 0 0.25 0.12 0.38 0.12 0.14 0.29 0.14 0.19 0 0.32-0.12 0.13-0.13 0.2-0.31t0.1-0.38q0.03-0.19 0.03-0.34zm5.3-5.6q0 0.62-0.22 1.37-0.23 0.76-0.58 1.61-0.36 0.85-0.8 1.77-0.45 0.93-0.88 1.89-0.05 0.65-0.11 1.23-0.05 0.58-0.11 1.08 0.13-0.31 0.31-0.72 0.17-0.41 0.38-0.84t0.46-0.85 0.54-0.75q0.28-0.32 0.6-0.53 0.32-0.2 0.68-0.2 0.25 0 0.47 0.11 0.23 0.1 0.39 0.28 0.17 0.18 0.27 0.42t0.1 0.5q0 0.44-0.21 0.78-0.2 0.34-0.51 0.58-0.31 0.25-0.7 0.42-0.39 0.16-0.76 0.26 0.04 0.17 0.15 0.39 0.12 0.23 0.31 0.44t0.45 0.35q0.26 0.15 0.59 0.15 0.68 0 1.29-0.81 0.61-0.8 1.2-2.43l0.35 0.09q-0.29 0.79-0.6 1.45-0.31 0.67-0.66 1.15-0.36 0.48-0.77 0.76-0.42 0.27-0.91 0.27-0.19 0-0.44-0.05-0.25-0.06-0.52-0.23t-0.53-0.48q-0.27-0.32-0.49-0.86-0.02-0.05-0.04-0.13-0.03-0.08-0.03-0.12 0-0.17 0.08-0.24 0.08-0.06 0.2-0.09 0.12-0.02 0.26-0.04 0.14-0.01 0.27-0.06 0.65-0.26 0.96-0.74 0.32-0.48 0.32-1.08 0-0.39-0.17-0.54-0.17-0.16-0.39-0.16-0.17 0-0.35 0.1-0.17 0.09-0.31 0.22-0.37 0.36-0.68 0.84t-0.57 0.99q-0.26 0.52-0.46 1.01-0.21 0.5-0.36 0.89-0.14 0.39-0.22 0.64-0.07 0.24-0.07 0.24l-0.34-0.05q-0.01-0.1-0.01-0.24-0.01-0.12-0.01-0.29 0-0.16 0-0.39 0-0.5 0.02-1.24 0.01-0.73 0.06-1.64t0.14-1.97q0.1-1.07 0.25-2.23 0.12-0.95 0.32-1.6 0.19-0.65 0.44-1.05t0.52-0.57q0.27-0.18 0.55-0.18 0.23 0 0.4 0.09 0.16 0.09 0.27 0.24 0.11 0.16 0.16 0.36t0.05 0.43zm-0.79-0.76q-0.22 0-0.4 0.26-0.18 0.25-0.33 0.7t-0.28 1.05q-0.12 0.6-0.23 1.3-0.1 0.7-0.18 1.46-0.09 0.76-0.16 1.52 0.21-0.46 0.45-0.96 0.23-0.5 0.46-1.02 0.22-0.52 0.43-1.02 0.2-0.51 0.36-0.98 0.15-0.46 0.24-0.86 0.1-0.39 0.1-0.69 0-0.11-0.02-0.24-0.01-0.13-0.06-0.25-0.05-0.11-0.13-0.19-0.09-0.08-0.25-0.08zm10.28 10.77q0.5 0 0.95-0.36t0.71-1.05h-0.07q-0.55 0-1.01-0.18-0.46-0.19-0.8-0.52t-0.53-0.79q-0.2-0.46-0.2-1.01 0-0.31 0.09-0.63 0.08-0.31 0.26-0.56 0.17-0.25 0.45-0.41t0.67-0.16q0.32 0 0.63 0.13 0.3 0.12 0.55 0.43t0.4 0.83q0.15 0.53 0.15 1.33 0 0.29-0.02 0.59-0.03 0.29-0.1 0.57 0.34-0.06 0.61-0.21 0.27-0.16 0.48-0.39 0.2-0.22 0.36-0.51 0.16-0.28 0.29-0.61l0.34 0.09q-0.18 0.5-0.42 0.85t-0.52 0.59-0.58 0.37q-0.31 0.12-0.63 0.17-0.12 0.43-0.33 0.81-0.2 0.37-0.49 0.66-0.29 0.28-0.67 0.44t-0.86 0.16q-0.39 0-0.79-0.16t-0.72-0.5-0.52-0.85q-0.2-0.52-0.2-1.23 0-0.47 0.11-0.91 0.11-0.45 0.31-0.85t0.47-0.75 0.59-0.6l0.13 0.22q-0.2 0.18-0.39 0.46-0.18 0.27-0.33 0.6t-0.24 0.69q-0.09 0.37-0.09 0.73 0 0.71 0.18 1.19 0.18 0.49 0.46 0.78 0.29 0.29 0.64 0.42t0.68 0.13zm0.5-5.33q-0.23 0-0.44 0.1-0.2 0.1-0.35 0.28t-0.23 0.42q-0.09 0.25-0.09 0.55 0 0.52 0.17 0.93 0.18 0.41 0.48 0.7 0.31 0.29 0.71 0.45 0.4 0.15 0.87 0.15h0.17q0.07-0.27 0.09-0.57 0.03-0.3 0.03-0.65-0.02-0.68-0.14-1.13-0.11-0.45-0.3-0.73-0.18-0.27-0.43-0.38-0.25-0.12-0.54-0.12zm6.81-4.66q0 0.66-0.24 1.42-0.25 0.76-0.63 1.56-0.39 0.81-0.88 1.65t-0.97 1.67q-0.1 0.81-0.18 1.62t-0.14 1.54q-0.06 0.72-0.09 1.33-0.04 0.61-0.04 1.02 0 0.84 0.09 1.51 0.08 0.68 0.25 1.15t0.42 0.72 0.6 0.25q0.19 0 0.32-0.12 0.13-0.13 0.22-0.32t0.13-0.44q0.05-0.25 0.07-0.49 0.02-0.25 0.03-0.47 0-0.22 0-0.37 0-0.98-0.13-1.87-0.13-0.9-0.33-1.54h-0.07q-0.21 0-0.4-0.06-0.19-0.05-0.34-0.16-0.15-0.1-0.23-0.24-0.09-0.14-0.09-0.31 0-0.24 0.14-0.41 0.15-0.16 0.37-0.16 0.27 0 0.52 0.26 0.24 0.26 0.45 0.69 0.35-0.14 0.64-0.5 0.3-0.35 0.53-0.78 0.24-0.44 0.42-0.89 0.18-0.44 0.31-0.78l0.35 0.09q-0.15 0.38-0.34 0.86t-0.45 0.93q-0.25 0.45-0.58 0.82-0.33 0.38-0.75 0.54 0.14 0.37 0.25 0.79 0.12 0.43 0.2 0.88 0.08 0.44 0.13 0.89 0.04 0.45 0.04 0.87 0 0.57-0.09 1.05t-0.27 0.84q-0.18 0.35-0.45 0.56-0.27 0.2-0.63 0.2-0.48 0-0.82-0.23-0.34-0.24-0.57-0.62-0.23-0.39-0.36-0.88t-0.2-1q-0.06-0.51-0.08-0.99-0.02-0.49-0.02-0.87 0-0.87 0.08-1.95t0.21-2.22q0.13-1.13 0.3-2.24 0.16-1.11 0.32-2.06 0.16-0.94 0.31-1.65 0.15-0.7 0.26-1.01 0.07-0.22 0.19-0.44 0.12-0.23 0.28-0.42 0.17-0.18 0.39-0.3 0.21-0.11 0.49-0.11 0.49 0 0.77 0.32 0.29 0.31 0.29 0.87zm-1.98 0.72q-0.04 0.23-0.12 0.69-0.07 0.46-0.16 1.09-0.08 0.62-0.18 1.38-0.09 0.77-0.19 1.57 0.48-0.82 0.9-1.57 0.41-0.76 0.71-1.44t0.48-1.28 0.18-1.15q0-0.35-0.16-0.6-0.15-0.26-0.5-0.26-0.26 0-0.43 0.18-0.17 0.17-0.28 0.42-0.1 0.25-0.16 0.51-0.06 0.27-0.09 0.46zm-0.29 8.31q0 0.17 0.21 0.31 0.2 0.15 0.47 0.17-0.12-0.34-0.25-0.51-0.12-0.18-0.25-0.18-0.07 0-0.12 0.05-0.06 0.06-0.06 0.16zm9.1-2.82q0-0.53 0.25-0.91 0.25-0.39 0.64-0.75-0.12-0.08-0.26-0.12t-0.27-0.04q-0.29 0-0.62 0.15-0.33 0.14-0.61 0.48-0.28 0.35-0.46 0.92-0.19 0.58-0.19 1.44 0 0.71 0.18 1.22 0.17 0.51 0.47 0.84 0.29 0.33 0.69 0.48 0.4 0.16 0.84 0.16 0.54 0 0.96-0.28t0.78-0.76q0.35-0.49 0.65-1.15 0.3-0.65 0.6-1.41l0.34 0.09q-0.18 0.43-0.37 0.89-0.19 0.45-0.41 0.9-0.23 0.44-0.49 0.84-0.27 0.39-0.62 0.69t-0.78 0.48q-0.43 0.17-0.96 0.17-0.55 0-1.04-0.18-0.48-0.18-0.85-0.54-0.37-0.37-0.59-0.92t-0.22-1.3q0-0.76 0.25-1.41t0.64-1.12q0.38-0.48 0.85-0.75 0.46-0.27 0.89-0.27 0.49 0 0.87 0.25 0.08-0.05 0.14-0.11 0.07-0.05 0.14-0.12l0.19 0.27q-0.05 0.05-0.1 0.09-0.06 0.05-0.11 0.1 0.16 0.19 0.26 0.46 0.1 0.26 0.1 0.59 0 0.36-0.08 0.63-0.09 0.28-0.23 0.47-0.15 0.2-0.33 0.29-0.19 0.1-0.39 0.1-0.1 0-0.24-0.05-0.13-0.05-0.24-0.15-0.12-0.1-0.2-0.26-0.07-0.16-0.07-0.4zm1.42-0.63q0-0.26-0.08-0.46-0.07-0.2-0.19-0.35-0.33 0.28-0.56 0.63-0.23 0.34-0.23 0.81 0 0.25 0.12 0.38 0.12 0.14 0.29 0.14 0.19 0 0.32-0.12 0.13-0.13 0.2-0.31t0.1-0.38q0.03-0.19 0.03-0.34zm4.42 4.41q0.49 0 0.95-0.36 0.45-0.36 0.7-1.05h-0.07q-0.54 0-1-0.18-0.47-0.19-0.8-0.52-0.34-0.33-0.54-0.79-0.19-0.46-0.19-1.01 0-0.31 0.08-0.63 0.09-0.31 0.26-0.56 0.18-0.25 0.46-0.41t0.67-0.16q0.32 0 0.62 0.13 0.31 0.12 0.56 0.43 0.24 0.31 0.4 0.83 0.15 0.53 0.15 1.33 0 0.29-0.03 0.59-0.02 0.29-0.09 0.57 0.34-0.06 0.61-0.21 0.27-0.16 0.47-0.39 0.21-0.22 0.37-0.51 0.16-0.28 0.29-0.61l0.34 0.09q-0.18 0.5-0.43 0.85-0.24 0.35-0.51 0.59-0.28 0.24-0.58 0.37-0.31 0.12-0.63 0.17-0.13 0.43-0.33 0.81-0.2 0.37-0.49 0.66-0.29 0.28-0.67 0.44t-0.86 0.16q-0.39 0-0.79-0.16t-0.73-0.5q-0.32-0.34-0.51-0.85-0.2-0.52-0.2-1.23 0-0.47 0.11-0.91 0.11-0.45 0.31-0.85 0.19-0.4 0.47-0.75 0.27-0.35 0.58-0.6l0.14 0.22q-0.21 0.18-0.39 0.46-0.18 0.27-0.33 0.6t-0.24 0.69q-0.09 0.37-0.09 0.73 0 0.71 0.18 1.19 0.18 0.49 0.46 0.78t0.64 0.42q0.35 0.13 0.68 0.13zm0.5-5.33q-0.24 0-0.44 0.1t-0.35 0.28-0.24 0.42q-0.08 0.25-0.08 0.55 0 0.52 0.17 0.93 0.18 0.41 0.48 0.7t0.71 0.45q0.4 0.15 0.87 0.15h0.16q0.08-0.27 0.1-0.57 0.03-0.3 0.03-0.65-0.02-0.68-0.14-1.13t-0.3-0.73q-0.19-0.27-0.44-0.38-0.25-0.12-0.53-0.12zm6.8-4.66q0 0.66-0.24 1.42t-0.63 1.56q-0.38 0.81-0.87 1.65t-0.97 1.67q-0.1 0.81-0.18 1.62-0.09 0.81-0.14 1.54-0.06 0.72-0.09 1.33-0.04 0.61-0.04 1.02 0 0.84 0.08 1.51 0.09 0.68 0.26 1.15t0.42 0.72 0.59 0.25q0.2 0 0.33-0.12 0.13-0.13 0.22-0.32t0.13-0.44 0.07-0.49q0.02-0.25 0.02-0.47 0.01-0.22 0.01-0.37 0-0.98-0.13-1.87-0.14-0.9-0.33-1.54h-0.07q-0.21 0-0.4-0.06-0.19-0.05-0.34-0.16-0.15-0.1-0.24-0.24-0.08-0.14-0.08-0.31 0-0.24 0.14-0.41 0.15-0.16 0.37-0.16 0.27 0 0.51 0.26 0.25 0.26 0.45 0.69 0.35-0.14 0.65-0.5 0.29-0.35 0.53-0.78 0.24-0.44 0.42-0.89 0.18-0.44 0.31-0.78l0.34 0.09q-0.14 0.38-0.33 0.86t-0.45 0.93q-0.25 0.45-0.58 0.82-0.33 0.38-0.76 0.54 0.15 0.37 0.26 0.79 0.11 0.43 0.2 0.88 0.08 0.44 0.12 0.89 0.05 0.45 0.05 0.87 0 0.57-0.09 1.05-0.1 0.48-0.28 0.84-0.18 0.35-0.44 0.56-0.27 0.2-0.63 0.2-0.49 0-0.82-0.23-0.34-0.24-0.57-0.62-0.23-0.39-0.36-0.88t-0.2-1-0.08-0.99q-0.02-0.49-0.02-0.87 0-0.87 0.08-1.95t0.21-2.22q0.13-1.13 0.29-2.24 0.17-1.11 0.33-2.06 0.16-0.94 0.31-1.65 0.15-0.7 0.26-1.01 0.07-0.22 0.19-0.44 0.11-0.23 0.28-0.42 0.17-0.18 0.38-0.3 0.22-0.11 0.5-0.11 0.48 0 0.77 0.32 0.28 0.31 0.28 0.87zm-1.97 0.72q-0.05 0.23-0.12 0.69-0.08 0.46-0.16 1.09-0.08 0.62-0.18 1.38-0.1 0.77-0.19 1.57 0.48-0.82 0.89-1.57 0.42-0.76 0.72-1.44t0.48-1.28q0.17-0.6 0.17-1.15 0-0.35-0.15-0.6-0.15-0.26-0.51-0.26-0.25 0-0.42 0.18-0.17 0.17-0.28 0.42-0.1 0.25-0.16 0.51-0.06 0.27-0.09 0.46zm-0.29 8.31q0 0.17 0.2 0.31 0.21 0.15 0.48 0.17-0.12-0.34-0.25-0.51-0.13-0.18-0.25-0.18-0.07 0-0.13 0.05-0.05 0.06-0.05 0.16zm6.46-9.03q0 0.66-0.25 1.42-0.24 0.76-0.62 1.56-0.39 0.81-0.88 1.65t-0.97 1.67q-0.1 0.81-0.18 1.62t-0.14 1.54q-0.06 0.72-0.09 1.33-0.04 0.61-0.04 1.02 0 0.84 0.09 1.51 0.08 0.68 0.25 1.15t0.42 0.72 0.6 0.25q0.19 0 0.32-0.12 0.13-0.13 0.22-0.32t0.13-0.44q0.05-0.25 0.07-0.49 0.02-0.25 0.03-0.47 0-0.22 0-0.37 0-0.98-0.13-1.87-0.13-0.9-0.33-1.54h-0.07q-0.21 0-0.4-0.06-0.19-0.05-0.34-0.16-0.15-0.1-0.23-0.24-0.09-0.14-0.09-0.31 0-0.24 0.14-0.41 0.15-0.16 0.37-0.16 0.27 0 0.52 0.26 0.24 0.26 0.45 0.69 0.35-0.14 0.64-0.5 0.3-0.35 0.53-0.78 0.24-0.44 0.42-0.89 0.18-0.44 0.31-0.78l0.35 0.09q-0.15 0.38-0.34 0.86t-0.45 0.93q-0.25 0.45-0.58 0.82-0.33 0.38-0.75 0.54 0.14 0.37 0.25 0.79 0.12 0.43 0.2 0.88 0.08 0.44 0.13 0.89 0.04 0.45 0.04 0.87 0 0.57-0.09 1.05t-0.27 0.84q-0.18 0.35-0.45 0.56-0.27 0.2-0.63 0.2-0.48 0-0.82-0.23-0.34-0.24-0.57-0.62-0.23-0.39-0.36-0.88t-0.2-1q-0.06-0.51-0.08-0.99-0.02-0.49-0.02-0.87 0-0.87 0.08-1.95t0.21-2.22q0.13-1.13 0.3-2.24 0.16-1.11 0.32-2.06 0.16-0.94 0.31-1.65 0.15-0.7 0.26-1.01 0.07-0.22 0.19-0.44 0.12-0.23 0.28-0.42 0.17-0.18 0.39-0.3 0.21-0.11 0.49-0.11 0.49 0 0.77 0.32 0.29 0.31 0.29 0.87zm-1.98 0.72q-0.04 0.23-0.12 0.69-0.07 0.46-0.16 1.09-0.08 0.62-0.18 1.38-0.09 0.77-0.19 1.57 0.48-0.82 0.9-1.57 0.41-0.76 0.71-1.44t0.48-1.28 0.18-1.15q0-0.35-0.16-0.6-0.15-0.26-0.5-0.26-0.26 0-0.43 0.18-0.17 0.17-0.28 0.42-0.1 0.25-0.16 0.51-0.06 0.27-0.09 0.46zm-0.29 8.31q0 0.17 0.21 0.31 0.2 0.15 0.47 0.17-0.12-0.34-0.25-0.51-0.12-0.18-0.25-0.18-0.07 0-0.12 0.05-0.06 0.06-0.06 0.16zm4.95 1.63q-0.45 0-0.86-0.16-0.42-0.16-0.73-0.48t-0.5-0.8q-0.18-0.49-0.18-1.14 0-0.79 0.23-1.41t0.58-1.04q0.36-0.43 0.8-0.66 0.44-0.22 0.86-0.22 0.54 0 0.87 0.36 0.32 0.36 0.32 0.93 0 0.49-0.19 0.89-0.18 0.4-0.49 0.69-0.3 0.29-0.69 0.44-0.39 0.16-0.81 0.16-0.21 0-0.39-0.02t-0.32-0.05q0.06 0.55 0.21 0.94 0.16 0.4 0.4 0.65 0.24 0.26 0.53 0.38 0.3 0.12 0.61 0.12 0.4 0 0.73-0.19 0.34-0.19 0.62-0.5 0.28-0.32 0.51-0.72 0.23-0.41 0.42-0.82 0.18-0.42 0.33-0.82 0.14-0.4 0.26-0.71l0.34 0.09q-0.11 0.29-0.27 0.7-0.15 0.42-0.35 0.87-0.21 0.45-0.48 0.9-0.27 0.46-0.61 0.81-0.35 0.36-0.78 0.58-0.44 0.23-0.97 0.23zm0.22-5.57q-0.33 0-0.64 0.21t-0.56 0.57q-0.24 0.36-0.4 0.85-0.15 0.49-0.15 1.05 0.11 0.05 0.32 0.08t0.5 0.03q0.32 0 0.63-0.14 0.31-0.13 0.57-0.37 0.25-0.25 0.4-0.58t0.15-0.73q0-0.19-0.05-0.37-0.05-0.17-0.16-0.31-0.1-0.13-0.26-0.21-0.15-0.08-0.35-0.08zm4.81 5.57q-0.44 0-0.86-0.16-0.41-0.16-0.72-0.48t-0.5-0.8q-0.18-0.49-0.18-1.14 0-0.79 0.22-1.41 0.23-0.62 0.59-1.04 0.35-0.43 0.79-0.66 0.44-0.22 0.87-0.22 0.54 0 0.86 0.36t0.32 0.93q0 0.49-0.18 0.89-0.19 0.4-0.49 0.69t-0.69 0.44q-0.4 0.16-0.82 0.16-0.2 0-0.38-0.02t-0.32-0.05q0.05 0.55 0.21 0.94 0.16 0.4 0.4 0.65 0.23 0.26 0.53 0.38 0.29 0.12 0.61 0.12 0.39 0 0.73-0.19 0.33-0.19 0.61-0.5 0.28-0.32 0.52-0.72 0.23-0.41 0.41-0.82 0.19-0.42 0.33-0.82 0.15-0.4 0.26-0.71l0.35 0.09q-0.12 0.29-0.27 0.7-0.16 0.42-0.36 0.87t-0.47 0.9q-0.27 0.46-0.62 0.81-0.34 0.36-0.78 0.58-0.43 0.23-0.97 0.23zm0.22-5.57q-0.32 0-0.63 0.21-0.32 0.21-0.56 0.57-0.25 0.36-0.4 0.85-0.16 0.49-0.16 1.05 0.12 0.05 0.32 0.08 0.21 0.03 0.51 0.03 0.32 0 0.63-0.14 0.31-0.13 0.56-0.37 0.25-0.25 0.41-0.58 0.15-0.33 0.15-0.73 0-0.19-0.05-0.37-0.06-0.17-0.16-0.31-0.11-0.13-0.26-0.21t-0.36-0.08zm3.39 7.22-0.26-0.19q0.23-0.31 0.41-0.65 0.18-0.35 0.2-0.62-0.05 0.02-0.09 0.02t-0.09 0q-0.3 0-0.45-0.2-0.14-0.2-0.14-0.41 0-0.27 0.18-0.45t0.45-0.18q0.32 0 0.5 0.23t0.18 0.58q0 0.23-0.07 0.49-0.07 0.25-0.19 0.5t-0.29 0.47q-0.16 0.22-0.34 0.41zm6.51-5.74-0.34-0.09q0.13-0.34 0.28-0.65 0.16-0.31 0.33-0.55 0.18-0.24 0.38-0.38 0.21-0.15 0.47-0.15 0.12 0 0.28 0.05 0.16 0.06 0.3 0.21 0.15 0.16 0.24 0.46 0.1 0.3 0.1 0.79 0 0.26-0.03 0.56-0.02 0.31-0.05 0.61 0.27-0.58 0.54-0.98t0.53-0.64 0.51-0.35q0.26-0.11 0.51-0.11 0.12 0 0.27 0.05t0.29 0.19q0.14 0.13 0.23 0.36 0.09 0.22 0.09 0.58 0 0.29-0.04 0.58-0.05 0.29-0.1 0.57-0.05 0.27-0.1 0.51-0.04 0.24-0.04 0.43 0 0.44 0.16 0.67t0.48 0.23q0.26 0 0.5-0.19 0.24-0.2 0.45-0.51 0.2-0.31 0.37-0.68t0.3-0.7q0.13-0.34 0.22-0.6t0.12-0.36l0.34 0.09q-0.12 0.31-0.26 0.68-0.13 0.37-0.3 0.75t-0.36 0.74q-0.19 0.35-0.43 0.62-0.24 0.28-0.51 0.44-0.28 0.17-0.62 0.17-0.28 0-0.48-0.11-0.21-0.11-0.35-0.29-0.14-0.19-0.21-0.44-0.07-0.26-0.07-0.55 0-0.32 0.06-0.67 0.05-0.34 0.12-0.65 0.06-0.32 0.12-0.59t0.06-0.44q0-0.28-0.11-0.41-0.1-0.14-0.29-0.14-0.25 0-0.49 0.19-0.24 0.18-0.47 0.49-0.22 0.31-0.43 0.7-0.2 0.4-0.37 0.82-0.17 0.41-0.32 0.83-0.14 0.41-0.25 0.74-0.1 0.34-0.18 0.57-0.07 0.23-0.1 0.29l-0.51-0.08q0.11-0.52 0.2-1.1 0.08-0.57 0.15-1.13t0.11-1.07 0.04-0.9q0-0.54-0.07-0.73t-0.26-0.19q-0.16 0-0.3 0.12t-0.26 0.32q-0.12 0.19-0.23 0.46-0.11 0.26-0.22 0.56zm9.45 3.42q0.49 0 0.94-0.36 0.46-0.36 0.71-1.05h-0.07q-0.54 0-1.01-0.18-0.46-0.19-0.8-0.52-0.33-0.33-0.53-0.79-0.19-0.46-0.19-1.01 0-0.31 0.08-0.63 0.09-0.31 0.26-0.56 0.18-0.25 0.46-0.41t0.67-0.16q0.31 0 0.62 0.13 0.31 0.12 0.55 0.43 0.25 0.31 0.4 0.83 0.16 0.53 0.16 1.33 0 0.29-0.03 0.59-0.02 0.29-0.1 0.57 0.35-0.06 0.62-0.21 0.26-0.16 0.47-0.39 0.21-0.22 0.37-0.51 0.15-0.28 0.29-0.61l0.34 0.09q-0.19 0.5-0.43 0.85t-0.52 0.59q-0.27 0.24-0.58 0.37-0.3 0.12-0.63 0.17-0.12 0.43-0.32 0.81-0.2 0.37-0.49 0.66-0.29 0.28-0.68 0.44-0.38 0.16-0.85 0.16-0.4 0-0.8-0.16t-0.72-0.5-0.52-0.85q-0.19-0.52-0.19-1.23 0-0.47 0.11-0.91 0.11-0.45 0.3-0.85 0.2-0.4 0.47-0.75 0.28-0.35 0.59-0.6l0.13 0.22q-0.2 0.18-0.38 0.46-0.19 0.27-0.34 0.6t-0.23 0.69q-0.09 0.37-0.09 0.73 0 0.71 0.18 1.19 0.18 0.49 0.46 0.78t0.63 0.42 0.69 0.13zm0.5-5.33q-0.24 0-0.44 0.1t-0.35 0.28-0.24 0.42q-0.09 0.25-0.09 0.55 0 0.52 0.18 0.93 0.17 0.41 0.48 0.7 0.3 0.29 0.71 0.45 0.4 0.15 0.87 0.15h0.16q0.07-0.27 0.1-0.57t0.03-0.65q-0.02-0.68-0.14-1.13t-0.3-0.73q-0.19-0.27-0.44-0.38-0.25-0.12-0.53-0.12zm1.37-0.96 0.14-0.32q0.13 0.08 0.32 0.18 0.18 0.11 0.43 0.21 0.24 0.09 0.55 0.18 0.3 0.08 0.66 0.12 0.12-0.8 0.32-1.43 0.19-0.64 0.42-1.09 0.24-0.46 0.49-0.7t0.48-0.24q0.28 0 0.39 0.21 0.12 0.21 0.12 0.56 0 0.26-0.06 0.57-0.05 0.3-0.14 0.65t-0.21 0.72q-0.12 0.38-0.25 0.75 0.88-0.08 1.62-0.29 0.74-0.22 1.29-0.44l0.16 0.33q-0.72 0.27-1.49 0.49-0.78 0.21-1.73 0.27-0.22 0.57-0.46 1.08-0.23 0.52-0.42 0.89 0.01 0.5 0.06 1.07 0.04 0.58 0.19 1.08 0.14 0.5 0.41 0.83 0.27 0.34 0.71 0.34 0.37 0 0.68-0.32 0.3-0.31 0.56-0.79t0.48-1.05 0.41-1.08l0.35 0.09q-0.13 0.32-0.27 0.71-0.14 0.4-0.31 0.81-0.18 0.4-0.39 0.79-0.21 0.38-0.47 0.68-0.25 0.31-0.56 0.49t-0.67 0.18q-0.38 0-0.72-0.18t-0.59-0.63-0.4-1.23q-0.14-0.78-0.14-1.98 0-0.97 0.11-1.8-0.76-0.1-1.27-0.31-0.52-0.2-0.8-0.4zm3.87-2.62q-0.08 0-0.24 0.16-0.16 0.15-0.33 0.51-0.18 0.36-0.34 0.93-0.17 0.58-0.26 1.42h0.17 0.43q0.15-0.44 0.27-0.85 0.12-0.42 0.21-0.77 0.09-0.36 0.13-0.64 0.05-0.29 0.05-0.47 0-0.29-0.09-0.29zm-1.24 4.6v0.02q0.15-0.31 0.28-0.62t0.25-0.64h-0.32-0.18q-0.01 0.28-0.02 0.6-0.01 0.31-0.01 0.64zm9.39 4.98q-0.44 0-0.86-0.16-0.41-0.16-0.72-0.48t-0.5-0.8q-0.18-0.49-0.18-1.14 0-0.79 0.22-1.41 0.23-0.62 0.59-1.04 0.35-0.43 0.79-0.66 0.44-0.22 0.87-0.22 0.54 0 0.86 0.36t0.32 0.93q0 0.49-0.18 0.89-0.19 0.4-0.49 0.69t-0.69 0.44q-0.4 0.16-0.82 0.16-0.2 0-0.38-0.02t-0.32-0.05q0.05 0.55 0.21 0.94 0.16 0.4 0.4 0.65 0.23 0.26 0.53 0.38 0.29 0.12 0.61 0.12 0.39 0 0.73-0.19 0.33-0.19 0.61-0.5 0.28-0.32 0.52-0.72 0.23-0.41 0.41-0.82 0.19-0.42 0.33-0.82 0.15-0.4 0.26-0.71l0.35 0.09q-0.12 0.29-0.27 0.7-0.16 0.42-0.36 0.87t-0.47 0.9q-0.27 0.46-0.62 0.81-0.34 0.36-0.78 0.58-0.43 0.23-0.97 0.23zm0.22-5.57q-0.32 0-0.63 0.21-0.32 0.21-0.56 0.57-0.25 0.36-0.4 0.85-0.16 0.49-0.16 1.05 0.12 0.05 0.32 0.08 0.21 0.03 0.51 0.03 0.32 0 0.63-0.14 0.31-0.13 0.56-0.37 0.25-0.25 0.41-0.58 0.15-0.33 0.15-0.73 0-0.19-0.05-0.37-0.06-0.17-0.16-0.31-0.11-0.13-0.26-0.21t-0.36-0.08zm8.75 1.39 0.34 0.09q-0.27 0.65-0.51 1.12-0.24 0.46-0.48 0.77-0.24 0.3-0.49 0.44-0.25 0.15-0.54 0.15-0.4 0-0.67-0.25-0.28-0.25-0.33-0.63-0.25 0.57-0.52 1.02-0.27 0.46-0.55 0.77-0.27 0.32-0.52 0.49-0.26 0.17-0.45 0.17-0.16 0-0.39-0.13-0.24-0.13-0.45-0.44t-0.36-0.81q-0.15-0.51-0.15-1.25 0-0.48 0.07-0.89t0.14-0.71q0.1-0.35 0.22-0.63l0.35 0.04q-0.05 0.37-0.06 0.73t-0.01 0.68q0 0.73 0.07 1.3t0.17 0.96q0.1 0.4 0.22 0.6 0.13 0.21 0.23 0.21 0.12 0 0.34-0.2t0.49-0.55q0.26-0.35 0.53-0.82 0.28-0.48 0.5-1.02-0.03-0.17-0.06-0.41t-0.03-0.42q0-0.58 0.1-0.93t0.24-0.54q0.13-0.18 0.27-0.24t0.21-0.06q0.24 0 0.24 0.36 0 0.19-0.05 0.45-0.05 0.27-0.12 0.56t-0.17 0.58-0.2 0.53q0 0.31 0.06 0.52 0.07 0.2 0.18 0.33t0.25 0.18 0.29 0.05q0.38 0 0.76-0.53 0.39-0.53 0.84-1.64zm1.92 4.18q-0.45 0-0.86-0.16t-0.72-0.48q-0.32-0.32-0.5-0.8-0.18-0.49-0.18-1.14 0-0.79 0.22-1.41 0.23-0.62 0.59-1.04 0.35-0.43 0.79-0.66 0.44-0.22 0.87-0.22 0.54 0 0.86 0.36t0.32 0.93q0 0.49-0.18 0.89-0.19 0.4-0.49 0.69t-0.69 0.44q-0.4 0.16-0.82 0.16-0.2 0-0.38-0.02t-0.32-0.05q0.05 0.55 0.21 0.94 0.16 0.4 0.4 0.65 0.23 0.26 0.53 0.38 0.29 0.12 0.61 0.12 0.39 0 0.73-0.19 0.33-0.19 0.61-0.5 0.28-0.32 0.52-0.72 0.23-0.41 0.41-0.82 0.19-0.42 0.33-0.82 0.15-0.4 0.26-0.71l0.35 0.09q-0.12 0.29-0.27 0.7-0.16 0.42-0.36 0.87t-0.47 0.9q-0.28 0.46-0.62 0.81-0.34 0.36-0.78 0.58-0.43 0.23-0.97 0.23zm0.22-5.57q-0.32 0-0.63 0.21-0.32 0.21-0.56 0.57-0.25 0.36-0.4 0.85-0.16 0.49-0.16 1.05 0.12 0.05 0.32 0.08 0.21 0.03 0.51 0.03 0.32 0 0.63-0.14 0.31-0.13 0.56-0.37 0.25-0.25 0.41-0.58 0.15-0.33 0.15-0.73 0-0.19-0.05-0.37-0.06-0.17-0.16-0.31-0.11-0.13-0.26-0.21-0.16-0.08-0.36-0.08zm3.24 1.48-0.35-0.09q0.14-0.34 0.29-0.65t0.33-0.55 0.38-0.38q0.21-0.15 0.46-0.15 0.13 0 0.28 0.05 0.16 0.06 0.31 0.21 0.14 0.16 0.24 0.46t0.1 0.79q0 0.26-0.03 0.56-0.03 0.31-0.05 0.61 0.27-0.58 0.54-0.98t0.53-0.64q0.25-0.24 0.51-0.35 0.25-0.11 0.51-0.11 0.11 0 0.27 0.05 0.15 0.05 0.29 0.19 0.13 0.13 0.23 0.36 0.09 0.22 0.09 0.58 0 0.29-0.05 0.58-0.04 0.29-0.09 0.57-0.06 0.27-0.1 0.51t-0.04 0.43q0 0.44 0.15 0.67 0.16 0.23 0.49 0.23 0.26 0 0.5-0.19 0.24-0.2 0.44-0.51 0.21-0.31 0.38-0.68t0.3-0.7q0.13-0.34 0.22-0.6 0.08-0.26 0.12-0.36l0.34 0.09q-0.12 0.31-0.26 0.68-0.13 0.37-0.3 0.75t-0.36 0.74q-0.2 0.35-0.43 0.62-0.24 0.28-0.52 0.44-0.27 0.17-0.61 0.17-0.28 0-0.49-0.11-0.2-0.11-0.34-0.29-0.14-0.19-0.21-0.44-0.07-0.26-0.07-0.55 0-0.32 0.05-0.67 0.06-0.34 0.13-0.65 0.06-0.32 0.12-0.59t0.06-0.44q0-0.28-0.11-0.41-0.1-0.14-0.29-0.14-0.25 0-0.5 0.19-0.24 0.18-0.46 0.49-0.23 0.31-0.43 0.7-0.2 0.4-0.37 0.82-0.17 0.41-0.32 0.83-0.14 0.41-0.25 0.74-0.1 0.34-0.18 0.57-0.07 0.23-0.1 0.29l-0.51-0.08q0.11-0.52 0.19-1.1 0.09-0.57 0.16-1.13 0.06-0.56 0.1-1.07t0.04-0.9q0-0.54-0.07-0.73t-0.25-0.19q-0.16 0-0.3 0.12t-0.26 0.32q-0.12 0.19-0.23 0.46-0.12 0.26-0.22 0.56zm5.25-2.87 0.14-0.32q0.14 0.08 0.32 0.18 0.18 0.11 0.43 0.21 0.25 0.09 0.55 0.18 0.3 0.08 0.66 0.12 0.13-0.8 0.32-1.43 0.19-0.64 0.43-1.09 0.23-0.46 0.48-0.7t0.49-0.24q0.27 0 0.38 0.21 0.12 0.21 0.12 0.56 0 0.26-0.05 0.57-0.06 0.3-0.14 0.65-0.09 0.35-0.22 0.72-0.12 0.38-0.25 0.75 0.88-0.08 1.62-0.29 0.74-0.22 1.29-0.44l0.17 0.33q-0.73 0.27-1.5 0.49-0.77 0.21-1.73 0.27-0.22 0.57-0.45 1.08-0.24 0.52-0.43 0.89 0.01 0.5 0.06 1.07 0.05 0.58 0.19 1.08 0.15 0.5 0.41 0.83 0.27 0.34 0.71 0.34 0.37 0 0.68-0.32 0.31-0.31 0.57-0.79t0.47-1.05q0.22-0.57 0.42-1.08l0.34 0.09q-0.12 0.32-0.26 0.71-0.14 0.4-0.32 0.81-0.18 0.4-0.39 0.79-0.21 0.38-0.46 0.68-0.26 0.31-0.56 0.49-0.31 0.18-0.67 0.18-0.39 0-0.73-0.18t-0.59-0.63-0.39-1.23q-0.15-0.78-0.15-1.98 0-0.97 0.11-1.8-0.76-0.1-1.27-0.31-0.52-0.2-0.8-0.4zm3.87-2.62q-0.08 0-0.24 0.16-0.16 0.15-0.33 0.51-0.18 0.36-0.34 0.93-0.16 0.58-0.26 1.42h0.17 0.43q0.16-0.44 0.28-0.85 0.11-0.42 0.2-0.77 0.09-0.36 0.13-0.64 0.05-0.29 0.05-0.47 0-0.29-0.09-0.29zm-1.24 4.6v0.02q0.15-0.31 0.28-0.62t0.26-0.64h-0.33-0.17q-0.02 0.28-0.03 0.6-0.01 0.31-0.01 0.64zm5.48-1.98 0.14-0.32q0.13 0.08 0.31 0.18 0.19 0.11 0.43 0.21 0.25 0.09 0.55 0.18 0.31 0.08 0.67 0.12 0.12-0.8 0.31-1.43 0.2-0.64 0.43-1.09 0.23-0.46 0.48-0.7t0.49-0.24q0.27 0 0.39 0.21 0.11 0.21 0.11 0.56 0 0.26-0.05 0.57-0.05 0.3-0.14 0.65t-0.21 0.72q-0.13 0.38-0.26 0.75 0.88-0.08 1.62-0.29 0.75-0.22 1.29-0.44l0.17 0.33q-0.72 0.27-1.5 0.49-0.77 0.21-1.73 0.27-0.22 0.57-0.45 1.08-0.23 0.52-0.43 0.89 0.01 0.5 0.06 1.07 0.05 0.58 0.19 1.08 0.15 0.5 0.42 0.83 0.27 0.34 0.71 0.34 0.36 0 0.67-0.32 0.31-0.31 0.57-0.79t0.48-1.05 0.41-1.08l0.34 0.09q-0.12 0.32-0.26 0.71-0.14 0.4-0.32 0.81-0.17 0.4-0.38 0.79-0.21 0.38-0.47 0.68-0.25 0.31-0.56 0.49t-0.67 0.18q-0.39 0-0.72-0.18-0.34-0.18-0.59-0.63t-0.4-1.23q-0.14-0.78-0.14-1.98 0-0.97 0.1-1.8-0.75-0.1-1.27-0.31-0.51-0.2-0.79-0.4zm3.86-2.62q-0.08 0-0.23 0.16-0.16 0.15-0.34 0.51-0.17 0.36-0.34 0.93-0.16 0.58-0.26 1.42h0.17 0.43q0.16-0.44 0.28-0.85 0.12-0.42 0.21-0.77 0.08-0.36 0.13-0.64 0.04-0.29 0.04-0.47 0-0.29-0.09-0.29zm-1.24 4.6v0.02q0.15-0.31 0.29-0.62 0.13-0.31 0.25-0.64h-0.32-0.18q-0.02 0.28-0.03 0.6-0.01 0.31-0.01 0.64zm5.44 4.98q-0.45 0-0.87-0.16-0.41-0.16-0.72-0.48t-0.5-0.8q-0.18-0.49-0.18-1.14 0-0.79 0.23-1.41t0.58-1.04q0.36-0.43 0.8-0.66 0.44-0.22 0.86-0.22 0.54 0 0.86 0.36t0.32 0.93q0 0.49-0.18 0.89t-0.49 0.69q-0.3 0.29-0.69 0.44-0.39 0.16-0.81 0.16-0.21 0-0.39-0.02t-0.32-0.05q0.05 0.55 0.21 0.94 0.16 0.4 0.4 0.65 0.24 0.26 0.53 0.38t0.61 0.12q0.4 0 0.73-0.19t0.62-0.5q0.28-0.32 0.51-0.72 0.23-0.41 0.42-0.82 0.18-0.42 0.33-0.82 0.14-0.4 0.26-0.71l0.34 0.09q-0.12 0.29-0.27 0.7-0.15 0.42-0.35 0.87-0.21 0.45-0.48 0.9-0.27 0.46-0.61 0.81-0.35 0.36-0.78 0.58-0.44 0.23-0.97 0.23zm0.22-5.57q-0.33 0-0.64 0.21t-0.56 0.57-0.4 0.85-0.15 1.05q0.11 0.05 0.32 0.08 0.2 0.03 0.5 0.03 0.32 0 0.63-0.14 0.31-0.13 0.56-0.37 0.25-0.25 0.41-0.58 0.15-0.33 0.15-0.73 0-0.19-0.05-0.37-0.05-0.17-0.16-0.31-0.1-0.13-0.26-0.21-0.15-0.08-0.35-0.08zm9.62 1.39 0.34 0.09q-0.34 0.89-0.62 1.49-0.27 0.61-0.56 1.05t-0.63 0.76-0.82 0.62q0.63 1.44 1 2.56 0.38 1.11 0.38 1.94 0 0.67-0.35 1.05-0.35 0.37-0.97 0.37-0.42 0-0.71-0.22t-0.47-0.62-0.26-0.95q-0.07-0.55-0.07-1.21 0-0.77 0.11-1.71 0.11-0.95 0.28-1.97-0.32 0.43-0.73 0.66-0.4 0.23-0.85 0.23-0.41 0-0.8-0.14-0.38-0.14-0.68-0.43-0.3-0.3-0.47-0.75-0.18-0.44-0.18-1.06 0-0.95 0.31-1.65t0.77-1.15q0.47-0.45 1.01-0.67 0.55-0.22 1.03-0.22 0.33 0 0.58 0.07 0.25 0.08 0.44 0.2 0.2 0.12 0.33 0.26 0.14 0.15 0.23 0.29 0.03-0.1 0.06-0.18 0.02-0.09 0.05-0.18l0.34 0.05q-0.04 0.24-0.1 0.61t-0.13 0.83-0.15 0.97-0.15 1.01q-0.07 0.51-0.14 0.97-0.06 0.47-0.1 0.85 0.45-0.23 0.79-0.51 0.33-0.28 0.64-0.71 0.3-0.43 0.6-1.05 0.29-0.63 0.65-1.55zm-3.2 2.53q0.16-0.82 0.34-1.63 0.18-0.8 0.38-1.53-0.06-0.13-0.17-0.3-0.11-0.18-0.27-0.32-0.17-0.15-0.39-0.26-0.22-0.1-0.52-0.1-0.41 0-0.74 0.17-0.33 0.16-0.59 0.43-0.27 0.27-0.47 0.61-0.21 0.35-0.34 0.73-0.14 0.38-0.2 0.76-0.07 0.38-0.07 0.71 0 0.42 0.1 0.78 0.1 0.37 0.28 0.63 0.18 0.27 0.44 0.43t0.58 0.16q0.46 0 0.88-0.33 0.42-0.34 0.76-0.94zm1.94 5.94q0-0.7-0.39-1.86t-1.05-2.69q-0.02 0.05-0.02 0.11 0 0.05 0 0.09-0.08 0.58-0.13 1.12t-0.09 0.98q-0.03 0.44-0.05 0.78-0.02 0.33-0.02 0.51 0 0.97 0.25 1.51t0.71 0.54q0.38 0 0.59-0.29 0.2-0.29 0.2-0.8zm4.63-6.2q-0.28 0.49-0.53 0.82-0.26 0.32-0.51 0.52-0.25 0.19-0.5 0.27-0.26 0.08-0.53 0.08-0.22 0-0.5-0.07t-0.53-0.3q-0.25-0.22-0.42-0.64-0.18-0.43-0.18-1.14t0.17-1.34 0.37-1.1q0.24-0.55 0.55-1.01l0.32 0.1q-0.01 0.01-0.06 0.16-0.04 0.15-0.12 0.41-0.07 0.25-0.16 0.59-0.08 0.33-0.16 0.7-0.07 0.38-0.12 0.76-0.05 0.39-0.05 0.75 0 0.83 0.3 1.31 0.29 0.47 0.77 0.47 0.52 0 1.02-0.61 0.49-0.61 0.94-1.71 0.08-0.51 0.21-0.95 0.14-0.43 0.27-0.78 0.14-0.34 0.25-0.57 0.12-0.23 0.17-0.31l0.31 0.07q-0.14 0.66-0.24 1.19-0.1 0.52-0.16 0.94-0.07 0.42-0.1 0.75t-0.03 0.6q0 0.52 0.17 0.84t0.52 0.32q0.23 0 0.45-0.18t0.46-0.58 0.5-1.05q0.27-0.64 0.6-1.58l0.34 0.09q-0.15 0.37-0.3 0.79t-0.32 0.84q-0.17 0.43-0.36 0.81-0.19 0.39-0.42 0.69t-0.5 0.47q-0.28 0.18-0.61 0.18-0.32 0-0.55-0.12-0.24-0.13-0.4-0.34-0.17-0.21-0.25-0.5-0.08-0.3-0.08-0.64zm4.46 1.12q-0.55 0-0.92-0.45-0.36-0.45-0.36-1.36 0-0.59 0.24-1.52t0.84-2.1l0.32 0.09q-0.05 0.23-0.17 0.62-0.12 0.4-0.23 0.89-0.12 0.49-0.21 1.02t-0.09 1.02q0 0.41 0.06 0.67t0.16 0.41q0.11 0.14 0.24 0.2 0.14 0.05 0.3 0.05 0.25 0 0.48-0.16t0.44-0.42q0.2-0.26 0.38-0.58t0.33-0.64q0.14-0.33 0.26-0.62 0.11-0.3 0.18-0.51l0.34 0.09q-0.09 0.26-0.22 0.61t-0.29 0.72-0.37 0.72q-0.2 0.35-0.45 0.63-0.26 0.27-0.57 0.44-0.31 0.18-0.69 0.18zm1.42-8.2q0 0.31-0.23 0.48-0.24 0.17-0.6 0.17-0.18 0-0.35-0.06-0.16-0.06-0.28-0.15t-0.18-0.22q-0.07-0.13-0.07-0.27 0-0.3 0.23-0.48 0.24-0.19 0.54-0.19 0.22 0 0.4 0.07t0.3 0.17q0.12 0.11 0.18 0.23 0.06 0.13 0.06 0.25zm-0.47 0q0-0.08-0.07-0.16-0.08-0.07-0.23-0.07-0.27 0-0.27 0.2 0 0.1 0.08 0.16 0.09 0.07 0.23 0.07 0.13 0 0.19-0.06 0.07-0.06 0.07-0.14zm4.34-1.96q0 0.55-0.13 1.17-0.12 0.63-0.33 1.27t-0.47 1.29q-0.27 0.65-0.54 1.25-0.28 0.6-0.54 1.13-0.26 0.54-0.47 0.96 0.04 0.72 0.13 1.3 0.08 0.58 0.22 0.99 0.13 0.41 0.31 0.63 0.19 0.22 0.42 0.22 0.27 0 0.53-0.25 0.26-0.24 0.52-0.69t0.54-1.08q0.27-0.64 0.55-1.42l0.34 0.09q-0.21 0.61-0.47 1.28-0.27 0.67-0.59 1.23-0.33 0.57-0.71 0.94-0.38 0.36-0.82 0.36t-0.74-0.27-0.49-0.71q-0.19-0.45-0.3-1.02-0.1-0.56-0.16-1.15-0.05-0.59-0.06-1.15t-0.01-0.99q0-0.8 0.07-1.59 0.06-0.79 0.2-1.51t0.33-1.34 0.45-1.07 0.57-0.71q0.32-0.25 0.69-0.25 0.26 0 0.44 0.08 0.19 0.09 0.3 0.24 0.12 0.15 0.17 0.35t0.05 0.42zm-2.53 5.06q0 0.33 0 0.65t0.02 0.62q0.22-0.44 0.46-0.96 0.25-0.52 0.49-1.08t0.46-1.13 0.39-1.12 0.27-1.05q0.1-0.49 0.1-0.9 0-0.13-0.02-0.28t-0.08-0.28q-0.06-0.12-0.16-0.21-0.11-0.08-0.28-0.08-0.33 0-0.63 0.43-0.31 0.44-0.53 1.21-0.23 0.78-0.36 1.84-0.13 1.07-0.13 2.34zm9.7 1.71 0.34 0.09q-0.36 0.98-0.66 1.63-0.29 0.66-0.57 1.07-0.28 0.4-0.55 0.58-0.27 0.17-0.6 0.17-0.39 0-0.67-0.27-0.28-0.28-0.35-0.86-0.28 0.61-0.73 0.99t-1.13 0.38q-0.36 0-0.69-0.13t-0.58-0.41q-0.26-0.28-0.41-0.7t-0.15-0.99q0-0.58 0.14-1.09 0.15-0.51 0.38-0.94 0.24-0.42 0.55-0.76 0.31-0.33 0.65-0.56 0.33-0.23 0.67-0.35 0.33-0.12 0.61-0.12 0.25 0 0.48 0.06 0.22 0.06 0.4 0.2 0.18 0.13 0.29 0.36t0.11 0.57q0 0.41-0.15 0.7-0.15 0.3-0.37 0.51-0.21 0.2-0.44 0.32-0.22 0.12-0.35 0.18l-0.11-0.35q0.03 0 0.2-0.07t0.36-0.23 0.35-0.42q0.15-0.25 0.15-0.62 0-0.42-0.23-0.65-0.24-0.22-0.61-0.22-0.28 0-0.66 0.2t-0.72 0.63q-0.35 0.43-0.59 1.09t-0.24 1.58q0 0.9 0.32 1.38 0.32 0.47 0.86 0.47 0.27 0 0.52-0.15 0.26-0.16 0.47-0.41 0.21-0.26 0.37-0.59 0.17-0.34 0.29-0.7 0-0.28 0.07-0.67 0.07-0.38 0.21-0.77l0.53 0.17q-0.04 0.12-0.09 0.3-0.04 0.18-0.08 0.4t-0.06 0.46q-0.03 0.23-0.03 0.45 0 0.68 0.14 0.94 0.13 0.26 0.47 0.26 0.19 0 0.38-0.14t0.41-0.49 0.48-0.95q0.26-0.61 0.62-1.53zm4.97 3.39q-0.55 0-0.92-0.45-0.36-0.45-0.36-1.36 0-0.59 0.24-1.52t0.84-2.1l0.32 0.09q-0.05 0.23-0.17 0.62-0.12 0.4-0.24 0.89-0.11 0.49-0.2 1.02t-0.09 1.02q0 0.41 0.06 0.67t0.16 0.41q0.1 0.14 0.24 0.2 0.14 0.05 0.3 0.05 0.25 0 0.48-0.16t0.43-0.42q0.21-0.26 0.39-0.58t0.33-0.64q0.14-0.33 0.26-0.62 0.11-0.3 0.18-0.51l0.34 0.09q-0.09 0.26-0.22 0.61t-0.29 0.72-0.37 0.72q-0.2 0.35-0.45 0.63-0.26 0.27-0.57 0.44-0.31 0.18-0.69 0.18zm1.42-8.2q0 0.31-0.23 0.48-0.24 0.17-0.6 0.17-0.19 0-0.35-0.06t-0.28-0.15-0.18-0.22q-0.07-0.13-0.07-0.27 0-0.3 0.23-0.48 0.24-0.19 0.54-0.19 0.22 0 0.4 0.07 0.17 0.07 0.3 0.17 0.12 0.11 0.18 0.23 0.06 0.13 0.06 0.25zm-0.47 0q0-0.08-0.08-0.16-0.07-0.07-0.22-0.07-0.27 0-0.27 0.2 0 0.1 0.08 0.16 0.08 0.07 0.23 0.07 0.13 0 0.19-0.06 0.07-0.06 0.07-0.14zm-0.7 2.03 0.15-0.32q0.13 0.08 0.31 0.18 0.19 0.11 0.43 0.21 0.25 0.09 0.55 0.18 0.3 0.08 0.67 0.12 0.12-0.8 0.31-1.43 0.19-0.64 0.43-1.09 0.23-0.46 0.48-0.7t0.49-0.24q0.27 0 0.39 0.21 0.11 0.21 0.11 0.56 0 0.26-0.05 0.57-0.06 0.3-0.14 0.65-0.09 0.35-0.21 0.72-0.13 0.38-0.26 0.75 0.88-0.08 1.62-0.29 0.75-0.22 1.29-0.44l0.17 0.33q-0.72 0.27-1.5 0.49-0.77 0.21-1.73 0.27-0.22 0.57-0.45 1.08-0.23 0.52-0.43 0.89 0.01 0.5 0.06 1.07 0.05 0.58 0.19 1.08 0.15 0.5 0.42 0.83 0.26 0.34 0.7 0.34 0.37 0 0.68-0.32 0.31-0.31 0.57-0.79t0.48-1.05 0.41-1.08l0.34 0.09q-0.12 0.32-0.26 0.71-0.14 0.4-0.32 0.81-0.17 0.4-0.38 0.79-0.22 0.38-0.47 0.68-0.26 0.31-0.56 0.49-0.31 0.18-0.67 0.18-0.39 0-0.73-0.18-0.33-0.18-0.58-0.63-0.26-0.45-0.4-1.23-0.15-0.78-0.15-1.98 0-0.97 0.11-1.8-0.76-0.1-1.27-0.31-0.51-0.2-0.8-0.4zm3.87-2.62q-0.08 0-0.24 0.16-0.15 0.15-0.33 0.51t-0.34 0.93q-0.16 0.58-0.26 1.42h0.17 0.43q0.16-0.44 0.28-0.85 0.12-0.42 0.2-0.77 0.09-0.36 0.14-0.64 0.04-0.29 0.04-0.47 0-0.29-0.09-0.29zm-1.24 4.6v0.02q0.15-0.31 0.28-0.62 0.14-0.31 0.26-0.64h-0.33-0.17q-0.02 0.28-0.03 0.6-0.01 0.31-0.01 0.64zm4.14 0.13q-0.09 0.26-0.19 0.51-0.09 0.24-0.2 0.49-0.11 0.24-0.26 0.48t-0.36 0.48l-0.07-0.07q0.23-0.55 0.41-1.13 0.17-0.58 0.35-1.3-0.05-0.12-0.08-0.21-0.04-0.09-0.06-0.16-0.03-0.08-0.05-0.16-0.02-0.09-0.02-0.19 0-0.14 0.04-0.31t0.12-0.32q0.07-0.15 0.17-0.25 0.1-0.11 0.2-0.11 0.13 0 0.2 0.06t0.12 0.15q0.04 0.08 0.06 0.18t0.02 0.19q0 0.13-0.03 0.3t-0.07 0.33q-0.04 0.17-0.07 0.29t-0.03 0.16q0.07 0.23 0.24 0.48t0.39 0.5q0.22 0.26 0.46 0.53 0.24 0.28 0.44 0.59 0.2 0.3 0.32 0.65 0.13 0.35 0.13 0.74 0 0.55-0.16 0.89-0.16 0.35-0.44 0.53 0.4-0.16 0.75-0.56 0.34-0.41 0.64-0.93 0.29-0.52 0.54-1.09 0.25-0.58 0.45-1.07l0.34 0.09q-0.3 0.76-0.63 1.49-0.34 0.73-0.76 1.3-0.42 0.58-0.95 0.93t-1.22 0.35q-0.18 0-0.37-0.03t-0.37-0.1q-0.18-0.06-0.34-0.18-0.16-0.11-0.27-0.27l0.29-0.19q0.08 0.12 0.24 0.22 0.17 0.11 0.44 0.11t0.46-0.11q0.2-0.11 0.34-0.3 0.13-0.19 0.2-0.44 0.07-0.26 0.07-0.55 0-0.6-0.18-1.03-0.17-0.43-0.4-0.76-0.23-0.34-0.47-0.62-0.25-0.29-0.38-0.58zm8.26 0.76-0.34-0.09q0.28-0.82 0.61-1.23 0.32-0.41 0.76-0.41 0.2 0 0.37 0.09 0.17 0.08 0.3 0.28t0.21 0.52q0.07 0.31 0.07 0.77 0.4-1.01 0.8-1.44 0.41-0.43 0.88-0.43 0.18 0 0.36 0.07t0.32 0.25q0.15 0.18 0.24 0.49 0.1 0.3 0.11 0.77 0.24-0.47 0.59-0.76 0.36-0.29 0.79-0.29 0.21 0 0.42 0.08 0.21 0.07 0.37 0.25 0.17 0.17 0.27 0.46 0.11 0.29 0.11 0.71 0 0.12-0.02 0.32t-0.04 0.43q-0.03 0.24-0.06 0.49-0.02 0.24-0.05 0.46-0.03 0.21-0.04 0.38-0.02 0.16-0.02 0.22 0 0.52 0.12 0.76 0.12 0.23 0.45 0.23 0.25 0 0.5-0.29 0.26-0.3 0.52-0.78t0.54-1.11q0.27-0.62 0.55-1.29l0.34 0.09q-0.25 0.61-0.53 1.28-0.27 0.68-0.59 1.25t-0.69 0.95q-0.37 0.37-0.82 0.37-0.51 0-0.79-0.31-0.27-0.31-0.27-1.03 0-0.31 0.04-0.67 0.05-0.35 0.11-0.71 0.05-0.36 0.1-0.69 0.04-0.34 0.04-0.62 0-0.16-0.03-0.32-0.02-0.16-0.09-0.29-0.06-0.12-0.17-0.2-0.11-0.07-0.29-0.07-0.22 0-0.42 0.21t-0.39 0.56q-0.18 0.35-0.34 0.8-0.16 0.46-0.28 0.94-0.12 0.47-0.22 0.95-0.1 0.47-0.15 0.85l-0.63-0.1t0.05-0.22q0.04-0.21 0.1-0.55t0.13-0.77q0.07-0.42 0.12-0.85 0.06-0.43 0.1-0.83t0.04-0.67q0-0.37-0.14-0.6-0.14-0.24-0.41-0.24-0.26 0-0.49 0.29t-0.44 0.76q-0.2 0.47-0.37 1.06-0.18 0.6-0.33 1.2t-0.26 1.15q-0.12 0.56-0.2 0.95l-0.59-0.14q0.12-0.61 0.22-1.23 0.08-0.54 0.15-1.18t0.07-1.24q0-0.39-0.01-0.65-0.02-0.26-0.07-0.42-0.06-0.16-0.15-0.22-0.09-0.07-0.23-0.07-0.22 0-0.45 0.32-0.23 0.31-0.46 1zm12.86 4.32v-0.31q0-1.13 0.11-2.1-0.27 0.49-0.53 0.81-0.25 0.31-0.51 0.5-0.25 0.18-0.5 0.25-0.26 0.07-0.52 0.07-0.21 0-0.48-0.06-0.27-0.07-0.5-0.27-0.24-0.2-0.4-0.58-0.17-0.37-0.17-1 0-0.65 0.16-1.23t0.36-1.03q0.23-0.53 0.53-0.98l0.33 0.12q-0.02 0.02-0.12 0.32-0.1 0.29-0.21 0.73-0.11 0.45-0.2 0.98t-0.09 1.02q0 0.74 0.27 1.18t0.76 0.44q0.26 0 0.52-0.17 0.25-0.18 0.5-0.49 0.24-0.31 0.49-0.74t0.48-0.94q0.17-0.87 0.4-1.54 0.24-0.68 0.49-1.15l0.33 0.08q-0.18 0.77-0.31 1.52t-0.23 1.46q-0.09 0.71-0.14 1.38-0.05 0.66-0.08 1.24 0.38-0.27 0.71-0.6 0.33-0.34 0.64-0.8 0.32-0.45 0.63-1.07 0.31-0.61 0.65-1.45l0.34 0.09q-0.34 0.89-0.66 1.54-0.32 0.66-0.67 1.15-0.35 0.5-0.74 0.89-0.4 0.38-0.9 0.74-0.03 0.96-0.18 1.7-0.14 0.74-0.36 1.29t-0.5 0.92q-0.27 0.37-0.54 0.59-0.27 0.23-0.53 0.33t-0.45 0.1q-0.32 0-0.58-0.14t-0.45-0.36q-0.18-0.22-0.28-0.5-0.09-0.28-0.09-0.57 0-0.5 0.24-0.94 0.24-0.45 0.64-0.84 0.41-0.4 0.93-0.75 0.52-0.34 1.09-0.65 0.16-0.11 0.32-0.18zm-1.8 4.57q0.28 0 0.58-0.23 0.29-0.22 0.54-0.71t0.43-1.26 0.23-1.85q-0.02 0.02-0.05 0.03-0.03 0.02-0.06 0.04-0.45 0.28-0.89 0.62t-0.78 0.73q-0.35 0.38-0.57 0.81t-0.22 0.88q0 0.16 0.06 0.33 0.05 0.17 0.16 0.3 0.1 0.14 0.25 0.22 0.14 0.09 0.32 0.09zm11.23-9.25q0-0.53 0.25-0.91 0.25-0.39 0.65-0.75-0.12-0.08-0.26-0.12t-0.28-0.04q-0.29 0-0.62 0.15-0.33 0.14-0.6 0.48-0.28 0.35-0.46 0.92-0.19 0.58-0.19 1.44 0 0.71 0.17 1.22t0.47 0.84 0.7 0.48q0.39 0.16 0.84 0.16 0.54 0 0.96-0.28t0.77-0.76q0.35-0.49 0.66-1.15 0.3-0.65 0.6-1.41l0.33 0.09q-0.17 0.43-0.36 0.89-0.19 0.45-0.41 0.9-0.23 0.44-0.5 0.84-0.26 0.39-0.61 0.69t-0.78 0.48q-0.43 0.17-0.97 0.17t-1.03-0.18-0.86-0.54q-0.37-0.37-0.59-0.92-0.21-0.55-0.21-1.3 0-0.76 0.25-1.41t0.63-1.12q0.39-0.48 0.86-0.75 0.46-0.27 0.88-0.27 0.5 0 0.88 0.25 0.07-0.05 0.14-0.11 0.06-0.05 0.13-0.12l0.2 0.27q-0.06 0.05-0.11 0.09-0.05 0.05-0.1 0.1 0.15 0.19 0.26 0.46 0.1 0.26 0.1 0.59 0 0.36-0.09 0.63-0.08 0.28-0.22 0.47-0.15 0.2-0.33 0.29-0.19 0.1-0.39 0.1-0.11 0-0.24-0.05t-0.24-0.15q-0.12-0.1-0.2-0.26t-0.08-0.4zm1.43-0.63q0-0.26-0.08-0.46-0.07-0.2-0.2-0.35-0.32 0.28-0.55 0.63-0.24 0.34-0.24 0.81 0 0.25 0.13 0.38 0.12 0.14 0.29 0.14 0.19 0 0.32-0.12 0.12-0.13 0.19-0.31 0.08-0.18 0.11-0.38 0.03-0.19 0.03-0.34zm4.42 4.41q0.49 0 0.94-0.36 0.46-0.36 0.71-1.05h-0.07q-0.55 0-1.01-0.18-0.46-0.19-0.8-0.52-0.33-0.33-0.53-0.79-0.19-0.46-0.19-1.01 0-0.31 0.08-0.63 0.09-0.31 0.26-0.56 0.18-0.25 0.46-0.41t0.67-0.16q0.31 0 0.62 0.13 0.31 0.12 0.55 0.43 0.25 0.31 0.4 0.83 0.16 0.53 0.16 1.33 0 0.29-0.03 0.59-0.03 0.29-0.1 0.57 0.35-0.06 0.62-0.21 0.26-0.16 0.47-0.39 0.21-0.22 0.36-0.51 0.16-0.28 0.29-0.61l0.35 0.09q-0.19 0.5-0.43 0.85t-0.52 0.59q-0.27 0.24-0.58 0.37-0.3 0.12-0.63 0.17-0.12 0.43-0.32 0.81-0.2 0.37-0.49 0.66-0.29 0.28-0.68 0.44-0.38 0.16-0.85 0.16-0.4 0-0.8-0.16t-0.72-0.5-0.52-0.85q-0.19-0.52-0.19-1.23 0-0.47 0.11-0.91 0.1-0.45 0.3-0.85t0.47-0.75q0.28-0.35 0.59-0.6l0.13 0.22q-0.2 0.18-0.38 0.46-0.19 0.27-0.34 0.6t-0.23 0.69q-0.09 0.37-0.09 0.73 0 0.71 0.18 1.19 0.18 0.49 0.46 0.78t0.63 0.42 0.69 0.13zm0.5-5.33q-0.24 0-0.44 0.1t-0.35 0.28-0.24 0.42q-0.09 0.25-0.09 0.55 0 0.52 0.18 0.93 0.17 0.41 0.48 0.7 0.3 0.29 0.7 0.45 0.41 0.15 0.87 0.15h0.17q0.07-0.27 0.1-0.57 0.02-0.3 0.02-0.65-0.01-0.68-0.13-1.13t-0.3-0.73q-0.19-0.27-0.44-0.38-0.25-0.12-0.53-0.12zm5.98-0.11q0.38 0 0.66 0.1t0.45 0.21q0.06-1.16 0.2-2.05t0.33-1.55q0.19-0.67 0.41-1.12t0.45-0.73 0.44-0.39q0.22-0.12 0.4-0.12 0.4 0 0.61 0.33 0.2 0.34 0.2 0.99 0 0.34-0.07 0.87-0.08 0.53-0.22 1.19-0.15 0.65-0.35 1.4-0.21 0.75-0.48 1.5-0.27 0.76-0.58 1.5-0.32 0.73-0.69 1.38 0.04 0.51 0.11 0.81 0.08 0.31 0.19 0.48t0.26 0.23q0.15 0.07 0.34 0.07 0.25 0 0.49-0.18 0.24-0.17 0.48-0.54 0.25-0.38 0.51-0.98 0.27-0.61 0.57-1.47l0.35 0.09q-0.26 0.68-0.51 1.31-0.26 0.64-0.55 1.14-0.3 0.49-0.65 0.79t-0.8 0.3q-0.55 0-0.86-0.33t-0.46-0.91q-0.51 0.75-1.09 1.19-0.58 0.45-1.23 0.45-0.36 0-0.69-0.14-0.33-0.13-0.59-0.42-0.25-0.29-0.41-0.73t-0.16-1.07q0-0.65 0.21-1.29 0.2-0.64 0.59-1.16 0.38-0.51 0.92-0.83t1.22-0.32zm-0.78 5.46q0.49 0 0.99-0.44 0.5-0.43 0.95-1.15-0.05-0.41-0.07-0.87-0.01-0.47-0.01-1 0-0.33 0-0.66t0.01-0.64q-0.04-0.03-0.12-0.1-0.09-0.06-0.21-0.12-0.13-0.06-0.29-0.1-0.17-0.04-0.37-0.04-0.3 0-0.68 0.17-0.37 0.17-0.71 0.54t-0.57 0.97-0.23 1.46q0 0.41 0.09 0.77 0.1 0.36 0.27 0.63t0.41 0.42q0.24 0.16 0.54 0.16zm4.59-9.79q0-0.14-0.01-0.3-0.02-0.17-0.06-0.32-0.04-0.14-0.13-0.24-0.08-0.1-0.23-0.1-0.36 0-0.66 0.6-0.31 0.59-0.53 1.64t-0.34 2.47q-0.12 1.41-0.12 3.05v0.39q0.3-0.59 0.57-1.25 0.27-0.67 0.5-1.35 0.24-0.67 0.42-1.34 0.19-0.67 0.32-1.27t0.2-1.11 0.07-0.87zm2.83 10.44q-0.45 0-0.86-0.16t-0.73-0.48q-0.31-0.32-0.49-0.8-0.19-0.49-0.19-1.14 0-0.79 0.23-1.41t0.59-1.04q0.35-0.43 0.79-0.66 0.44-0.22 0.86-0.22 0.55 0 0.87 0.36t0.32 0.93q0 0.49-0.19 0.89-0.18 0.4-0.48 0.69-0.31 0.29-0.7 0.44-0.39 0.16-0.81 0.16-0.2 0-0.38-0.02t-0.32-0.05q0.05 0.55 0.21 0.94 0.15 0.4 0.39 0.65 0.24 0.26 0.53 0.38 0.3 0.12 0.61 0.12 0.4 0 0.73-0.19 0.34-0.19 0.62-0.5 0.28-0.32 0.51-0.72 0.24-0.41 0.42-0.82 0.19-0.42 0.33-0.82 0.15-0.4 0.26-0.71l0.34 0.09q-0.11 0.29-0.27 0.7-0.15 0.42-0.35 0.87t-0.48 0.9q-0.27 0.46-0.61 0.81-0.34 0.36-0.78 0.58-0.43 0.23-0.97 0.23zm0.22-5.57q-0.33 0-0.64 0.21t-0.56 0.57q-0.24 0.36-0.4 0.85-0.15 0.49-0.15 1.05 0.11 0.05 0.32 0.08t0.51 0.03q0.31 0 0.62-0.14 0.32-0.13 0.57-0.37 0.25-0.25 0.4-0.58 0.16-0.33 0.16-0.73 0-0.19-0.06-0.37-0.05-0.17-0.16-0.31-0.1-0.13-0.25-0.21-0.16-0.08-0.36-0.08z" fill="#ccc"/></g></g><defs><filter id="p" x="-100%" y="-100%" width="300%" height="300%"><feFlood result="black"/><feMorphology in="SourceGraphic" operator="dilate" radius="2" result="erode"/><feGaussianBlur in="erode" result="blur" stdDeviation="4"/><feOffset dx="2" dy="2" in="blur" result="offset"/><feComposite in="offset" in2="black" operator="atop" result="merge"/><feComposite in="merge" in2="SourceGraphic" operator="in" result="inner-shadow"/></filter></defs><g filter="url(#p)"><g transform="translate(88 458)"><path d="m3.21-2.85q0-0.33 0.04-0.63t0.09-0.54q0.05-0.23 0.1-0.39t0.07-0.23h0.36q-0.07 0.93-0.02 1.66 0.06 0.74 0.23 1.25 0.17 0.52 0.45 0.79t0.66 0.27q0.37 0 0.65-0.27 0.27-0.28 0.44-0.71-0.39-0.36-0.59-0.96t-0.2-1.27q0-0.54 0.09-0.87 0.09-0.34 0.22-0.53 0.12-0.2 0.27-0.27 0.14-0.07 0.25-0.07 0.33 0 0.53 0.47 0.19 0.47 0.19 1.32 0 0.52-0.07 1.04-0.07 0.51-0.24 0.97 0.13 0.1 0.28 0.15 0.16 0.05 0.36 0.05 0.37 0 0.65-0.27 0.29-0.28 0.51-0.69 0.22-0.4 0.4-0.87 0.17-0.46 0.32-0.85l0.35 0.09q-0.11 0.27-0.23 0.6-0.12 0.32-0.26 0.65-0.15 0.33-0.32 0.64t-0.38 0.54q-0.22 0.24-0.48 0.38-0.27 0.14-0.58 0.14-0.22 0-0.41-0.05t-0.35-0.13q-0.24 0.5-0.63 0.82-0.38 0.31-0.92 0.31-0.61 0-1-0.3-0.38-0.3-0.59-0.8-0.14 0.31-0.31 0.51-0.17 0.21-0.35 0.32-0.19 0.11-0.38 0.16-0.2 0.04-0.38 0.04-0.2 0-0.47-0.11-0.26-0.12-0.5-0.39-0.23-0.28-0.4-0.74-0.16-0.46-0.16-1.17 0-0.36 0.07-0.72t0.19-0.69q0.13-0.34 0.31-0.63t0.41-0.51l0.3 0.19q0 0.01-0.09 0.19t-0.2 0.51q-0.12 0.33-0.21 0.8t-0.09 1.06q0 0.36 0.05 0.69 0.05 0.34 0.16 0.59 0.11 0.26 0.28 0.42 0.17 0.15 0.41 0.15 0.34 0 0.65-0.28 0.32-0.28 0.54-0.96-0.05-0.2-0.06-0.42t-0.01-0.45zm2.89-1.31q0 0.21 0.01 0.47t0.05 0.53 0.11 0.53 0.19 0.47q0.11-0.41 0.17-0.84 0.05-0.44 0.05-0.81 0-0.13 0-0.25 0-0.11-0.02-0.24-0.05-0.53-0.16-0.74-0.11-0.22-0.16-0.22t-0.14 0.26q-0.1 0.25-0.1 0.84zm6.06-5.75q0 0.55-0.18 1.24-0.19 0.68-0.52 1.49-0.32 0.81-0.76 1.74-0.43 0.92-0.93 1.95-0.04 0.42-0.07 0.85t-0.06 0.86q0.12-0.29 0.29-0.68 0.17-0.38 0.38-0.79 0.22-0.41 0.47-0.8 0.26-0.4 0.54-0.71 0.29-0.31 0.61-0.5 0.32-0.2 0.66-0.2 0.24 0 0.44 0.09 0.19 0.09 0.32 0.25 0.14 0.15 0.22 0.37 0.07 0.21 0.07 0.45 0 0.32-0.08 0.68-0.09 0.37-0.19 0.75-0.11 0.37-0.19 0.75t-0.08 0.71q0 0.28 0.13 0.47 0.13 0.18 0.48 0.18 0.25 0 0.48-0.2 0.24-0.2 0.46-0.52t0.41-0.72 0.35-0.8q0.16-0.39 0.29-0.74t0.21-0.56l0.34 0.09q-0.15 0.4-0.31 0.83-0.15 0.44-0.34 0.88-0.18 0.43-0.39 0.83t-0.46 0.7-0.55 0.48-0.66 0.18q-0.34 0-0.56-0.09-0.22-0.1-0.35-0.27-0.12-0.16-0.18-0.4-0.05-0.23-0.05-0.51 0-0.3 0.09-0.68 0.09-0.39 0.2-0.79 0.11-0.41 0.19-0.82 0.09-0.41 0.09-0.75 0-0.2-0.09-0.35t-0.32-0.15q-0.36 0-0.69 0.26-0.34 0.26-0.64 0.68-0.3 0.41-0.56 0.93t-0.48 1.03-0.39 0.98q-0.18 0.47-0.3 0.77l-0.34-0.05q0-0.04-0.01-0.12 0-0.07 0-0.2 0-0.14 0-0.33-0.01-0.2-0.01-0.48 0-0.83 0.04-2.18 0.05-1.36 0.22-3.25 0.07-0.92 0.21-1.57 0.14-0.66 0.31-1.1 0.18-0.45 0.38-0.71 0.19-0.26 0.38-0.4 0.18-0.14 0.34-0.17 0.16-0.04 0.27-0.04 0.4 0 0.64 0.31 0.23 0.32 0.23 0.85zm-0.86-0.8q-0.23 0-0.41 0.22t-0.32 0.63q-0.15 0.41-0.25 0.98-0.11 0.57-0.19 1.27-0.09 0.7-0.16 1.51-0.06 0.8-0.13 1.67 0.42-0.79 0.77-1.57 0.36-0.78 0.62-1.49 0.27-0.71 0.42-1.33t0.15-1.09q0-0.14-0.02-0.29-0.02-0.14-0.08-0.26-0.05-0.11-0.15-0.18t-0.25-0.07zm5.62 9.8q-0.55 0-0.92-0.45-0.36-0.45-0.36-1.36 0-0.59 0.24-1.52t0.84-2.1l0.32 0.09q-0.05 0.23-0.17 0.62-0.12 0.4-0.24 0.89t-0.2 1.02q-0.09 0.53-0.09 1.02 0 0.41 0.06 0.67t0.16 0.41q0.1 0.14 0.24 0.2 0.14 0.05 0.29 0.05 0.26 0 0.49-0.16t0.43-0.42q0.21-0.26 0.39-0.58t0.33-0.64q0.14-0.33 0.25-0.62 0.12-0.3 0.19-0.51l0.34 0.09q-0.09 0.26-0.22 0.61t-0.29 0.72q-0.17 0.37-0.37 0.72t-0.45 0.63q-0.26 0.27-0.57 0.44-0.31 0.18-0.69 0.18zm1.42-8.2q0 0.31-0.23 0.48-0.24 0.17-0.6 0.17-0.19 0-0.35-0.06t-0.28-0.15-0.19-0.22q-0.06-0.13-0.06-0.27 0-0.3 0.23-0.48 0.23-0.19 0.54-0.19 0.22 0 0.4 0.07 0.17 0.07 0.3 0.17 0.12 0.11 0.18 0.23 0.06 0.13 0.06 0.25zm-0.47 0q0-0.08-0.08-0.16-0.07-0.07-0.22-0.07-0.27 0-0.27 0.2 0 0.1 0.08 0.16 0.08 0.07 0.22 0.07t0.2-0.06q0.07-0.06 0.07-0.14zm3.41 4.54q0-0.53 0.25-0.91 0.25-0.39 0.64-0.75-0.12-0.08-0.26-0.12t-0.27-0.04q-0.29 0-0.62 0.15-0.33 0.14-0.61 0.48-0.27 0.35-0.46 0.92-0.18 0.58-0.18 1.44 0 0.71 0.17 1.22t0.47 0.84 0.69 0.48q0.4 0.16 0.85 0.16 0.53 0 0.95-0.28 0.43-0.28 0.78-0.76 0.35-0.49 0.65-1.15 0.31-0.65 0.6-1.41l0.34 0.09q-0.18 0.43-0.37 0.89-0.19 0.45-0.41 0.9-0.22 0.44-0.49 0.84-0.27 0.39-0.62 0.69-0.34 0.3-0.77 0.48-0.44 0.17-0.97 0.17-0.55 0-1.03-0.18-0.49-0.18-0.86-0.54-0.37-0.37-0.59-0.92t-0.22-1.3q0-0.76 0.25-1.41t0.64-1.12q0.38-0.48 0.85-0.75t0.89-0.27q0.49 0 0.88 0.25 0.07-0.05 0.13-0.11 0.07-0.05 0.14-0.12l0.19 0.27q-0.05 0.05-0.1 0.09-0.06 0.05-0.11 0.1 0.16 0.19 0.26 0.46 0.1 0.26 0.1 0.59 0 0.36-0.08 0.63-0.08 0.28-0.23 0.47-0.14 0.2-0.33 0.29-0.18 0.1-0.39 0.1-0.1 0-0.23-0.05t-0.25-0.15q-0.11-0.1-0.19-0.26t-0.08-0.4zm1.42-0.63q0-0.26-0.07-0.46-0.08-0.2-0.2-0.35-0.33 0.28-0.56 0.63-0.23 0.34-0.23 0.81 0 0.25 0.12 0.38 0.12 0.14 0.29 0.14 0.2 0 0.32-0.12 0.13-0.13 0.2-0.31t0.1-0.38q0.03-0.19 0.03-0.34zm5.14-4.71q0 0.55-0.19 1.24-0.18 0.68-0.51 1.49-0.32 0.81-0.76 1.74-0.43 0.92-0.93 1.95-0.04 0.42-0.07 0.85t-0.06 0.86q0.12-0.29 0.29-0.68 0.17-0.38 0.38-0.79 0.22-0.41 0.47-0.8 0.26-0.4 0.54-0.71 0.29-0.31 0.61-0.5 0.32-0.2 0.66-0.2 0.24 0 0.44 0.09 0.19 0.09 0.32 0.25 0.14 0.15 0.22 0.37 0.07 0.21 0.07 0.45 0 0.32-0.08 0.68-0.09 0.37-0.19 0.75-0.11 0.37-0.19 0.75t-0.08 0.71q0 0.28 0.13 0.47 0.13 0.18 0.48 0.18 0.25 0 0.48-0.2 0.24-0.2 0.46-0.52t0.41-0.72 0.35-0.8q0.16-0.39 0.29-0.74t0.21-0.56l0.34 0.09q-0.15 0.4-0.31 0.83-0.16 0.44-0.34 0.88-0.18 0.43-0.39 0.83t-0.46 0.7-0.55 0.48-0.67 0.18q-0.33 0-0.55-0.09-0.22-0.1-0.35-0.27-0.12-0.16-0.18-0.4-0.05-0.23-0.05-0.51 0-0.3 0.09-0.68 0.09-0.39 0.2-0.79 0.11-0.41 0.19-0.82 0.09-0.41 0.09-0.75 0-0.2-0.09-0.35t-0.32-0.15q-0.36 0-0.7 0.26-0.33 0.26-0.63 0.68-0.3 0.41-0.56 0.93t-0.48 1.03-0.39 0.98q-0.18 0.47-0.3 0.77l-0.34-0.05q0-0.04-0.01-0.12 0-0.07 0-0.2 0-0.14-0.01-0.33 0-0.2 0-0.48 0-0.83 0.04-2.18 0.05-1.36 0.22-3.25 0.07-0.92 0.21-1.57 0.14-0.66 0.31-1.1 0.18-0.45 0.38-0.71 0.19-0.26 0.38-0.4 0.18-0.14 0.34-0.17 0.16-0.04 0.26-0.04 0.41 0 0.65 0.31 0.23 0.32 0.23 0.85zm-0.86-0.8q-0.23 0-0.41 0.22t-0.32 0.63q-0.15 0.41-0.25 0.98-0.11 0.57-0.2 1.27-0.08 0.7-0.15 1.51-0.07 0.8-0.13 1.67 0.42-0.79 0.77-1.57 0.36-0.78 0.62-1.49 0.27-0.71 0.42-1.33t0.15-1.09q0-0.14-0.02-0.29-0.02-0.14-0.08-0.26-0.05-0.11-0.15-0.18t-0.25-0.07zm11.18 4.48q0.39 0 0.67 0.1 0.27 0.1 0.45 0.21 0.06-1.16 0.2-2.05t0.33-1.55q0.19-0.67 0.41-1.12t0.45-0.73 0.44-0.39q0.22-0.12 0.4-0.12 0.4 0 0.6 0.33 0.21 0.34 0.21 0.99 0 0.34-0.08 0.87-0.07 0.53-0.22 1.19-0.14 0.65-0.35 1.4-0.2 0.75-0.47 1.5-0.27 0.76-0.59 1.5-0.31 0.73-0.68 1.38 0.03 0.51 0.11 0.81 0.07 0.31 0.19 0.48 0.11 0.17 0.26 0.23 0.15 0.07 0.34 0.07 0.25 0 0.49-0.18 0.23-0.17 0.48-0.54 0.25-0.38 0.51-0.98 0.26-0.61 0.57-1.47l0.34 0.09q-0.25 0.68-0.51 1.31-0.25 0.64-0.54 1.14-0.3 0.49-0.65 0.79t-0.8 0.3q-0.55 0-0.86-0.33t-0.46-0.91q-0.51 0.75-1.09 1.19-0.59 0.45-1.23 0.45-0.36 0-0.69-0.14-0.34-0.13-0.59-0.42-0.26-0.29-0.42-0.73-0.15-0.44-0.15-1.07 0-0.65 0.2-1.29 0.21-0.64 0.59-1.16 0.38-0.51 0.92-0.83 0.55-0.32 1.22-0.32zm-0.77 5.46q0.49 0 0.99-0.44 0.49-0.43 0.95-1.15-0.05-0.41-0.07-0.87-0.02-0.47-0.02-1 0-0.33 0-0.66t0.02-0.64q-0.04-0.03-0.13-0.1-0.08-0.06-0.21-0.12t-0.29-0.1-0.36-0.04q-0.3 0-0.68 0.17t-0.72 0.54q-0.33 0.37-0.56 0.97t-0.23 1.46q0 0.41 0.09 0.77t0.27 0.63q0.17 0.27 0.41 0.42 0.24 0.16 0.54 0.16zm4.59-9.79q0-0.14-0.02-0.3-0.01-0.17-0.05-0.32-0.05-0.14-0.13-0.24t-0.23-0.1q-0.36 0-0.67 0.6-0.3 0.59-0.52 1.64t-0.34 2.47q-0.13 1.41-0.13 3.05v0.39q0.3-0.59 0.57-1.25 0.28-0.67 0.51-1.35 0.23-0.67 0.42-1.34 0.18-0.67 0.31-1.27 0.14-0.6 0.21-1.11t0.07-0.87zm3.1 9.77q0.49 0 0.94-0.36 0.46-0.36 0.71-1.05h-0.07q-0.54 0-1.01-0.18-0.46-0.19-0.8-0.52-0.33-0.33-0.53-0.79-0.19-0.46-0.19-1.01 0-0.31 0.08-0.63 0.09-0.31 0.26-0.56 0.18-0.25 0.46-0.41t0.67-0.16q0.31 0 0.62 0.13 0.31 0.12 0.56 0.43 0.24 0.31 0.4 0.83 0.15 0.53 0.15 1.33 0 0.29-0.03 0.59-0.02 0.29-0.09 0.57 0.34-0.06 0.61-0.21 0.26-0.16 0.47-0.39 0.21-0.22 0.37-0.51 0.15-0.28 0.29-0.61l0.34 0.09q-0.19 0.5-0.43 0.85t-0.52 0.59q-0.27 0.24-0.58 0.37-0.3 0.12-0.62 0.17-0.13 0.43-0.33 0.81-0.2 0.37-0.49 0.66-0.29 0.28-0.67 0.44-0.39 0.16-0.86 0.16-0.4 0-0.8-0.16t-0.72-0.5-0.52-0.85q-0.19-0.52-0.19-1.23 0-0.47 0.11-0.91 0.11-0.45 0.3-0.85 0.2-0.4 0.47-0.75 0.28-0.35 0.59-0.6l0.14 0.22q-0.21 0.18-0.39 0.46-0.19 0.27-0.34 0.6t-0.23 0.69q-0.09 0.37-0.09 0.73 0 0.71 0.18 1.19 0.18 0.49 0.46 0.78t0.63 0.42q0.36 0.13 0.69 0.13zm0.5-5.33q-0.24 0-0.44 0.1t-0.35 0.28-0.24 0.42q-0.09 0.25-0.09 0.55 0 0.52 0.18 0.93t0.48 0.7 0.71 0.45q0.4 0.15 0.87 0.15h0.16q0.07-0.27 0.1-0.57t0.03-0.65q-0.02-0.68-0.14-1.13t-0.3-0.73q-0.19-0.27-0.44-0.38-0.25-0.12-0.53-0.12zm5.29 6q-0.45 0-0.86-0.16t-0.73-0.48q-0.31-0.32-0.49-0.8-0.19-0.49-0.19-1.14 0-0.79 0.23-1.41t0.59-1.04q0.35-0.43 0.79-0.66 0.44-0.22 0.86-0.22 0.55 0 0.87 0.36t0.32 0.93q0 0.49-0.18 0.89-0.19 0.4-0.49 0.69-0.31 0.29-0.7 0.44-0.39 0.16-0.81 0.16-0.2 0-0.38-0.02t-0.32-0.05q0.05 0.55 0.21 0.94 0.16 0.4 0.39 0.65 0.24 0.26 0.54 0.38 0.29 0.12 0.61 0.12 0.39 0 0.73-0.19 0.33-0.19 0.61-0.5 0.28-0.32 0.51-0.72 0.24-0.41 0.42-0.82 0.19-0.42 0.33-0.82 0.15-0.4 0.26-0.71l0.34 0.09q-0.11 0.29-0.26 0.7-0.16 0.42-0.36 0.87t-0.47 0.9q-0.28 0.46-0.62 0.81-0.34 0.36-0.78 0.58-0.43 0.23-0.97 0.23zm0.22-5.57q-0.32 0-0.64 0.21-0.31 0.21-0.55 0.57-0.25 0.36-0.4 0.85-0.16 0.49-0.16 1.05 0.12 0.05 0.32 0.08 0.21 0.03 0.51 0.03 0.31 0 0.63-0.14 0.31-0.13 0.56-0.37 0.25-0.25 0.4-0.58 0.16-0.33 0.16-0.73 0-0.19-0.06-0.37-0.05-0.17-0.15-0.31-0.11-0.13-0.26-0.21-0.16-0.08-0.36-0.08zm3.53 0.72q-0.1 0.26-0.19 0.51-0.1 0.24-0.21 0.49-0.11 0.24-0.26 0.48-0.14 0.24-0.36 0.48l-0.07-0.07q0.23-0.55 0.41-1.13 0.17-0.58 0.35-1.3-0.04-0.12-0.08-0.21-0.03-0.09-0.06-0.16-0.03-0.08-0.04-0.16-0.02-0.09-0.02-0.19 0-0.14 0.04-0.31t0.11-0.32q0.08-0.15 0.17-0.25 0.1-0.11 0.21-0.11 0.12 0 0.19 0.06 0.08 0.06 0.12 0.15 0.05 0.08 0.06 0.18 0.02 0.1 0.02 0.19 0 0.13-0.03 0.3t-0.07 0.33q-0.04 0.17-0.07 0.29t-0.03 0.16q0.07 0.23 0.24 0.48t0.39 0.5q0.22 0.26 0.46 0.53 0.24 0.28 0.44 0.59 0.2 0.3 0.33 0.65 0.12 0.35 0.12 0.74 0 0.55-0.16 0.89-0.16 0.35-0.43 0.53 0.39-0.16 0.74-0.56 0.35-0.41 0.64-0.93 0.3-0.52 0.55-1.09 0.25-0.58 0.44-1.07l0.34 0.09q-0.3 0.76-0.63 1.49t-0.76 1.3q-0.42 0.58-0.95 0.93t-1.22 0.35q-0.18 0-0.37-0.03t-0.37-0.1q-0.18-0.06-0.34-0.18-0.16-0.11-0.27-0.27l0.29-0.19q0.08 0.12 0.25 0.22 0.16 0.11 0.44 0.11 0.26 0 0.46-0.11 0.19-0.11 0.33-0.3t0.2-0.44q0.07-0.26 0.07-0.55 0-0.6-0.17-1.03t-0.41-0.76q-0.23-0.34-0.47-0.62-0.24-0.29-0.37-0.58zm4.29 0.76-0.34-0.09q0.13-0.34 0.29-0.65 0.15-0.31 0.33-0.55 0.17-0.24 0.38-0.38 0.2-0.15 0.46-0.15 0.12 0 0.28 0.05 0.16 0.06 0.3 0.21 0.15 0.16 0.25 0.46 0.09 0.3 0.09 0.79 0 0.26-0.02 0.56-0.03 0.31-0.06 0.61 0.28-0.58 0.54-0.98 0.27-0.4 0.53-0.64t0.52-0.35q0.25-0.11 0.5-0.11 0.12 0 0.27 0.05 0.16 0.05 0.29 0.19 0.14 0.13 0.23 0.36 0.09 0.22 0.09 0.58 0 0.29-0.04 0.58t-0.1 0.57q-0.05 0.27-0.09 0.51-0.05 0.24-0.05 0.43 0 0.44 0.16 0.67t0.48 0.23q0.27 0 0.51-0.19 0.23-0.2 0.44-0.51t0.38-0.68 0.3-0.7q0.12-0.34 0.21-0.6t0.12-0.36l0.35 0.09q-0.13 0.31-0.26 0.68-0.14 0.37-0.31 0.75-0.16 0.38-0.36 0.74-0.19 0.35-0.43 0.62-0.23 0.28-0.51 0.44-0.28 0.17-0.61 0.17-0.28 0-0.49-0.11t-0.35-0.29q-0.14-0.19-0.21-0.44-0.07-0.26-0.07-0.55 0-0.32 0.06-0.67 0.06-0.34 0.12-0.65 0.07-0.32 0.13-0.59 0.05-0.27 0.05-0.44 0-0.28-0.1-0.41-0.11-0.14-0.29-0.14-0.26 0-0.5 0.19-0.24 0.18-0.47 0.49-0.22 0.31-0.42 0.7-0.2 0.4-0.38 0.82-0.17 0.41-0.31 0.83-0.15 0.41-0.25 0.74-0.11 0.34-0.18 0.57-0.08 0.23-0.1 0.29l-0.51-0.08q0.1-0.52 0.19-1.1 0.09-0.57 0.15-1.13 0.07-0.56 0.11-1.07t0.04-0.9q0-0.54-0.07-0.73t-0.26-0.19q-0.15 0-0.29 0.12-0.15 0.12-0.26 0.32-0.12 0.19-0.24 0.46-0.11 0.26-0.22 0.56zm5.26-2.87 0.14-0.32q0.13 0.08 0.32 0.18 0.18 0.11 0.43 0.21 0.24 0.09 0.55 0.18 0.3 0.08 0.66 0.12 0.12-0.8 0.32-1.43 0.19-0.64 0.42-1.09 0.24-0.46 0.49-0.7t0.48-0.24q0.28 0 0.39 0.21t0.11 0.56q0 0.26-0.05 0.57-0.05 0.3-0.14 0.65t-0.21 0.72q-0.12 0.38-0.25 0.75 0.87-0.08 1.62-0.29 0.74-0.22 1.28-0.44l0.17 0.33q-0.72 0.27-1.49 0.49-0.78 0.21-1.73 0.27-0.22 0.57-0.46 1.08-0.23 0.52-0.42 0.89 0.01 0.5 0.05 1.07 0.05 0.58 0.2 1.08 0.14 0.5 0.41 0.83 0.27 0.34 0.71 0.34 0.37 0 0.67-0.32 0.31-0.31 0.57-0.79t0.48-1.05 0.41-1.08l0.35 0.09q-0.13 0.32-0.27 0.71-0.14 0.4-0.31 0.81-0.18 0.4-0.39 0.79-0.21 0.38-0.47 0.68-0.25 0.31-0.56 0.49t-0.67 0.18q-0.38 0-0.72-0.18t-0.59-0.63-0.4-1.23q-0.14-0.78-0.14-1.98 0-0.97 0.1-1.8-0.75-0.1-1.27-0.31-0.51-0.2-0.79-0.4zm3.87-2.62q-0.08 0-0.24 0.16-0.16 0.15-0.34 0.51-0.17 0.36-0.33 0.93-0.17 0.58-0.26 1.42h0.16 0.43q0.16-0.44 0.28-0.85 0.12-0.42 0.21-0.77 0.09-0.36 0.13-0.64 0.04-0.29 0.04-0.47 0-0.29-0.08-0.29zm-1.24 4.6v0.02q0.15-0.31 0.28-0.62t0.25-0.64h-0.32-0.18q-0.02 0.28-0.02 0.6-0.01 0.31-0.01 0.64zm9.58 0.53q0-0.53 0.25-0.91 0.25-0.39 0.64-0.75-0.12-0.08-0.26-0.12t-0.27-0.04q-0.29 0-0.62 0.15-0.33 0.14-0.61 0.48-0.28 0.35-0.46 0.92-0.18 0.58-0.18 1.44 0 0.71 0.17 1.22t0.47 0.84 0.69 0.48q0.4 0.16 0.84 0.16 0.54 0 0.96-0.28t0.78-0.76q0.35-0.49 0.65-1.15 0.3-0.65 0.6-1.41l0.34 0.09q-0.18 0.43-0.37 0.89-0.19 0.45-0.41 0.9-0.22 0.44-0.49 0.84-0.27 0.39-0.62 0.69t-0.78 0.48q-0.43 0.17-0.96 0.17-0.55 0-1.04-0.18-0.48-0.18-0.85-0.54-0.37-0.37-0.59-0.92t-0.22-1.3q0-0.76 0.25-1.41t0.64-1.12q0.38-0.48 0.85-0.75t0.89-0.27q0.49 0 0.88 0.25 0.07-0.05 0.13-0.11 0.07-0.05 0.14-0.12l0.19 0.27q-0.05 0.05-0.1 0.09-0.06 0.05-0.11 0.1 0.16 0.19 0.26 0.46 0.1 0.26 0.1 0.59 0 0.36-0.08 0.63-0.09 0.28-0.23 0.47-0.15 0.2-0.33 0.29-0.19 0.1-0.39 0.1-0.1 0-0.23-0.05-0.14-0.05-0.25-0.15t-0.19-0.26-0.08-0.4zm1.42-0.63q0-0.26-0.07-0.46-0.08-0.2-0.2-0.35-0.33 0.28-0.56 0.63-0.23 0.34-0.23 0.81 0 0.25 0.12 0.38 0.12 0.14 0.29 0.14 0.19 0 0.32-0.12 0.13-0.13 0.2-0.31t0.1-0.38q0.03-0.19 0.03-0.34zm4.42 4.41q0.49 0 0.95-0.36 0.45-0.36 0.7-1.05h-0.07q-0.54 0-1-0.18-0.46-0.19-0.8-0.52t-0.53-0.79q-0.2-0.46-0.2-1.01 0-0.31 0.09-0.63 0.08-0.31 0.26-0.56 0.17-0.25 0.45-0.41t0.67-0.16q0.32 0 0.62 0.13 0.31 0.12 0.56 0.43 0.24 0.31 0.4 0.83 0.15 0.53 0.15 1.33 0 0.29-0.02 0.59-0.03 0.29-0.1 0.57 0.34-0.06 0.61-0.21 0.27-0.16 0.47-0.39 0.21-0.22 0.37-0.51 0.16-0.28 0.29-0.61l0.34 0.09q-0.18 0.5-0.42 0.85-0.25 0.35-0.52 0.59-0.28 0.24-0.58 0.37-0.31 0.12-0.63 0.17-0.12 0.43-0.33 0.81-0.2 0.37-0.49 0.66-0.29 0.28-0.67 0.44t-0.86 0.16q-0.39 0-0.79-0.16t-0.72-0.5q-0.33-0.34-0.52-0.85-0.2-0.52-0.2-1.23 0-0.47 0.11-0.91 0.11-0.45 0.31-0.85 0.19-0.4 0.47-0.75 0.27-0.35 0.59-0.6l0.13 0.22q-0.2 0.18-0.39 0.46-0.18 0.27-0.33 0.6t-0.24 0.69q-0.09 0.37-0.09 0.73 0 0.71 0.18 1.19 0.18 0.49 0.46 0.78t0.64 0.42q0.35 0.13 0.68 0.13zm0.5-5.33q-0.23 0-0.44 0.1-0.2 0.1-0.35 0.28t-0.24 0.42q-0.08 0.25-0.08 0.55 0 0.52 0.17 0.93 0.18 0.41 0.48 0.7t0.71 0.45q0.4 0.15 0.87 0.15h0.17q0.07-0.27 0.09-0.57 0.03-0.3 0.03-0.65-0.02-0.68-0.14-1.13t-0.3-0.73q-0.19-0.27-0.44-0.38-0.25-0.12-0.53-0.12zm3.71 1.91-0.34-0.09q0.28-0.82 0.61-1.23 0.32-0.41 0.76-0.41 0.19 0 0.36 0.09 0.18 0.08 0.31 0.28t0.2 0.52q0.08 0.31 0.08 0.77 0.39-1.01 0.8-1.44 0.4-0.43 0.88-0.43 0.17 0 0.35 0.07t0.33 0.25q0.14 0.18 0.24 0.49 0.1 0.3 0.11 0.77 0.23-0.47 0.59-0.76t0.79-0.29q0.21 0 0.42 0.08 0.21 0.07 0.37 0.25 0.16 0.17 0.27 0.46t0.11 0.71q0 0.12-0.02 0.32t-0.05 0.43q-0.02 0.24-0.05 0.49-0.03 0.24-0.05 0.46-0.03 0.21-0.05 0.38-0.01 0.16-0.01 0.22 0 0.52 0.12 0.76 0.12 0.23 0.45 0.23 0.24 0 0.5-0.29 0.25-0.3 0.52-0.78 0.26-0.48 0.53-1.11 0.28-0.62 0.56-1.29l0.34 0.09q-0.25 0.61-0.53 1.28-0.27 0.68-0.59 1.25t-0.69 0.95q-0.37 0.37-0.82 0.37-0.52 0-0.79-0.31t-0.27-1.03q0-0.31 0.04-0.67 0.05-0.35 0.1-0.71 0.06-0.36 0.1-0.69 0.05-0.34 0.05-0.62 0-0.16-0.03-0.32-0.02-0.16-0.09-0.29-0.07-0.12-0.18-0.2-0.11-0.07-0.28-0.07-0.22 0-0.42 0.21-0.21 0.21-0.39 0.56t-0.34 0.8q-0.16 0.46-0.28 0.94-0.13 0.47-0.22 0.95-0.1 0.47-0.15 0.85l-0.63-0.1t0.05-0.22q0.04-0.21 0.1-0.55 0.05-0.34 0.13-0.77 0.07-0.42 0.12-0.85 0.06-0.43 0.1-0.83t0.04-0.67q0-0.37-0.14-0.6-0.14-0.24-0.41-0.24-0.26 0-0.49 0.29-0.24 0.29-0.44 0.76t-0.38 1.06q-0.17 0.6-0.32 1.2t-0.26 1.15q-0.12 0.56-0.21 0.95l-0.59-0.14q0.13-0.61 0.22-1.23 0.09-0.54 0.16-1.18t0.07-1.24q0-0.39-0.01-0.65-0.02-0.26-0.08-0.42-0.05-0.16-0.14-0.22-0.09-0.07-0.23-0.07-0.22 0-0.45 0.32-0.23 0.31-0.46 1zm14.03 3.02q0.29 0 0.55-0.16t0.49-0.43 0.44-0.61q0.21-0.33 0.38-0.68t0.31-0.67q0.13-0.32 0.24-0.56l0.34 0.09q-0.11 0.29-0.26 0.65-0.14 0.36-0.33 0.74t-0.42 0.73q-0.22 0.36-0.49 0.64-0.28 0.28-0.59 0.45-0.32 0.17-0.68 0.17-0.35 0-0.7-0.15-0.3 0.23-0.66 0.36-0.36 0.14-0.8 0.14-0.27 0-0.44-0.07t-0.26-0.18q-0.09-0.1-0.13-0.2-0.03-0.11-0.03-0.19 0-0.17 0.08-0.31 0.08-0.13 0.21-0.23t0.3-0.15q0.17-0.04 0.36-0.04 0.3 0 0.57 0.11t0.53 0.23q0.2-0.26 0.36-0.57 0.15-0.32 0.26-0.66t0.16-0.67q0.06-0.33 0.06-0.62 0-0.68-0.22-0.98-0.23-0.3-0.54-0.3-0.34 0-0.66 0.21t-0.65 0.66-0.68 1.14q-0.34 0.69-0.74 1.65-0.04 0.08-0.07 0.16-0.03 0.09-0.07 0.17 0.08 1.04 0.16 1.99 0.09 0.96 0.09 1.7 0 1.42-0.33 2.1-0.32 0.68-1 0.68-0.27 0-0.46-0.12-0.19-0.13-0.32-0.34t-0.19-0.49q-0.06-0.29-0.06-0.61 0-0.51 0.13-1.13 0.13-0.61 0.34-1.28 0.21-0.66 0.49-1.36 0.28-0.71 0.59-1.4-0.08-0.88-0.14-1.73t-0.06-1.64q0-0.68 0.1-1.07t0.3-0.39q0.06 0 0.16 0.04 0.1 0.03 0.19 0.11 0.09 0.07 0.15 0.18 0.07 0.1 0.07 0.24 0 0.36-0.1 0.74-0.09 0.38-0.26 0.76 0 0.41 0.01 0.84 0.02 0.43 0.04 0.87 0.39-0.81 0.76-1.38 0.37-0.58 0.74-0.94 0.37-0.37 0.73-0.53 0.37-0.17 0.74-0.17 0.33 0 0.59 0.14 0.27 0.14 0.45 0.38 0.19 0.24 0.29 0.58 0.1 0.33 0.1 0.72 0 0.71-0.23 1.4-0.23 0.68-0.69 1.17 0.17 0.07 0.4 0.07zm-4.04 4.18q0-0.78-0.05-1.6t-0.12-1.64q-0.52 1.25-0.85 2.26t-0.33 1.84q0 0.4 0.15 0.68t0.45 0.28q0.16 0 0.29-0.09 0.14-0.09 0.24-0.3t0.16-0.56 0.06-0.87zm1.82-3.82q0.28 0 0.51-0.1 0.24-0.11 0.44-0.29-0.23-0.12-0.44-0.2-0.21-0.09-0.4-0.09-0.33 0-0.46 0.13-0.13 0.12-0.13 0.25 0 0.09 0.12 0.2 0.11 0.1 0.36 0.1zm5.64-0.08q-0.56 0-0.92-0.45-0.37-0.45-0.37-1.36 0-0.59 0.25-1.52 0.24-0.93 0.84-2.1l0.32 0.09q-0.05 0.23-0.17 0.62-0.12 0.4-0.24 0.89t-0.2 1.02q-0.09 0.53-0.09 1.02 0 0.41 0.06 0.67t0.16 0.41q0.1 0.14 0.24 0.2 0.14 0.05 0.29 0.05 0.26 0 0.49-0.16t0.43-0.42q0.21-0.26 0.39-0.58t0.32-0.64q0.15-0.33 0.26-0.62 0.12-0.3 0.19-0.51l0.34 0.09q-0.1 0.26-0.22 0.61-0.13 0.35-0.29 0.72-0.17 0.37-0.37 0.72t-0.46 0.63q-0.25 0.27-0.56 0.44-0.31 0.18-0.69 0.18zm1.42-8.2q0 0.31-0.24 0.48-0.23 0.17-0.59 0.17-0.19 0-0.35-0.06t-0.28-0.15-0.19-0.22q-0.06-0.13-0.06-0.27 0-0.3 0.23-0.48 0.23-0.19 0.54-0.19 0.22 0 0.4 0.07 0.17 0.07 0.3 0.17 0.12 0.11 0.18 0.23 0.06 0.13 0.06 0.25zm-0.47 0q0-0.08-0.08-0.16-0.07-0.07-0.22-0.07-0.27 0-0.27 0.2 0 0.1 0.08 0.16 0.08 0.07 0.22 0.07t0.2-0.06q0.07-0.06 0.07-0.14zm4.34-1.96q0 0.55-0.13 1.17-0.13 0.63-0.33 1.27-0.21 0.64-0.48 1.29t-0.54 1.25-0.53 1.13q-0.27 0.54-0.47 0.96 0.04 0.72 0.12 1.3 0.09 0.58 0.22 0.99 0.14 0.41 0.32 0.63t0.42 0.22q0.27 0 0.52-0.25 0.26-0.24 0.53-0.69 0.26-0.45 0.53-1.08 0.28-0.64 0.56-1.42l0.34 0.09q-0.21 0.61-0.47 1.28-0.27 0.67-0.59 1.23-0.33 0.57-0.71 0.94-0.38 0.36-0.82 0.36t-0.74-0.27-0.49-0.71q-0.2-0.45-0.3-1.02-0.11-0.56-0.16-1.15t-0.06-1.15-0.01-0.99q0-0.8 0.07-1.59 0.06-0.79 0.2-1.51 0.13-0.72 0.33-1.34 0.19-0.62 0.45-1.07t0.57-0.71q0.31-0.25 0.68-0.25 0.27 0 0.45 0.08 0.18 0.09 0.3 0.24 0.11 0.15 0.17 0.35 0.05 0.2 0.05 0.42zm-2.53 5.06q0 0.33 0 0.65t0.02 0.62q0.22-0.44 0.46-0.96 0.25-0.52 0.49-1.08t0.46-1.13 0.39-1.12q0.16-0.55 0.27-1.05 0.1-0.49 0.1-0.9 0-0.13-0.03-0.28-0.02-0.15-0.07-0.28-0.06-0.12-0.17-0.21-0.1-0.08-0.27-0.08-0.33 0-0.64 0.43-0.3 0.44-0.52 1.21-0.23 0.78-0.36 1.84-0.13 1.07-0.13 2.34zm5.19 5.89q-0.45 0-0.86-0.16t-0.72-0.48q-0.32-0.32-0.5-0.8-0.19-0.49-0.19-1.14 0-0.79 0.23-1.41t0.59-1.04q0.35-0.43 0.79-0.66 0.44-0.22 0.86-0.22 0.55 0 0.87 0.36t0.32 0.93q0 0.49-0.18 0.89-0.19 0.4-0.49 0.69t-0.7 0.44q-0.39 0.16-0.81 0.16-0.2 0-0.38-0.02t-0.32-0.05q0.05 0.55 0.21 0.94 0.16 0.4 0.39 0.65 0.24 0.26 0.54 0.38 0.29 0.12 0.61 0.12 0.39 0 0.73-0.19 0.33-0.19 0.61-0.5 0.28-0.32 0.52-0.72 0.23-0.41 0.41-0.82 0.19-0.42 0.33-0.82 0.15-0.4 0.26-0.71l0.34 0.09q-0.11 0.29-0.26 0.7-0.16 0.42-0.36 0.87t-0.47 0.9q-0.28 0.46-0.62 0.81-0.34 0.36-0.78 0.58-0.43 0.23-0.97 0.23zm0.22-5.57q-0.32 0-0.64 0.21-0.31 0.21-0.55 0.57-0.25 0.36-0.4 0.85-0.16 0.49-0.16 1.05 0.12 0.05 0.32 0.08 0.21 0.03 0.51 0.03 0.32 0 0.63-0.14 0.31-0.13 0.56-0.37 0.25-0.25 0.4-0.58 0.16-0.33 0.16-0.73 0-0.19-0.05-0.37-0.06-0.17-0.16-0.31-0.11-0.13-0.26-0.21-0.16-0.08-0.36-0.08zm4.25 5.14q0 0.26-0.19 0.45t-0.46 0.19q-0.26 0-0.45-0.19t-0.19-0.45 0.19-0.45 0.45-0.19q0.27 0 0.46 0.19t0.19 0.45zm8.48 0.66v-0.31q0-1.13 0.1-2.1-0.27 0.49-0.52 0.81-0.26 0.31-0.51 0.5-0.25 0.18-0.5 0.25-0.26 0.07-0.52 0.07-0.21 0-0.48-0.06-0.27-0.07-0.51-0.27-0.23-0.2-0.4-0.58-0.16-0.37-0.16-1 0-0.65 0.16-1.23t0.36-1.03q0.23-0.53 0.53-0.98l0.32 0.12q-0.02 0.02-0.11 0.32-0.1 0.29-0.21 0.73-0.11 0.45-0.2 0.98t-0.09 1.02q0 0.74 0.26 1.18 0.27 0.44 0.76 0.44 0.27 0 0.52-0.17 0.26-0.18 0.5-0.49 0.25-0.31 0.5-0.74 0.24-0.43 0.48-0.94 0.17-0.87 0.4-1.54 0.23-0.68 0.49-1.15l0.32 0.08q-0.17 0.77-0.31 1.52-0.13 0.75-0.22 1.46t-0.14 1.38q-0.06 0.66-0.08 1.24 0.37-0.27 0.7-0.6 0.33-0.34 0.65-0.8 0.32-0.45 0.63-1.07 0.31-0.61 0.64-1.45l0.35 0.09q-0.35 0.89-0.67 1.54-0.32 0.66-0.66 1.15-0.35 0.5-0.75 0.89-0.39 0.38-0.89 0.74-0.03 0.96-0.18 1.7t-0.37 1.29-0.49 0.92-0.55 0.59q-0.27 0.23-0.53 0.33t-0.44 0.1q-0.33 0-0.59-0.14-0.25-0.14-0.44-0.36-0.18-0.22-0.28-0.5t-0.1-0.57q0-0.5 0.24-0.94 0.25-0.45 0.65-0.84 0.4-0.4 0.93-0.75 0.52-0.34 1.08-0.65 0.17-0.11 0.33-0.18zm-1.8 4.57q0.28 0 0.57-0.23 0.3-0.22 0.55-0.71t0.43-1.26 0.23-1.85q-0.03 0.02-0.06 0.03-0.03 0.02-0.05 0.04-0.45 0.28-0.89 0.62t-0.79 0.73q-0.34 0.38-0.56 0.81t-0.22 0.88q0 0.16 0.05 0.33 0.06 0.17 0.17 0.3 0.1 0.14 0.25 0.22 0.14 0.09 0.32 0.09zm7.08-4.8q-0.45 0-0.86-0.16t-0.73-0.48q-0.31-0.32-0.49-0.8-0.19-0.49-0.19-1.14 0-0.79 0.23-1.41t0.59-1.04q0.35-0.43 0.79-0.66 0.44-0.22 0.86-0.22 0.55 0 0.87 0.36t0.32 0.93q0 0.49-0.19 0.89-0.18 0.4-0.48 0.69-0.31 0.29-0.7 0.44-0.39 0.16-0.81 0.16-0.2 0-0.38-0.02t-0.32-0.05q0.05 0.55 0.21 0.94 0.16 0.4 0.39 0.65 0.24 0.26 0.53 0.38 0.3 0.12 0.62 0.12 0.39 0 0.72-0.19 0.34-0.19 0.62-0.5 0.28-0.32 0.51-0.72 0.24-0.41 0.42-0.82 0.19-0.42 0.33-0.82 0.15-0.4 0.26-0.71l0.34 0.09q-0.11 0.29-0.26 0.7-0.16 0.42-0.36 0.87t-0.48 0.9q-0.27 0.46-0.61 0.81-0.34 0.36-0.78 0.58-0.43 0.23-0.97 0.23zm0.22-5.57q-0.32 0-0.64 0.21-0.31 0.21-0.56 0.57-0.24 0.36-0.39 0.85-0.16 0.49-0.16 1.05 0.12 0.05 0.32 0.08 0.21 0.03 0.51 0.03 0.31 0 0.63-0.14 0.31-0.13 0.56-0.37 0.25-0.25 0.4-0.58 0.16-0.33 0.16-0.73 0-0.19-0.06-0.37-0.05-0.17-0.15-0.31-0.11-0.13-0.26-0.21-0.16-0.08-0.36-0.08zm9.32 1.39 0.34 0.09q-0.36 0.98-0.66 1.63-0.29 0.66-0.57 1.07-0.27 0.4-0.55 0.58-0.27 0.17-0.59 0.17-0.4 0-0.68-0.27-0.28-0.28-0.35-0.86-0.28 0.61-0.73 0.99t-1.13 0.38q-0.36 0-0.69-0.13t-0.58-0.41q-0.26-0.28-0.41-0.7t-0.15-0.99q0-0.58 0.14-1.09 0.15-0.51 0.38-0.94 0.24-0.42 0.55-0.76 0.32-0.33 0.65-0.56t0.67-0.35q0.33-0.12 0.61-0.12 0.25 0 0.48 0.06t0.41 0.2q0.18 0.13 0.29 0.36t0.11 0.57q0 0.41-0.16 0.7-0.15 0.3-0.37 0.51-0.21 0.2-0.44 0.32-0.22 0.12-0.35 0.18l-0.11-0.35q0.03 0 0.2-0.07t0.36-0.23 0.35-0.42q0.16-0.25 0.16-0.62 0-0.42-0.24-0.65-0.24-0.22-0.61-0.22-0.28 0-0.66 0.2t-0.72 0.63q-0.35 0.43-0.59 1.09t-0.24 1.58q0 0.9 0.32 1.38 0.32 0.47 0.86 0.47 0.28 0 0.53-0.15 0.25-0.16 0.46-0.41 0.21-0.26 0.38-0.59 0.16-0.34 0.29-0.7 0-0.28 0.06-0.67 0.07-0.38 0.21-0.77l0.53 0.17q-0.04 0.12-0.08 0.3-0.05 0.18-0.09 0.4t-0.06 0.46q-0.03 0.23-0.03 0.45 0 0.68 0.14 0.94 0.13 0.26 0.47 0.26 0.19 0 0.38-0.14t0.41-0.49 0.48-0.95q0.27-0.61 0.62-1.53zm2.91-5.61q0 0.55-0.18 1.24-0.19 0.68-0.52 1.49-0.32 0.81-0.76 1.74-0.43 0.92-0.93 1.95-0.04 0.42-0.07 0.85t-0.06 0.86q0.12-0.29 0.29-0.68 0.17-0.38 0.38-0.79 0.22-0.41 0.47-0.8 0.26-0.4 0.55-0.71 0.28-0.31 0.6-0.5 0.32-0.2 0.67-0.2 0.23 0 0.43 0.09 0.19 0.09 0.33 0.25 0.13 0.15 0.21 0.37 0.07 0.21 0.07 0.45 0 0.32-0.08 0.68-0.09 0.37-0.19 0.75-0.11 0.37-0.19 0.75t-0.08 0.71q0 0.28 0.13 0.47 0.13 0.18 0.48 0.18 0.25 0 0.48-0.2 0.24-0.2 0.46-0.52t0.41-0.72 0.35-0.8q0.16-0.39 0.29-0.74t0.21-0.56l0.34 0.09q-0.15 0.4-0.31 0.83-0.15 0.44-0.33 0.88-0.18 0.43-0.4 0.83-0.21 0.4-0.46 0.7t-0.55 0.48-0.66 0.18q-0.34 0-0.56-0.09-0.22-0.1-0.35-0.27-0.12-0.16-0.18-0.4-0.05-0.23-0.05-0.51 0-0.3 0.09-0.68 0.09-0.39 0.2-0.79 0.11-0.41 0.2-0.82 0.08-0.41 0.08-0.75 0-0.2-0.09-0.35t-0.32-0.15q-0.36 0-0.69 0.26-0.34 0.26-0.64 0.68-0.3 0.41-0.56 0.93t-0.48 1.03-0.39 0.98q-0.18 0.47-0.3 0.77l-0.34-0.05q0-0.04-0.01-0.12 0-0.07 0-0.2 0-0.14 0-0.33-0.01-0.2-0.01-0.48 0-0.83 0.05-2.18 0.04-1.36 0.21-3.25 0.07-0.92 0.21-1.57 0.14-0.66 0.31-1.1 0.18-0.45 0.38-0.71 0.19-0.26 0.38-0.4 0.18-0.14 0.34-0.17 0.16-0.04 0.27-0.04 0.4 0 0.64 0.31 0.23 0.32 0.23 0.85zm-0.86-0.8q-0.23 0-0.41 0.22t-0.32 0.63q-0.15 0.41-0.25 0.98-0.11 0.57-0.19 1.27-0.09 0.7-0.16 1.51-0.06 0.8-0.13 1.67 0.42-0.79 0.77-1.57 0.36-0.78 0.62-1.49 0.27-0.71 0.42-1.33t0.15-1.09q0-0.14-0.02-0.29-0.02-0.14-0.08-0.26-0.05-0.11-0.15-0.18t-0.25-0.07zm6.58 3.63 0.14-0.32q0.13 0.08 0.31 0.18 0.19 0.11 0.44 0.21 0.24 0.09 0.54 0.18 0.31 0.08 0.67 0.12 0.12-0.8 0.31-1.43 0.2-0.64 0.43-1.09 0.23-0.46 0.48-0.7t0.49-0.24q0.27 0 0.39 0.21 0.11 0.21 0.11 0.56 0 0.26-0.05 0.57-0.05 0.3-0.14 0.65t-0.21 0.72q-0.12 0.38-0.26 0.75 0.88-0.08 1.63-0.29 0.74-0.22 1.28-0.44l0.17 0.33q-0.72 0.27-1.49 0.49-0.78 0.21-1.74 0.27-0.22 0.57-0.45 1.08-0.23 0.52-0.42 0.89 0 0.5 0.05 1.07 0.05 0.58 0.2 1.08 0.14 0.5 0.41 0.83 0.27 0.34 0.71 0.34 0.37 0 0.67-0.32 0.31-0.31 0.57-0.79t0.48-1.05 0.41-1.08l0.35 0.09q-0.13 0.32-0.27 0.71-0.14 0.4-0.31 0.81-0.18 0.4-0.39 0.79-0.21 0.38-0.47 0.68-0.25 0.31-0.56 0.49t-0.67 0.18q-0.38 0-0.72-0.18t-0.59-0.63-0.4-1.23q-0.14-0.78-0.14-1.98 0-0.97 0.1-1.8-0.75-0.1-1.27-0.31-0.51-0.2-0.79-0.4zm3.86-2.62q-0.07 0-0.23 0.16-0.16 0.15-0.34 0.51-0.17 0.36-0.33 0.93-0.17 0.58-0.26 1.42h0.16 0.43q0.16-0.44 0.28-0.85 0.12-0.42 0.21-0.77 0.08-0.36 0.13-0.64 0.04-0.29 0.04-0.47 0-0.29-0.09-0.29zm-1.23 4.6v0.02q0.14-0.31 0.28-0.62 0.13-0.31 0.25-0.64h-0.32-0.18q-0.02 0.28-0.03 0.6 0 0.31 0 0.64zm5.43 4.98q-0.45 0-0.86-0.16-0.42-0.16-0.73-0.48t-0.5-0.8q-0.18-0.49-0.18-1.14 0-0.79 0.23-1.41t0.58-1.04q0.36-0.43 0.8-0.66 0.44-0.22 0.86-0.22 0.54 0 0.86 0.36 0.33 0.36 0.33 0.93 0 0.49-0.19 0.89-0.18 0.4-0.49 0.69-0.3 0.29-0.69 0.44-0.39 0.16-0.81 0.16-0.21 0-0.39-0.02t-0.32-0.05q0.06 0.55 0.21 0.94 0.16 0.4 0.4 0.65 0.24 0.26 0.53 0.38 0.3 0.12 0.61 0.12 0.4 0 0.73-0.19 0.34-0.19 0.62-0.5 0.28-0.32 0.51-0.72 0.23-0.41 0.42-0.82 0.18-0.42 0.33-0.82 0.14-0.4 0.26-0.71l0.34 0.09q-0.11 0.29-0.27 0.7-0.15 0.42-0.35 0.87-0.21 0.45-0.48 0.9-0.27 0.46-0.61 0.81-0.35 0.36-0.78 0.58-0.44 0.23-0.97 0.23zm0.22-5.57q-0.33 0-0.64 0.21t-0.56 0.57q-0.24 0.36-0.4 0.85-0.15 0.49-0.15 1.05 0.11 0.05 0.32 0.08t0.5 0.03q0.32 0 0.63-0.14 0.31-0.13 0.56-0.37 0.26-0.25 0.41-0.58t0.15-0.73q0-0.19-0.05-0.37-0.05-0.17-0.16-0.31-0.1-0.13-0.26-0.21-0.15-0.08-0.35-0.08zm3.4 1.01q-0.09 0.31-0.18 0.53t-0.19 0.41q-0.11 0.19-0.23 0.36-0.13 0.17-0.29 0.37l-0.07-0.07q0.2-0.51 0.36-0.97 0.15-0.46 0.27-0.92-0.14-0.2-0.24-0.5t-0.1-0.73q0-0.37 0.12-0.62 0.12-0.26 0.31-0.26 0.11 0 0.2 0.1t0.15 0.26q0.06 0.15 0.1 0.36 0.03 0.21 0.03 0.44 0 0.1-0.01 0.22-0.01 0.13-0.03 0.26-0.02 0.12-0.04 0.24-0.03 0.12-0.06 0.2 0.06 0.04 0.18 0.07 0.11 0.03 0.31 0.03 0.33 0 0.59-0.09 0.25-0.1 0.4-0.25 0.13-0.21 0.21-0.32 0.07-0.12 0.12-0.17 0.04-0.06 0.06-0.08 0.02-0.01 0.06-0.01 0.1 0 0.16 0.05 0.06 0.06 0.06 0.15 0 0.03-0.03 0.07-0.02 0.05-0.07 0.12-0.37 0.53-0.58 1.18-0.21 0.64-0.21 1.42 0 0.91 0.29 1.31 0.3 0.4 0.84 0.4 0.3 0 0.58-0.18 0.27-0.18 0.53-0.56 0.27-0.38 0.53-0.98 0.27-0.61 0.58-1.46l0.34 0.09q-0.38 1.12-0.71 1.83-0.33 0.72-0.66 1.14-0.32 0.41-0.67 0.58-0.34 0.16-0.74 0.16-0.26 0-0.53-0.12-0.27-0.11-0.5-0.36-0.22-0.24-0.36-0.63t-0.14-0.95q0-0.27 0.04-0.56 0.05-0.3 0.13-0.58 0.08-0.27 0.18-0.53 0.09-0.26 0.2-0.47-0.32 0.15-0.69 0.15-0.36 0-0.6-0.13zm7.79-6.12q0 0.62-0.23 1.37-0.22 0.76-0.58 1.61-0.35 0.85-0.8 1.77-0.44 0.93-0.87 1.89-0.06 0.65-0.11 1.23-0.06 0.58-0.11 1.08 0.13-0.31 0.3-0.72t0.38-0.84 0.46-0.85 0.54-0.75q0.29-0.32 0.61-0.53 0.32-0.2 0.68-0.2 0.24 0 0.47 0.11 0.22 0.1 0.39 0.28t0.26 0.42q0.1 0.24 0.1 0.5 0 0.44-0.2 0.78t-0.52 0.58q-0.31 0.25-0.7 0.42-0.38 0.16-0.75 0.26 0.03 0.17 0.15 0.39 0.11 0.23 0.3 0.44t0.45 0.35q0.27 0.15 0.59 0.15 0.69 0 1.29-0.81 0.61-0.8 1.21-2.43l0.34 0.09q-0.29 0.79-0.6 1.45-0.3 0.67-0.66 1.15t-0.77 0.76q-0.41 0.27-0.9 0.27-0.2 0-0.45-0.05-0.25-0.06-0.52-0.23-0.26-0.17-0.53-0.48-0.26-0.32-0.48-0.86-0.03-0.05-0.05-0.13t-0.02-0.12q0-0.17 0.08-0.24 0.08-0.06 0.2-0.09 0.11-0.02 0.25-0.04 0.14-0.01 0.28-0.06 0.65-0.26 0.96-0.74t0.31-1.08q0-0.39-0.17-0.54-0.16-0.16-0.38-0.16-0.18 0-0.35 0.1-0.18 0.09-0.32 0.22-0.36 0.36-0.67 0.84t-0.57 0.99q-0.26 0.52-0.47 1.01-0.21 0.5-0.35 0.89-0.15 0.39-0.22 0.64-0.08 0.24-0.08 0.24l-0.34-0.05q-0.01-0.1-0.01-0.24-0.01-0.12-0.01-0.29 0-0.16 0-0.39 0-0.5 0.02-1.24 0.02-0.73 0.07-1.64t0.14-1.97q0.09-1.07 0.24-2.23 0.12-0.95 0.32-1.6t0.44-1.05q0.25-0.4 0.52-0.57 0.28-0.18 0.56-0.18 0.22 0 0.39 0.09t0.27 0.24q0.11 0.16 0.16 0.36 0.06 0.2 0.06 0.43zm-0.8-0.76q-0.22 0-0.4 0.26-0.18 0.25-0.33 0.7-0.14 0.45-0.27 1.05t-0.23 1.3-0.19 1.46-0.16 1.52q0.21-0.46 0.45-0.96t0.46-1.02q0.23-0.52 0.43-1.02 0.21-0.51 0.36-0.98 0.16-0.46 0.25-0.86 0.09-0.39 0.09-0.69 0-0.11-0.01-0.24-0.02-0.13-0.06-0.25-0.05-0.11-0.14-0.19t-0.25-0.08zm10.55 7.26 0.34 0.09q-0.36 0.98-0.65 1.63-0.3 0.66-0.57 1.07-0.28 0.4-0.55 0.58-0.27 0.17-0.6 0.17-0.39 0-0.68-0.27-0.28-0.28-0.35-0.86-0.28 0.61-0.73 0.99t-1.12 0.38q-0.36 0-0.69-0.13t-0.59-0.41q-0.25-0.28-0.41-0.7-0.15-0.42-0.15-0.99 0-0.58 0.15-1.09 0.14-0.51 0.38-0.94 0.24-0.42 0.55-0.76 0.31-0.33 0.64-0.56 0.34-0.23 0.67-0.35 0.34-0.12 0.62-0.12 0.24 0 0.47 0.06t0.41 0.2q0.18 0.13 0.29 0.36t0.11 0.57q0 0.41-0.15 0.7-0.16 0.3-0.37 0.51-0.22 0.2-0.44 0.32-0.23 0.12-0.36 0.18l-0.1-0.35q0.02 0 0.19-0.07 0.18-0.07 0.36-0.23 0.19-0.16 0.35-0.42 0.16-0.25 0.16-0.62 0-0.42-0.24-0.65-0.23-0.22-0.6-0.22-0.29 0-0.66 0.2-0.38 0.2-0.73 0.63t-0.59 1.09-0.24 1.58q0 0.9 0.32 1.38 0.32 0.47 0.87 0.47 0.27 0 0.52-0.15 0.25-0.16 0.46-0.41 0.21-0.26 0.38-0.59 0.17-0.34 0.29-0.7 0-0.28 0.07-0.67 0.06-0.38 0.2-0.77l0.54 0.17q-0.05 0.12-0.09 0.3t-0.08 0.4-0.07 0.46q-0.02 0.23-0.02 0.45 0 0.68 0.13 0.94 0.14 0.26 0.47 0.26 0.19 0 0.38-0.14t0.41-0.49 0.49-0.95q0.26-0.61 0.61-1.53zm2.61-1.93q0.39 0 0.67 0.1 0.27 0.1 0.45 0.21 0.06-1.16 0.2-2.05t0.33-1.55q0.19-0.67 0.41-1.12t0.45-0.73q0.22-0.28 0.44-0.39 0.22-0.12 0.4-0.12 0.4 0 0.6 0.33 0.21 0.34 0.21 0.99 0 0.34-0.08 0.87-0.07 0.53-0.22 1.19-0.14 0.65-0.35 1.4-0.2 0.75-0.47 1.5-0.27 0.76-0.59 1.5-0.31 0.73-0.68 1.38 0.03 0.51 0.11 0.81 0.07 0.31 0.19 0.48 0.11 0.17 0.26 0.23 0.15 0.07 0.33 0.07 0.26 0 0.5-0.18 0.23-0.17 0.48-0.54 0.25-0.38 0.51-0.98 0.26-0.61 0.57-1.47l0.34 0.09q-0.25 0.68-0.51 1.31-0.25 0.64-0.55 1.14-0.29 0.49-0.64 0.79t-0.8 0.3q-0.55 0-0.86-0.33t-0.46-0.91q-0.51 0.75-1.09 1.19-0.59 0.45-1.23 0.45-0.36 0-0.69-0.14-0.34-0.13-0.59-0.42-0.26-0.29-0.42-0.73-0.15-0.44-0.15-1.07 0-0.65 0.2-1.29 0.21-0.64 0.59-1.16 0.38-0.51 0.92-0.83t1.22-0.32zm-0.77 5.46q0.49 0 0.99-0.44 0.49-0.43 0.95-1.15-0.05-0.41-0.07-0.87-0.02-0.47-0.02-1 0-0.33 0-0.66t0.02-0.64q-0.04-0.03-0.13-0.1-0.08-0.06-0.21-0.12t-0.29-0.1-0.36-0.04q-0.3 0-0.68 0.17t-0.72 0.54q-0.33 0.37-0.56 0.97t-0.23 1.46q0 0.41 0.09 0.77t0.26 0.63q0.18 0.27 0.42 0.42 0.24 0.16 0.54 0.16zm4.59-9.79q0-0.14-0.02-0.3-0.01-0.17-0.05-0.32-0.05-0.14-0.13-0.24-0.09-0.1-0.23-0.1-0.37 0-0.67 0.6-0.3 0.59-0.52 1.64t-0.34 2.47q-0.13 1.41-0.13 3.05v0.39q0.3-0.59 0.57-1.25 0.28-0.67 0.51-1.35 0.23-0.67 0.42-1.34 0.18-0.67 0.31-1.27 0.14-0.6 0.21-1.11t0.07-0.87zm7.33 6.26 0.34 0.09q-0.36 0.98-0.66 1.63-0.29 0.66-0.57 1.07-0.27 0.4-0.55 0.58-0.27 0.17-0.59 0.17-0.4 0-0.68-0.27-0.28-0.28-0.35-0.86-0.28 0.61-0.73 0.99t-1.13 0.38q-0.36 0-0.69-0.13t-0.58-0.41q-0.26-0.28-0.41-0.7t-0.15-0.99q0-0.58 0.14-1.09 0.15-0.51 0.38-0.94 0.24-0.42 0.55-0.76 0.31-0.33 0.65-0.56 0.33-0.23 0.67-0.35 0.33-0.12 0.61-0.12 0.25 0 0.48 0.06t0.41 0.2q0.18 0.13 0.29 0.36t0.11 0.57q0 0.41-0.16 0.7-0.15 0.3-0.37 0.51-0.21 0.2-0.44 0.32-0.22 0.12-0.35 0.18l-0.11-0.35q0.03 0 0.2-0.07t0.36-0.23 0.35-0.42q0.15-0.25 0.15-0.62 0-0.42-0.23-0.65-0.24-0.22-0.61-0.22-0.28 0-0.66 0.2t-0.72 0.63q-0.35 0.43-0.59 1.09t-0.24 1.58q0 0.9 0.32 1.38 0.32 0.47 0.86 0.47 0.28 0 0.53-0.15 0.25-0.16 0.46-0.41 0.21-0.26 0.38-0.59 0.16-0.34 0.29-0.7 0-0.28 0.06-0.67 0.07-0.38 0.21-0.77l0.53 0.17q-0.04 0.12-0.08 0.3-0.05 0.18-0.09 0.4t-0.06 0.46q-0.03 0.23-0.03 0.45 0 0.68 0.14 0.94 0.13 0.26 0.47 0.26 0.19 0 0.38-0.14t0.41-0.49 0.48-0.95q0.26-0.61 0.62-1.53zm0.34 0.09-0.34-0.09q0.13-0.34 0.28-0.65 0.16-0.31 0.33-0.55 0.18-0.24 0.38-0.38 0.21-0.15 0.47-0.15 0.12 0 0.28 0.05 0.15 0.06 0.3 0.21 0.14 0.16 0.24 0.46t0.1 0.79q0 0.26-0.03 0.56-0.02 0.31-0.05 0.61 0.27-0.58 0.54-0.98t0.53-0.64 0.51-0.35q0.26-0.11 0.51-0.11 0.11 0 0.27 0.05 0.15 0.05 0.29 0.19 0.13 0.13 0.23 0.36 0.09 0.22 0.09 0.58 0 0.29-0.04 0.58-0.05 0.29-0.1 0.57-0.05 0.27-0.1 0.51-0.04 0.24-0.04 0.43 0 0.44 0.16 0.67 0.15 0.23 0.48 0.23 0.26 0 0.5-0.19 0.24-0.2 0.44-0.51 0.21-0.31 0.38-0.68t0.3-0.7q0.13-0.34 0.22-0.6 0.08-0.26 0.12-0.36l0.34 0.09q-0.12 0.31-0.26 0.68-0.13 0.37-0.3 0.75t-0.36 0.74q-0.19 0.35-0.43 0.62-0.24 0.28-0.52 0.44-0.27 0.17-0.61 0.17-0.28 0-0.48-0.11-0.21-0.11-0.35-0.29-0.14-0.19-0.21-0.44-0.07-0.26-0.07-0.55 0-0.32 0.05-0.67 0.06-0.34 0.13-0.65 0.06-0.32 0.12-0.59t0.06-0.44q0-0.28-0.11-0.41-0.1-0.14-0.29-0.14-0.25 0-0.49 0.19-0.25 0.18-0.47 0.49t-0.43 0.7q-0.2 0.4-0.37 0.82-0.17 0.41-0.32 0.83-0.14 0.41-0.25 0.74-0.1 0.34-0.18 0.57-0.07 0.23-0.1 0.29l-0.51-0.08q0.11-0.52 0.2-1.1 0.08-0.57 0.15-1.13t0.11-1.07q0.03-0.51 0.03-0.9 0-0.54-0.07-0.73t-0.25-0.19q-0.16 0-0.3 0.12t-0.26 0.32q-0.12 0.19-0.23 0.46-0.12 0.26-0.22 0.56zm8.78 8.37q-0.51 0-0.9-0.15t-0.66-0.41q-0.26-0.26-0.39-0.62-0.13-0.35-0.13-0.77 0-0.36 0.13-0.69 0.13-0.32 0.35-0.56 0.23-0.24 0.52-0.38 0.3-0.13 0.61-0.13t0.61 0.17q0.29 0.17 0.56 0.48l-0.29 0.22q-0.2-0.26-0.43-0.38-0.24-0.13-0.46-0.13-0.26 0-0.48 0.11-0.23 0.11-0.4 0.29-0.18 0.19-0.28 0.43-0.1 0.25-0.1 0.52 0 0.35 0.1 0.65 0.11 0.3 0.33 0.53 0.22 0.22 0.54 0.35 0.33 0.12 0.77 0.12 0.61 0 1.03-0.28 0.42-0.29 0.68-0.74 0.27-0.46 0.39-1.04 0.11-0.57 0.11-1.15v-1.37-0.67q-0.37 0.52-0.94 0.84-0.57 0.33-1.34 0.33-0.34 0-0.67-0.11t-0.6-0.38q-0.27-0.26-0.44-0.71-0.16-0.45-0.16-1.12 0-0.47 0.12-0.94 0.13-0.47 0.36-0.91t0.55-0.82q0.31-0.39 0.69-0.68 0.38-0.28 0.8-0.45 0.43-0.16 0.88-0.16 0.28 0 0.5 0.09 0.23 0.09 0.4 0.23t0.3 0.31 0.2 0.34q0.13-0.35 0.23-0.59 0.1-0.23 0.17-0.36l0.33 0.16q-0.03 0.05-0.14 0.36t-0.23 0.86q-0.13 0.55-0.22 1.34-0.1 0.8-0.1 1.81 0 0.23 0 0.51 0.01 0.27 0.01 0.55t0 0.55q0.01 0.28 0.01 0.5 0 1.21-0.27 1.99-0.26 0.79-0.68 1.25t-0.94 0.63q-0.52 0.18-1.03 0.18zm0.51-4.97q0.3 0 0.56-0.1 0.26-0.09 0.47-0.25 0.22-0.17 0.4-0.39 0.18-0.23 0.31-0.48 0.05-1.04 0.19-1.8 0.13-0.76 0.28-1.3-0.06-0.21-0.16-0.41-0.11-0.19-0.26-0.34-0.16-0.15-0.36-0.24-0.21-0.09-0.48-0.09-0.34 0-0.78 0.21-0.45 0.22-0.86 0.65-0.4 0.44-0.68 1.09-0.27 0.65-0.27 1.51 0 0.42 0.09 0.78 0.1 0.36 0.3 0.62 0.2 0.25 0.51 0.4 0.32 0.14 0.74 0.14z" fill="#ccc"/></g></g><g filter="url(#q)"><mask id="m" x="108" y="111" width="160" height="184" style="mask-type:alpha" maskUnits="userSpaceOnUse"><path d="m188 294.42 79.5-45.715v-91.417l-79.5-45.714-79.5 45.714v91.417l79.5 45.715z" fill="url(#d)" stroke="#000"/></mask><g mask="url(#m)"><path d="m280.73 202.83c0 50.832-41.256 92.041-92.15 92.041s-92.15-41.209-92.15-92.041 41.256-92.04 92.15-92.04 92.15 41.208 92.15 92.04z" fill="url(#c)" stroke="#000"/></g></g><path d="m156.38 125.56-2.883-0.42c-0.088 0-0.177 0-0.177 0.088l-1.22 1.566c-0.07 0.103-0.101 0.226-0.088 0.349 0 0.088-0.089 0.264-0.173 0.176l-0.964-0.26c-0.172 0-0.349 0-0.421 0.172l-3.931 5.038c-0.088 0.088-0.177 0.088-0.349 0.088l-1.486-0.697c-0.063-0.039-0.136-0.06-0.21-0.06-0.075 0-0.148 0.021-0.211 0.06l-0.825 0.529c-0.063 0.041-0.136 0.062-0.21 0.062-0.075 0-0.148-0.021-0.211-0.062l-0.349-0.172c-0.057-0.025-0.119-0.039-0.181-0.04-0.062 0-0.124 0.012-0.182 0.036-0.057 0.025-0.109 0.061-0.151 0.106-0.043 0.046-0.076 0.1-0.096 0.158l-0.266 1.218c-0.031 0.129-0.023 0.265 0.025 0.389 0.047 0.125 0.131 0.232 0.241 0.308l0.698 0.42 1.831 1.133 0.876 0.521c0.123 0.072 0.265 0.103 0.407 0.087 0.142-0.015 0.275-0.075 0.38-0.171l1.481-1.31c0.128-0.072 0.275-0.102 0.421-0.084l0.421 0.26c0.173 0.089 0.349 0.089 0.421-0.088l0.783-0.697c0.054-0.054 0.122-0.091 0.197-0.107 0.075-0.015 0.153-9e-3 0.224 0.019l1.136 0.525c0.088 0.029 0.181 0.036 0.272 0.02 0.091-0.015 0.177-0.052 0.25-0.108l0.526-0.697 3.931-5.038c0.173-0.265 0.084-0.613-0.265-0.613l-0.825-0.185c-0.177 0-0.261-0.26-0.177-0.42l1.398-1.654c0.193-0.176 0.105-0.445-0.068-0.445z" fill="#fff"/><path d="m143.28 135.77c-0.088-0.088-0.172 0-0.172 0.088l0.421 1.13v0.264l-0.35 1.478c-6e-3 0.048-1e-3 0.096 0.014 0.142 0.016 0.046 0.041 0.088 0.075 0.122l1.048 0.781c0.048 0.043 0.11 0.066 0.174 0.066 0.065 0 0.127-0.023 0.175-0.066l1.136-0.957c0.034-0.033 0.076-0.059 0.121-0.074s0.093-0.02 0.14-0.014l1.225-0.172c0.084 0 0.084-0.088 0-0.176l-4.007-2.612z" fill="#fff"/><path d="m142.93 139.51c-0.015-0.021-0.035-0.038-0.057-0.05-0.023-0.011-0.048-0.017-0.074-0.017-0.025 0-0.051 6e-3 -0.073 0.017-0.023 0.012-0.043 0.029-0.057 0.05l-0.876 0.42c-0.011 0-0.023 2e-3 -0.033 7e-3 -0.011 4e-3 -0.02 0.011-0.028 0.019s-0.014 0.018-0.018 0.028c-4e-3 0.011-6e-3 0.023-5e-3 0.034l-1.923 4.702h0.088l0.421-0.172v0.084l-1.398 2.267c0 0.088 0 0.088 0.085 0.088l4.89-4.966c0.089 0 0.089-0.089 0.089-0.177l0.088-1.305c0-0.089 0-0.173-0.088-0.173l-1.031-0.856z" fill="#fff"/><path d="m138 176-1.936-3.615 3.367-2.33 0.648 0.903-1.065 0.718c-0.182 0.13-0.372 0.249-0.568 0.357-0.178 0.1-0.364 0.186-0.556 0.256l3.62 0.873-0.248 1.024-3.629-0.877c0.096 0.097 0.184 0.201 0.266 0.311 0.08 0.105 0.155 0.218 0.231 0.34l0.232 0.42 0.614 1.125-0.976 0.495z" fill="#FFCD1E"/><path d="m122.14 162.19c0.576-0.659 1.494-0.726 2.314 0l1.684 1.474-3.367 3.833-1.339-1.205c-0.875-0.764-1.195-1.566-0.58-2.271 0.132-0.166 0.31-0.289 0.512-0.355 0.202-0.065 0.419-0.071 0.624-0.014-0.151-0.223-0.219-0.491-0.191-0.759 0.028-0.267 0.149-0.516 0.343-0.703zm1.203 3.2-0.682-0.592c-0.42-0.374-0.782-0.479-1.001-0.227s-0.068 0.584 0.366 0.957l0.678 0.592 0.639-0.73zm-0.547-2.486c-0.299 0.344-0.139 0.764 0.333 1.176l0.774 0.671 0.88-1.003-0.775-0.672c-0.471-0.411-0.909-0.52-1.212-0.172z" fill="#fff"/><path d="m114.55 158.69 2.323-1.763c1.069-0.815 2.294-0.798 3.081 0.231 0.787 1.028 0.476 2.212-0.593 3.022l-2.324 1.764-0.585-0.764 2.416-1.839c0.131-0.079 0.243-0.185 0.33-0.31s0.146-0.267 0.175-0.417c0.028-0.15 0.025-0.304-0.01-0.452-0.036-0.148-0.101-0.287-0.194-0.409-0.092-0.121-0.209-0.221-0.343-0.294-0.134-0.074-0.282-0.118-0.434-0.131-0.152-0.012-0.305 7e-3 -0.449 0.057-0.145 0.05-0.277 0.13-0.388 0.234l-2.42 1.835-0.585-0.764z" fill="#fff"/><path d="m116.95 152.75-4.512 2.372-0.45-0.84 4.52-2.385 0.442 0.853z" fill="#fff"/><path d="m113.17 146.26 0.918-0.315 0.985 2.842-4.828 1.68-0.315-0.912 3.905-1.343-0.665-1.952z" fill="#fff"/><path d="m110.19 138.95c1.397-0.193 2.655 0.608 2.887 2.284l0.231 1.679-5.05 0.693-0.228-1.68c-0.235-1.721 0.766-2.787 2.16-2.976zm0.13 0.953c-0.205 0.018-0.403 0.078-0.584 0.176s-0.339 0.231-0.466 0.392c-0.127 0.162-0.22 0.347-0.272 0.545-0.053 0.199-0.064 0.405-0.033 0.608l0.118 0.882 3.131-0.42-0.122-0.878c-0.025-0.203-0.091-0.399-0.194-0.576-0.104-0.177-0.242-0.332-0.407-0.454s-0.353-0.209-0.553-0.257c-0.2-0.047-0.407-0.053-0.609-0.018h-9e-3z" fill="#fff"/><path d="m108.74 126.4 0.956 0.189-0.261 1.301 4.053 0.806-0.189 0.945-4.054-0.806-0.261 1.297-0.951-0.189 0.707-3.543z" fill="#fff"/><path d="m111.52 118.68 4.705 1.969-0.374 0.89-1.907-0.798-0.842 1.999 1.907 0.798-0.375 0.885-4.705-1.969 0.374-0.89 1.903 0.798 0.841-1.998-1.902-0.798 0.375-0.886z" fill="#fff"/><path d="m115 114.65 0.905 0.613 1.015-1.494 0.803 0.541-1.014 1.495 0.905 0.613 1.221-1.793 0.803 0.542-1.763 2.59-4.209-2.855 1.759-2.59 0.804 0.546-1.229 1.792z" fill="#fff"/><path d="m125.17 109.3-3.123-4.027 2.484-1.914 0.593 0.764-1.717 1.327 0.673 0.865 1.431-1.109 0.598 0.769-1.44 1.112 1.263 1.629-0.762 0.584z" fill="#fff"/><path d="m131.57 99.367 1.309 2.5989c0.602 1.196 0.362 2.393-0.796 2.976-1.157 0.584-2.268 0.059-2.87-1.141l-1.309-2.587 0.863-0.42 1.363 2.704c0.066 0.128 0.155 0.241 0.265 0.334 0.109 0.094 0.235 0.164 0.372 0.208 0.136 0.045 0.28 0.062 0.424 0.05 0.143-0.011 0.282-0.05 0.41-0.115s0.242-0.155 0.335-0.264c0.094-0.109 0.164-0.235 0.209-0.371 0.044-0.136 0.061-0.28 0.05-0.423s-0.051-0.282-0.116-0.41l-1.364-2.7075 0.855-0.4324z" fill="#fff"/><path d="m138.81 96.991 0.257 0.932-1.263 0.3527 1.099 3.9754-0.935 0.252-1.094-3.9713-1.263 0.3527-0.261-0.9363 3.46-0.9572z" fill="#fff"/><path d="m146.86 96 0.21 2.9011c0.097 1.3349-0.589 2.3469-1.881 2.4389-1.292 0.093-2.105-0.81-2.21-2.1492l-0.21-2.8969 0.964-0.0714 0.214 3.0229c-7e-3 0.1541 0.018 0.308 0.075 0.4515 0.057 0.1436 0.143 0.2735 0.254 0.3811 0.111 0.108 0.243 0.191 0.388 0.244 0.146 0.053 0.301 0.075 0.455 0.064s0.304-0.055 0.44-0.128c0.137-0.073 0.256-0.174 0.35-0.2969 0.094-0.1224 0.161-0.2633 0.196-0.4135 0.036-0.1501 0.039-0.3061 0.01-0.4576l-0.219-3.0228 0.964-0.0672z" fill="#fff"/><path d="m153.12 101.53-0.914-1.8308-0.576-0.0714-0.215 1.6792-0.96-0.126 0.653-5.0378 1.797 0.2309c1.309 0.1679 1.822 0.953 1.684 1.9312-0.041 0.3565-0.195 0.6906-0.439 0.9535-0.245 0.2629-0.568 0.4408-0.921 0.5076l1.044 1.9186-1.153-0.155zm-1.364-2.8636 0.96 0.1218c0.101 0.022 0.206 0.0235 0.308 0.0044 0.102-0.019 0.2-0.0583 0.286-0.1154 0.087-0.0571 0.161-0.1309 0.219-0.2172 0.058-0.0862 0.097-0.183 0.117-0.2848 0.013-0.1053 3e-3 -0.2121-0.028-0.3134s-0.084-0.1948-0.155-0.2742c-0.07-0.0795-0.157-0.143-0.254-0.1865-0.097-0.0434-0.202-0.0658-0.308-0.0656l-0.96-0.1217-0.185 1.4526z" fill="#fff"/><path d="m159.49 98.796-0.341 1.037 1.717 0.5669-0.303 0.919-1.717-0.566-0.341 1.037 2.062 0.68-0.29 0.919-2.976-0.982 1.595-4.8326 2.98 0.9782-0.303 0.9236-2.083-0.6801z" fill="#fff"/><path d="m173.03 103.64 0.278 4.089-4.045 0.739-0.219-1.095 1.263-0.219c0.231-0.042 0.454-0.075 0.665-0.092 0.203-0.017 0.407-0.017 0.61 0l-2.946-2.284 0.648-0.84 2.946 2.284c-0.047-0.127-0.085-0.257-0.114-0.39-0.032-0.138-0.054-0.279-0.067-0.42 0-0.139-0.034-0.298-0.046-0.466l-0.097-1.26 1.124-0.046z" fill="#FFCD1E"/><path d="m179.89 122.16 1.06-1.747-0.244-0.524-1.54 0.713-0.421-0.873 4.63-2.141 0.766 1.637c0.555 1.193 0.164 2.045-0.729 2.46-0.324 0.157-0.69 0.205-1.043 0.138-0.354-0.066-0.677-0.244-0.922-0.507l-1.069 1.906-0.488-1.062zm1.683-2.679 0.421 0.874c0.036 0.097 0.09 0.187 0.161 0.263s0.156 0.137 0.251 0.18 0.198 0.066 0.302 0.068c0.104 3e-3 0.208-0.016 0.305-0.054 0.095-0.046 0.179-0.111 0.246-0.191 0.068-0.081 0.118-0.175 0.147-0.276 0.028-0.101 0.035-0.207 0.02-0.311-0.016-0.104-0.053-0.204-0.11-0.292l-0.421-0.874-1.322 0.613z" fill="#fff"/><path d="m184.96 130.28c-0.512 0.112-1.046 0.07-1.534-0.12-0.489-0.19-0.91-0.52-1.21-0.949-0.301-0.428-0.468-0.936-0.48-1.458-0.012-0.523 0.132-1.038 0.412-1.48 0.281-0.441 0.687-0.79 1.166-1.002s1.01-0.278 1.527-0.19c0.517 0.089 0.996 0.328 1.376 0.687 0.381 0.36 0.646 0.824 0.763 1.334 0.155 0.688 0.029 1.41-0.35 2.006s-0.98 1.017-1.67 1.172zm-0.215-0.941c0.324-0.077 0.617-0.247 0.843-0.49s0.375-0.547 0.428-0.875c0.053-0.327 8e-3 -0.662-0.13-0.964-0.138-0.301-0.362-0.556-0.644-0.731-0.282-0.174-0.61-0.262-0.942-0.251-0.332 0.01-0.654 0.118-0.924 0.311-0.27 0.192-0.478 0.46-0.596 0.77s-0.141 0.648-0.068 0.971c0.049 0.217 0.14 0.422 0.269 0.604s0.293 0.336 0.482 0.454 0.4 0.197 0.62 0.233 0.445 0.028 0.662-0.023v-9e-3z" fill="#fff"/><path d="m184.17 137.62-0.876 0.382c-0.4-0.451-0.626-1.028-0.64-1.629-5e-3 -0.35 0.059-0.698 0.188-1.024 0.129-0.325 0.321-0.622 0.565-0.874 0.245-0.251 0.536-0.452 0.858-0.591 0.323-0.139 0.669-0.214 1.02-0.219 0.351-6e-3 0.7 0.058 1.026 0.187 0.326 0.128 0.624 0.32 0.876 0.564s0.454 0.534 0.593 0.856c0.14 0.321 0.214 0.667 0.22 1.017 9e-3 0.6-0.197 1.183-0.581 1.645l-0.888-0.352c0.326-0.338 0.504-0.791 0.496-1.26-0.016-0.272-0.099-0.536-0.24-0.769-0.142-0.233-0.339-0.429-0.573-0.569-0.234-0.141-0.499-0.222-0.772-0.237-0.273-0.016-0.546 0.035-0.794 0.149-0.249 0.113-0.466 0.285-0.633 0.501-0.167 0.215-0.279 0.469-0.326 0.737-0.048 0.269-0.028 0.545 0.055 0.804 0.084 0.26 0.23 0.495 0.426 0.686v-4e-3z" fill="#fff"/><path d="m181.66 145.08 0.24-1.196 2.559-1.44-2.188-0.42 0.189-0.945 5.004 0.987-0.189 0.944-2.071-0.419 1.726 2.166-0.24 1.192-1.97-2.594-3.06 1.725z" fill="#fff"/><path d="m184.21 150.34-1.015-0.419-0.686 1.679-0.896-0.365 0.682-1.68-1.011-0.419-0.841 2.002-0.901-0.365 1.183-2.897 4.726 1.923-1.187 2.897-0.896-0.366 0.842-1.99z" fill="#fff"/><path d="m180.48 159.27-0.8-0.538 0.72-1.112-3.473-2.234 0.522-0.806 3.473 2.234 0.724-1.113 0.816 0.525-1.982 3.044z" fill="#fff"/><path d="m172.68 162.8c-0.661-0.629-0.703-1.633 0.227-2.599 0.261-0.282 0.577-0.508 0.929-0.663 0.352-0.154 0.732-0.234 1.117-0.235l0.278 0.936c-0.302-8e-3 -0.603 0.045-0.884 0.156-0.28 0.111-0.535 0.278-0.749 0.491-0.463 0.483-0.552 0.932-0.295 1.18 0.257 0.247 0.64 0.109 1.17-0.299 1.158-0.885 1.89-0.864 2.445-0.331 0.556 0.533 0.678 1.595-0.197 2.519-0.434 0.465-1.018 0.763-1.65 0.839l-0.32-0.869c0.48-0.06 0.926-0.282 1.263-0.629 0.357-0.37 0.564-0.794 0.269-1.079-0.295-0.286-0.547-0.118-1.145 0.323-0.88 0.634-1.671 1.016-2.458 0.26z" fill="#fff"/><path d="m170.8 167.66-0.631-0.89-1.477 1.041-0.56-0.789 1.477-1.042-0.631-0.89-1.776 1.26-0.56-0.794 2.563-1.805 2.946 4.152-2.563 1.81-0.56-0.794 1.772-1.259z" fill="#fff"/><path d="m161.35 169.34 1.957-0.869-0.05-1.037 0.993-0.419 0.156 5.504-0.8 0.352-3.986-3.808 0.989-0.419 0.741 0.696zm0.733 0.735 1.38 1.377-0.101-1.944-1.279 0.567z" fill="#fff"/><path d="m155.3 175.43-0.227-0.944 1.292-0.307-0.955-4.009 0.938-0.223 0.956 4.01 1.292-0.307 0.227 0.941-3.523 0.839z" fill="#fff"/></g><defs><filter id="q" x="104" y="111" width="168" height="192" color-interpolation-filters="sRGB" filterUnits="userSpaceOnUse"><feFlood flood-opacity="0" result="BackgroundImageFix"/><feColorMatrix in="SourceAlpha" result="hardAlpha" values="0 0 0 0 0 0 0 0 0 0 0 0 0 0 0 0 0 0 127 0"/><feOffset dy="4"/><feGaussianBlur stdDeviation="2"/><feComposite in2="hardAlpha" operator="out"/><feColorMatrix values="0 0 0 0 0 0 0 0 0 0 0 0 0 0 0 0 0 0 0.25 0"/><feBlend in2="BackgroundImageFix" result="effect1_dropShadow_61486_2"/><feBlend in="SourceGraphic" in2="effect1_dropShadow_61486_2" result="shape"/></filter><pattern id="d" width="1" height="1" patternContentUnits="objectBoundingBox"><use transform="translate(-.075) scale(.00094031 .00081766)" xlink:href="#a"/></pattern><pattern id="c" width="1" height="1" patternContentUnits="objectBoundingBox"><use transform="translate(0 -.00059331) scale(.00081766)" xlink:href="#a"/></pattern><radialGradient id="l" cx="0" cy="0" r="1" gradientTransform="translate(278 26) rotate(90) scale(300)" gradientUnits="userSpaceOnUse"><stop stop-color="#FFC323" offset="0"/><stop stop-color="#121214" stop-opacity="0" offset="1"/></radialGradient><radialGradient id="k" cx="0" cy="0" r="1" gradientTransform="translate(98 26) rotate(90) scale(300)" gradientUnits="userSpaceOnUse"><stop stop-color="#FF3D6E" offset="0"/><stop stop-color="#121214" stop-opacity="0" offset="1"/></radialGradient><linearGradient id="j" x1="-67.95" x2="436.12" y1="-14.062" y2="159.36" gradientUnits="userSpaceOnUse"><stop stop-color="#FF008E" offset="0"/><stop stop-color="#FFCD1E" offset="1"/></linearGradient><linearGradient id="i" x1="95.127" x2="2.2382" y1="144.56" y2="-13.953" gradientUnits="userSpaceOnUse"><stop stop-color="#8257E5" offset="0"/><stop stop-color="#FF008E" stop-opacity="0" offset="1"/></linearGradient><linearGradient id="h" x1="95.127" x2="2.2382" y1="37.155" y2="-121.36" gradientUnits="userSpaceOnUse"><stop stop-color="#8257E5" offset="0"/><stop stop-color="#FF008E" stop-opacity="0" offset="1"/></linearGradient><linearGradient id="g" x1="375" x2="188.71" y1="101.83" y2="-10.585" gradientUnits="userSpaceOnUse"><stop stop-color="#FF008E" stop-opacity="0" offset="0"/><stop stop-color="#FFCD1E" offset="1"/></linearGradient><linearGradient id="f" x1="281.71" x2="374.6" y1="37.155" y2="-121.36" gradientUnits="userSpaceOnUse"><stop stop-color="#8257E5" offset="0"/><stop stop-color="#FF008E" stop-opacity="0" offset="1"/></linearGradient><linearGradient id="e" x1="188.42" x2="281.31" y1="-6.6448" y2="151.87" gradientUnits="userSpaceOnUse"><stop stop-color="#8257E5" offset="0"/><stop stop-color="#FF008E" stop-opacity="0" offset="1"/></linearGradient><clipPath id="r"><rect width="375" height="576" fill="#fff"/></clipPath><image id="a" width="1223" height="1223" xlink:href="https://github.com/ArugaZ.png"/></defs></svg>